%TF.GenerationSoftware,KiCad,Pcbnew,9.0.2+dfsg-1*%
%TF.CreationDate,2026-07-30T15:18:47+07:00*%
%TF.ProjectId,pico2_trace,7069636f-325f-4747-9261-63652e6b6963,rev?*%
%TF.SameCoordinates,Original*%
%TF.FileFunction,Other,User*%
%FSLAX46Y46*%
G04 Gerber Fmt 4.6, Leading zero omitted, Abs format (unit mm)*
G04 Created by KiCad (PCBNEW 9.0.2+dfsg-1) date 2026-07-30 15:18:47*
%MOMM*%
%LPD*%
G01*
G04 APERTURE LIST*
%ADD10C,0.050000*%
G04 APERTURE END LIST*
D10*
%TO.C,MH1*%
X7450000Y-4000000D02*
G75*
G02*
X550000Y-4000000I-3450000J0D01*
G01*
X550000Y-4000000D02*
G75*
G02*
X7450000Y-4000000I3450000J0D01*
G01*
%TO.C,J2B*%
X475000Y-13800000D02*
X52275000Y-13800000D01*
X475000Y-17350000D02*
X475000Y-13800000D01*
X52275000Y-13800000D02*
X52275000Y-17350000D01*
X52275000Y-17350000D02*
X475000Y-17350000D01*
%TO.C,D_VSYS*%
X2550000Y-17755000D02*
X2550000Y-20055000D01*
X2550000Y-17755000D02*
X7250000Y-17755000D01*
X7250000Y-17755000D02*
X7250000Y-20055000D01*
X7250000Y-20055000D02*
X2550000Y-20055000D01*
%TO.C,R_HVEN_PD*%
X65170000Y-40670000D02*
X66110000Y-40670000D01*
X65170000Y-42530000D02*
X65170000Y-40670000D01*
X66110000Y-40670000D02*
X66110000Y-42530000D01*
X66110000Y-42530000D02*
X65170000Y-42530000D01*
%TO.C,J7*%
X66170000Y-55920000D02*
X66170000Y-62480000D01*
X66170000Y-62480000D02*
X72970000Y-62480000D01*
X72970000Y-55920000D02*
X66170000Y-55920000D01*
X72970000Y-62480000D02*
X72970000Y-55920000D01*
%TO.C,R_DDP*%
X68070000Y-43280000D02*
X69930000Y-43280000D01*
X68070000Y-44220000D02*
X68070000Y-43280000D01*
X69930000Y-43280000D02*
X69930000Y-44220000D01*
X69930000Y-44220000D02*
X68070000Y-44220000D01*
%TO.C,R_CC4*%
X79880000Y-52070000D02*
X80820000Y-52070000D01*
X79880000Y-53930000D02*
X79880000Y-52070000D01*
X80820000Y-52070000D02*
X80820000Y-53930000D01*
X80820000Y-53930000D02*
X79880000Y-53930000D01*
%TO.C,SW1*%
X74060000Y-56255000D02*
X74060000Y-63655000D01*
X74060000Y-63655000D02*
X84060000Y-63655000D01*
X84060000Y-56255000D02*
X74060000Y-56255000D01*
X84060000Y-63655000D02*
X84060000Y-56255000D01*
%TO.C,J_STEMMA*%
X44200000Y-620000D02*
X44200000Y-7180000D01*
X44200000Y-7180000D02*
X52000000Y-7180000D01*
X52000000Y-620000D02*
X44200000Y-620000D01*
X52000000Y-7180000D02*
X52000000Y-620000D01*
%TO.C,R_CC1*%
X20830000Y-5970000D02*
X21770000Y-5970000D01*
X20830000Y-7830000D02*
X20830000Y-5970000D01*
X21770000Y-5970000D02*
X21770000Y-7830000D01*
X21770000Y-7830000D02*
X20830000Y-7830000D01*
%TO.C,LED_USER*%
X55570000Y-7120000D02*
X57030000Y-7120000D01*
X55570000Y-10080000D02*
X55570000Y-7120000D01*
X57030000Y-7120000D02*
X57030000Y-10080000D01*
X57030000Y-10080000D02*
X55570000Y-10080000D01*
%TO.C,PICO*%
X52895000Y-43540000D02*
X595000Y-43540000D01*
X595000Y-36500000D01*
X-955000Y-36500000D01*
X-955000Y-27500000D01*
X595000Y-27500000D01*
X595000Y-20460000D01*
X52895000Y-20460000D01*
X52895000Y-43540000D01*
%TO.C,R_HDP_PD*%
X63320000Y-16220000D02*
X64260000Y-16220000D01*
X63320000Y-18080000D02*
X63320000Y-16220000D01*
X64260000Y-16220000D02*
X64260000Y-18080000D01*
X64260000Y-18080000D02*
X63320000Y-18080000D01*
%TO.C,R_NVD_T*%
X52430000Y-8070000D02*
X53370000Y-8070000D01*
X52430000Y-9930000D02*
X52430000Y-8070000D01*
X53370000Y-8070000D02*
X53370000Y-9930000D01*
X53370000Y-9930000D02*
X52430000Y-9930000D01*
%TO.C,C_HSW_IN*%
X67590000Y-40540000D02*
X69410000Y-40540000D01*
X67590000Y-41460000D02*
X67590000Y-40540000D01*
X69410000Y-40540000D02*
X69410000Y-41460000D01*
X69410000Y-41460000D02*
X67590000Y-41460000D01*
%TO.C,U_HSW*%
X62450000Y-36700000D02*
X63450000Y-36700000D01*
X62450000Y-39700000D02*
X62450000Y-36700000D01*
X63450000Y-36500000D02*
X65550000Y-36500000D01*
X63450000Y-36700000D02*
X63450000Y-36500000D01*
X63450000Y-39700000D02*
X62450000Y-39700000D01*
X63450000Y-39900000D02*
X63450000Y-39700000D01*
X65550000Y-36500000D02*
X65550000Y-36700000D01*
X65550000Y-36700000D02*
X66550000Y-36700000D01*
X65550000Y-39700000D02*
X65550000Y-39900000D01*
X65550000Y-39900000D02*
X63450000Y-39900000D01*
X66550000Y-36700000D02*
X66550000Y-39700000D01*
X66550000Y-39700000D02*
X65550000Y-39700000D01*
%TO.C,ESD_D*%
X75450000Y-43200000D02*
X76450000Y-43200000D01*
X75450000Y-46200000D02*
X75450000Y-43200000D01*
X76450000Y-43000000D02*
X78550000Y-43000000D01*
X76450000Y-43200000D02*
X76450000Y-43000000D01*
X76450000Y-46200000D02*
X75450000Y-46200000D01*
X76450000Y-46400000D02*
X76450000Y-46200000D01*
X78550000Y-43000000D02*
X78550000Y-43200000D01*
X78550000Y-43200000D02*
X79550000Y-43200000D01*
X78550000Y-46200000D02*
X78550000Y-46400000D01*
X78550000Y-46400000D02*
X76450000Y-46400000D01*
X79550000Y-43200000D02*
X79550000Y-46200000D01*
X79550000Y-46200000D02*
X78550000Y-46200000D01*
%TO.C,TP2*%
X62925000Y-23500000D02*
G75*
G02*
X60425000Y-23500000I-1250000J0D01*
G01*
X60425000Y-23500000D02*
G75*
G02*
X62925000Y-23500000I1250000J0D01*
G01*
%TO.C,C_HVBUS_100n*%
X69540000Y-28290000D02*
X70460000Y-28290000D01*
X69540000Y-30110000D02*
X69540000Y-28290000D01*
X70460000Y-28290000D02*
X70460000Y-30110000D01*
X70460000Y-30110000D02*
X69540000Y-30110000D01*
%TO.C,MH4*%
X91450000Y-60000000D02*
G75*
G02*
X84550000Y-60000000I-3450000J0D01*
G01*
X84550000Y-60000000D02*
G75*
G02*
X91450000Y-60000000I3450000J0D01*
G01*
%TO.C,R_LED_USER*%
X55830000Y-10670000D02*
X56770000Y-10670000D01*
X55830000Y-12530000D02*
X55830000Y-10670000D01*
X56770000Y-10670000D02*
X56770000Y-12530000D01*
X56770000Y-12530000D02*
X55830000Y-12530000D01*
%TO.C,Rt1*%
X4285000Y-43870000D02*
X5225000Y-43870000D01*
X4285000Y-45730000D02*
X4285000Y-43870000D01*
X5225000Y-43870000D02*
X5225000Y-45730000D01*
X5225000Y-45730000D02*
X4285000Y-45730000D01*
%TO.C,JP2*%
X445000Y-50485000D02*
X445000Y-54025000D01*
X445000Y-54025000D02*
X6535000Y-54025000D01*
X6535000Y-50485000D02*
X445000Y-50485000D01*
X6535000Y-54025000D02*
X6535000Y-50485000D01*
%TO.C,R_CC2*%
X22130000Y-5970000D02*
X23070000Y-5970000D01*
X22130000Y-7830000D02*
X22130000Y-5970000D01*
X23070000Y-5970000D02*
X23070000Y-7830000D01*
X23070000Y-7830000D02*
X22130000Y-7830000D01*
%TO.C,SW_USER*%
X66500000Y-3800000D02*
X66500000Y-11200000D01*
X66500000Y-11200000D02*
X76500000Y-11200000D01*
X76500000Y-3800000D02*
X66500000Y-3800000D01*
X76500000Y-11200000D02*
X76500000Y-3800000D01*
%TO.C,ESD_H*%
X64650000Y-18500000D02*
X65650000Y-18500000D01*
X64650000Y-21500000D02*
X64650000Y-18500000D01*
X65650000Y-18300000D02*
X67750000Y-18300000D01*
X65650000Y-18500000D02*
X65650000Y-18300000D01*
X65650000Y-21500000D02*
X64650000Y-21500000D01*
X65650000Y-21700000D02*
X65650000Y-21500000D01*
X67750000Y-18300000D02*
X67750000Y-18500000D01*
X67750000Y-18500000D02*
X68750000Y-18500000D01*
X67750000Y-21500000D02*
X67750000Y-21700000D01*
X67750000Y-21700000D02*
X65650000Y-21700000D01*
X68750000Y-18500000D02*
X68750000Y-21500000D01*
X68750000Y-21500000D02*
X67750000Y-21500000D01*
%TO.C,R_HDM*%
X58170000Y-20530000D02*
X60030000Y-20530000D01*
X58170000Y-21470000D02*
X58170000Y-20530000D01*
X60030000Y-20530000D02*
X60030000Y-21470000D01*
X60030000Y-21470000D02*
X58170000Y-21470000D01*
%TO.C,R_NVD_B*%
X54030000Y-8070000D02*
X54970000Y-8070000D01*
X54030000Y-9930000D02*
X54030000Y-8070000D01*
X54970000Y-8070000D02*
X54970000Y-9930000D01*
X54970000Y-9930000D02*
X54030000Y-9930000D01*
%TO.C,C_NRESET*%
X78150000Y-54935000D02*
X79970000Y-54935000D01*
X78150000Y-55855000D02*
X78150000Y-54935000D01*
X79970000Y-54935000D02*
X79970000Y-55855000D01*
X79970000Y-55855000D02*
X78150000Y-55855000D01*
%TO.C,R_HDM_PD*%
X63320000Y-21920000D02*
X64260000Y-21920000D01*
X63320000Y-23780000D02*
X63320000Y-21920000D01*
X64260000Y-21920000D02*
X64260000Y-23780000D01*
X64260000Y-23780000D02*
X63320000Y-23780000D01*
%TO.C,R_DDM*%
X68070000Y-45180000D02*
X69930000Y-45180000D01*
X68070000Y-46120000D02*
X68070000Y-45180000D01*
X69930000Y-45180000D02*
X69930000Y-46120000D01*
X69930000Y-46120000D02*
X68070000Y-46120000D01*
%TO.C,C_P3V3_1*%
X27090000Y-10540000D02*
X28910000Y-10540000D01*
X27090000Y-11460000D02*
X27090000Y-10540000D01*
X28910000Y-10540000D02*
X28910000Y-11460000D01*
X28910000Y-11460000D02*
X27090000Y-11460000D01*
%TO.C,J3*%
X8040000Y-54910000D02*
X8040000Y-63490000D01*
X8040000Y-63490000D02*
X21740000Y-63490000D01*
X21740000Y-54910000D02*
X8040000Y-54910000D01*
X21740000Y-63490000D02*
X21740000Y-54910000D01*
%TO.C,MH3*%
X7450000Y-60000000D02*
G75*
G02*
X550000Y-60000000I-3450000J0D01*
G01*
X550000Y-60000000D02*
G75*
G02*
X7450000Y-60000000I3450000J0D01*
G01*
%TO.C,TP1*%
X62925000Y-16500000D02*
G75*
G02*
X60425000Y-16500000I-1250000J0D01*
G01*
X60425000Y-16500000D02*
G75*
G02*
X62925000Y-16500000I1250000J0D01*
G01*
%TO.C,R_J9VD_B*%
X81530000Y-51070000D02*
X82470000Y-51070000D01*
X81530000Y-52930000D02*
X81530000Y-51070000D01*
X82470000Y-51070000D02*
X82470000Y-52930000D01*
X82470000Y-52930000D02*
X81530000Y-52930000D01*
%TO.C,R_J9VD_T*%
X83030000Y-51070000D02*
X83970000Y-51070000D01*
X83030000Y-52930000D02*
X83030000Y-51070000D01*
X83970000Y-51070000D02*
X83970000Y-52930000D01*
X83970000Y-52930000D02*
X83030000Y-52930000D01*
%TO.C,R_CC3*%
X78030000Y-52170000D02*
X78970000Y-52170000D01*
X78030000Y-54030000D02*
X78030000Y-52170000D01*
X78970000Y-52170000D02*
X78970000Y-54030000D01*
X78970000Y-54030000D02*
X78030000Y-54030000D01*
%TO.C,J8*%
X24080000Y-9420000D02*
X24080000Y0D01*
X34720000Y0D02*
X24080000Y0D01*
X34720000Y-9420000D02*
X24080000Y-9420000D01*
X34720000Y-9420000D02*
X34720000Y0D01*
%TO.C,C_P3V3_2*%
X47690000Y-10340000D02*
X49510000Y-10340000D01*
X47690000Y-11260000D02*
X47690000Y-10340000D01*
X49510000Y-10340000D02*
X49510000Y-11260000D01*
X49510000Y-11260000D02*
X47690000Y-11260000D01*
%TO.C,R_HDP*%
X58170000Y-18530000D02*
X60030000Y-18530000D01*
X58170000Y-19470000D02*
X58170000Y-18530000D01*
X60030000Y-18530000D02*
X60030000Y-19470000D01*
X60030000Y-19470000D02*
X58170000Y-19470000D01*
%TO.C,J_UART*%
X57490000Y-8885000D02*
X57490000Y-12425000D01*
X57490000Y-12425000D02*
X66110000Y-12425000D01*
X66110000Y-8885000D02*
X57490000Y-8885000D01*
X66110000Y-12425000D02*
X66110000Y-8885000D01*
%TO.C,J1B*%
X415000Y-46050000D02*
X52215000Y-46050000D01*
X415000Y-49600000D02*
X415000Y-46050000D01*
X52215000Y-46050000D02*
X52215000Y-49600000D01*
X52215000Y-49600000D02*
X415000Y-49600000D01*
%TO.C,R_DPU*%
X62530000Y-44470000D02*
X63470000Y-44470000D01*
X62530000Y-46330000D02*
X62530000Y-44470000D01*
X63470000Y-44470000D02*
X63470000Y-46330000D01*
X63470000Y-46330000D02*
X62530000Y-46330000D01*
%TO.C,U_INA219_ALT*%
X59450000Y-26820000D02*
X60450000Y-26820000D01*
X59450000Y-29780000D02*
X59450000Y-26820000D01*
X60450000Y-26600000D02*
X62550000Y-26600000D01*
X60450000Y-26820000D02*
X60450000Y-26600000D01*
X60450000Y-29780000D02*
X59450000Y-29780000D01*
X60450000Y-30000000D02*
X60450000Y-29780000D01*
X62550000Y-26600000D02*
X62550000Y-26820000D01*
X62550000Y-26820000D02*
X63550000Y-26820000D01*
X62550000Y-29780000D02*
X62550000Y-30000000D01*
X62550000Y-30000000D02*
X60450000Y-30000000D01*
X63550000Y-26820000D02*
X63550000Y-29780000D01*
X63550000Y-29780000D02*
X62550000Y-29780000D01*
%TO.C,U_ISNS*%
X62549999Y-33100000D02*
X63549999Y-33100000D01*
X62549999Y-36100000D02*
X62549999Y-33100000D01*
X63549999Y-32900000D02*
X65649999Y-32900000D01*
X63549999Y-33100000D02*
X63549999Y-32900000D01*
X63549999Y-36100000D02*
X62549999Y-36100000D01*
X63549999Y-36300000D02*
X63549999Y-36100000D01*
X65649999Y-32900000D02*
X65649999Y-33100000D01*
X65649999Y-33100000D02*
X66649999Y-33100000D01*
X65649999Y-36100000D02*
X65649999Y-36300000D01*
X65649999Y-36300000D02*
X63549999Y-36300000D01*
X66649999Y-33100000D02*
X66649999Y-36100000D01*
X66649999Y-36100000D02*
X65649999Y-36100000D01*
%TO.C,JP1*%
X8190000Y-8885000D02*
X8190000Y-12425000D01*
X8190000Y-12425000D02*
X16810000Y-12425000D01*
X16810000Y-8885000D02*
X8190000Y-8885000D01*
X16810000Y-12425000D02*
X16810000Y-8885000D01*
%TO.C,C_HVBUS_BULK*%
X72020000Y-28300000D02*
X73980000Y-28300000D01*
X72020000Y-31700000D02*
X72020000Y-28300000D01*
X73980000Y-28300000D02*
X73980000Y-31700000D01*
X73980000Y-31700000D02*
X72020000Y-31700000D01*
%TO.C,JP3*%
X20765000Y-50485000D02*
X20765000Y-54025000D01*
X20765000Y-54025000D02*
X26855000Y-54025000D01*
X26855000Y-50485000D02*
X20765000Y-50485000D01*
X26855000Y-54025000D02*
X26855000Y-50485000D01*
%TO.C,D_J9_BUSPWR*%
X75350000Y-49350000D02*
X75350000Y-51650000D01*
X75350000Y-49350000D02*
X80050000Y-49350000D01*
X80050000Y-49350000D02*
X80050000Y-51650000D01*
X80050000Y-51650000D02*
X75350000Y-51650000D01*
%TO.C,Rt2*%
X9365000Y-43870000D02*
X10305000Y-43870000D01*
X9365000Y-45730000D02*
X9365000Y-43870000D01*
X10305000Y-43870000D02*
X10305000Y-45730000D01*
X10305000Y-45730000D02*
X9365000Y-45730000D01*
%TO.C,JP4*%
X17960000Y-8885000D02*
X17960000Y-12425000D01*
X17960000Y-12425000D02*
X24050000Y-12425000D01*
X24050000Y-8885000D02*
X17960000Y-8885000D01*
X24050000Y-12425000D02*
X24050000Y-8885000D01*
%TO.C,Rt4*%
X14445000Y-43870000D02*
X15385000Y-43870000D01*
X14445000Y-45730000D02*
X14445000Y-43870000D01*
X15385000Y-43870000D02*
X15385000Y-45730000D01*
X15385000Y-45730000D02*
X14445000Y-45730000D01*
%TO.C,TP3*%
X68700000Y-25400000D02*
G75*
G02*
X66200000Y-25400000I-1250000J0D01*
G01*
X66200000Y-25400000D02*
G75*
G02*
X68700000Y-25400000I1250000J0D01*
G01*
%TO.C,J6*%
X48720000Y-54910000D02*
X48720000Y-63490000D01*
X48720000Y-63490000D02*
X56080000Y-63490000D01*
X56080000Y-54910000D02*
X48720000Y-54910000D01*
X56080000Y-63490000D02*
X56080000Y-54910000D01*
%TO.C,Rt3*%
X11905000Y-43870000D02*
X12845000Y-43870000D01*
X11905000Y-45730000D02*
X11905000Y-43870000D01*
X12845000Y-43870000D02*
X12845000Y-45730000D01*
X12845000Y-45730000D02*
X11905000Y-45730000D01*
%TO.C,J10*%
X56830000Y-55730000D02*
X56830000Y-59270000D01*
X56830000Y-59270000D02*
X65450000Y-59270000D01*
X65450000Y-55730000D02*
X56830000Y-55730000D01*
X65450000Y-59270000D02*
X65450000Y-55730000D01*
%TO.C,R_LED_PWR*%
X3530000Y-11170000D02*
X4470000Y-11170000D01*
X3530000Y-13030000D02*
X3530000Y-11170000D01*
X4470000Y-11170000D02*
X4470000Y-13030000D01*
X4470000Y-13030000D02*
X3530000Y-13030000D01*
%TO.C,R_SHUNT*%
X62319999Y-30370000D02*
X66879999Y-30370000D01*
X62319999Y-32630000D02*
X62319999Y-30370000D01*
X66879999Y-30370000D02*
X66879999Y-32630000D01*
X66879999Y-32630000D02*
X62319999Y-32630000D01*
%TO.C,Rt5*%
X16985000Y-43870000D02*
X17925000Y-43870000D01*
X16985000Y-45730000D02*
X16985000Y-43870000D01*
X17925000Y-43870000D02*
X17925000Y-45730000D01*
X17925000Y-45730000D02*
X16985000Y-45730000D01*
%TO.C,J9*%
X82580000Y-39680000D02*
X92000000Y-39680000D01*
X82580000Y-50320000D02*
X82580000Y-39680000D01*
X82580000Y-50320000D02*
X92000000Y-50320000D01*
X92000000Y-50320000D02*
X92000000Y-39680000D01*
%TO.C,MH2*%
X91450000Y-4000000D02*
G75*
G02*
X84550000Y-4000000I-3450000J0D01*
G01*
X84550000Y-4000000D02*
G75*
G02*
X91450000Y-4000000I3450000J0D01*
G01*
%TO.C,LED_PWR*%
X3270000Y-8120000D02*
X4730000Y-8120000D01*
X3270000Y-11080000D02*
X3270000Y-8120000D01*
X4730000Y-8120000D02*
X4730000Y-11080000D01*
X4730000Y-11080000D02*
X3270000Y-11080000D01*
%TO.C,J5*%
X69365000Y-27500000D02*
X69365000Y-12500000D01*
X84045000Y-12250000D02*
X85845000Y-12250000D01*
X84045000Y-12500000D02*
X69365000Y-12500000D01*
X84045000Y-12500000D02*
X84045000Y-12250000D01*
X84045000Y-27500000D02*
X69365000Y-27500000D01*
X84045000Y-27500000D02*
X84045000Y-27750000D01*
X84045000Y-27750000D02*
X85845000Y-27750000D01*
X85845000Y-27750000D02*
X85845000Y-12250000D01*
%TD*%
M02*
