%TF.GenerationSoftware,KiCad,Pcbnew,9.0.2+dfsg-1*%
%TF.CreationDate,2026-07-30T15:18:47+07:00*%
%TF.ProjectId,pico2_trace,7069636f-325f-4747-9261-63652e6b6963,rev?*%
%TF.SameCoordinates,Original*%
%TF.FileFunction,OtherDrawing,Comment*%
%FSLAX46Y46*%
G04 Gerber Fmt 4.6, Leading zero omitted, Abs format (unit mm)*
G04 Created by KiCad (PCBNEW 9.0.2+dfsg-1) date 2026-07-30 15:18:47*
%MOMM*%
%LPD*%
G01*
G04 APERTURE LIST*
%ADD10C,0.100000*%
%ADD11C,0.120000*%
%ADD12C,0.050000*%
G04 APERTURE END LIST*
D10*
X83811109Y-21714285D02*
X83311109Y-21714285D01*
X83311109Y-21714285D02*
X83311109Y-21523809D01*
X83311109Y-21523809D02*
X83334919Y-21476190D01*
X83334919Y-21476190D02*
X83358728Y-21452380D01*
X83358728Y-21452380D02*
X83406347Y-21428571D01*
X83406347Y-21428571D02*
X83477776Y-21428571D01*
X83477776Y-21428571D02*
X83525395Y-21452380D01*
X83525395Y-21452380D02*
X83549204Y-21476190D01*
X83549204Y-21476190D02*
X83573014Y-21523809D01*
X83573014Y-21523809D02*
X83573014Y-21714285D01*
X83763490Y-20928571D02*
X83787300Y-20952380D01*
X83787300Y-20952380D02*
X83811109Y-21023809D01*
X83811109Y-21023809D02*
X83811109Y-21071428D01*
X83811109Y-21071428D02*
X83787300Y-21142856D01*
X83787300Y-21142856D02*
X83739680Y-21190475D01*
X83739680Y-21190475D02*
X83692061Y-21214285D01*
X83692061Y-21214285D02*
X83596823Y-21238094D01*
X83596823Y-21238094D02*
X83525395Y-21238094D01*
X83525395Y-21238094D02*
X83430157Y-21214285D01*
X83430157Y-21214285D02*
X83382538Y-21190475D01*
X83382538Y-21190475D02*
X83334919Y-21142856D01*
X83334919Y-21142856D02*
X83311109Y-21071428D01*
X83311109Y-21071428D02*
X83311109Y-21023809D01*
X83311109Y-21023809D02*
X83334919Y-20952380D01*
X83334919Y-20952380D02*
X83358728Y-20928571D01*
X83549204Y-20547618D02*
X83573014Y-20476190D01*
X83573014Y-20476190D02*
X83596823Y-20452380D01*
X83596823Y-20452380D02*
X83644442Y-20428571D01*
X83644442Y-20428571D02*
X83715871Y-20428571D01*
X83715871Y-20428571D02*
X83763490Y-20452380D01*
X83763490Y-20452380D02*
X83787300Y-20476190D01*
X83787300Y-20476190D02*
X83811109Y-20523809D01*
X83811109Y-20523809D02*
X83811109Y-20714285D01*
X83811109Y-20714285D02*
X83311109Y-20714285D01*
X83311109Y-20714285D02*
X83311109Y-20547618D01*
X83311109Y-20547618D02*
X83334919Y-20499999D01*
X83334919Y-20499999D02*
X83358728Y-20476190D01*
X83358728Y-20476190D02*
X83406347Y-20452380D01*
X83406347Y-20452380D02*
X83453966Y-20452380D01*
X83453966Y-20452380D02*
X83501585Y-20476190D01*
X83501585Y-20476190D02*
X83525395Y-20499999D01*
X83525395Y-20499999D02*
X83549204Y-20547618D01*
X83549204Y-20547618D02*
X83549204Y-20714285D01*
X83549204Y-19833333D02*
X83549204Y-19666666D01*
X83811109Y-19595238D02*
X83811109Y-19833333D01*
X83811109Y-19833333D02*
X83311109Y-19833333D01*
X83311109Y-19833333D02*
X83311109Y-19595238D01*
X83811109Y-19166666D02*
X83311109Y-19166666D01*
X83787300Y-19166666D02*
X83811109Y-19214285D01*
X83811109Y-19214285D02*
X83811109Y-19309523D01*
X83811109Y-19309523D02*
X83787300Y-19357142D01*
X83787300Y-19357142D02*
X83763490Y-19380952D01*
X83763490Y-19380952D02*
X83715871Y-19404761D01*
X83715871Y-19404761D02*
X83573014Y-19404761D01*
X83573014Y-19404761D02*
X83525395Y-19380952D01*
X83525395Y-19380952D02*
X83501585Y-19357142D01*
X83501585Y-19357142D02*
X83477776Y-19309523D01*
X83477776Y-19309523D02*
X83477776Y-19214285D01*
X83477776Y-19214285D02*
X83501585Y-19166666D01*
X83477776Y-18714285D02*
X83882538Y-18714285D01*
X83882538Y-18714285D02*
X83930157Y-18738095D01*
X83930157Y-18738095D02*
X83953966Y-18761904D01*
X83953966Y-18761904D02*
X83977776Y-18809523D01*
X83977776Y-18809523D02*
X83977776Y-18880952D01*
X83977776Y-18880952D02*
X83953966Y-18928571D01*
X83787300Y-18714285D02*
X83811109Y-18761904D01*
X83811109Y-18761904D02*
X83811109Y-18857142D01*
X83811109Y-18857142D02*
X83787300Y-18904761D01*
X83787300Y-18904761D02*
X83763490Y-18928571D01*
X83763490Y-18928571D02*
X83715871Y-18952380D01*
X83715871Y-18952380D02*
X83573014Y-18952380D01*
X83573014Y-18952380D02*
X83525395Y-18928571D01*
X83525395Y-18928571D02*
X83501585Y-18904761D01*
X83501585Y-18904761D02*
X83477776Y-18857142D01*
X83477776Y-18857142D02*
X83477776Y-18761904D01*
X83477776Y-18761904D02*
X83501585Y-18714285D01*
X83787300Y-18285714D02*
X83811109Y-18333333D01*
X83811109Y-18333333D02*
X83811109Y-18428571D01*
X83811109Y-18428571D02*
X83787300Y-18476190D01*
X83787300Y-18476190D02*
X83739680Y-18499999D01*
X83739680Y-18499999D02*
X83549204Y-18499999D01*
X83549204Y-18499999D02*
X83501585Y-18476190D01*
X83501585Y-18476190D02*
X83477776Y-18428571D01*
X83477776Y-18428571D02*
X83477776Y-18333333D01*
X83477776Y-18333333D02*
X83501585Y-18285714D01*
X83501585Y-18285714D02*
X83549204Y-18261904D01*
X83549204Y-18261904D02*
X83596823Y-18261904D01*
X83596823Y-18261904D02*
X83644442Y-18499999D01*
D11*
%TO.C,PICO*%
X3895000Y-26300000D02*
G75*
G02*
X1795000Y-26300000I-1050000J0D01*
G01*
X1795000Y-26300000D02*
G75*
G02*
X3895000Y-26300000I1050000J0D01*
G01*
X3895000Y-37700000D02*
G75*
G02*
X1795000Y-37700000I-1050000J0D01*
G01*
X1795000Y-37700000D02*
G75*
G02*
X3895000Y-37700000I1050000J0D01*
G01*
X50895000Y-26300000D02*
G75*
G02*
X48795000Y-26300000I-1050000J0D01*
G01*
X48795000Y-26300000D02*
G75*
G02*
X50895000Y-26300000I1050000J0D01*
G01*
X50895000Y-37700000D02*
G75*
G02*
X48795000Y-37700000I-1050000J0D01*
G01*
X48795000Y-37700000D02*
G75*
G02*
X50895000Y-37700000I1050000J0D01*
G01*
D12*
%TO.C,J5*%
X84065000Y-25000000D02*
X84065000Y-15000000D01*
%TD*%
M02*
