M48
; DRILL file {KiCad 9.0.2+dfsg-1} date 2026-07-30T15:18:48+0700
; FORMAT={-:-/ absolute / metric / decimal}
; #@! TF.CreationDate,2026-07-30T15:18:48+07:00
; #@! TF.GenerationSoftware,Kicad,Pcbnew,9.0.2+dfsg-1
; #@! TF.FileFunction,MixedPlating,1,2
FMAT,2
METRIC
; #@! TA.AperFunction,Plated,PTH,ViaDrill
T1C0.300
; #@! TA.AperFunction,Plated,PTH,ComponentDrill
T2C0.600
; #@! TA.AperFunction,Plated,PTH,ComponentDrill
T3C1.000
; #@! TA.AperFunction,NonPlated,NPTH,ComponentDrill
T4C0.650
; #@! TA.AperFunction,NonPlated,NPTH,ComponentDrill
T5C3.200
%
G90
G05
T1
X3.035Y-56.25
X4.0Y-12.61
X5.535Y-39.39
X5.535Y-61.75
X6.0Y-6.0
X6.0Y-14.0
X6.0Y-22.0
X6.0Y-30.0
X7.295Y-39.5
X8.565Y-13.0
X9.035Y-39.39
X9.175Y-57.25
X9.175Y-61.15
X10.332Y-59.696
X11.105Y-12.15
X11.105Y-27.5
X12.535Y-39.39
X14.0Y-6.0
X14.0Y-14.0
X14.0Y-30.0
X14.255Y-57.25
X14.255Y-58.15
X14.255Y-59.42
X14.3Y-61.2
X15.5Y-13.0
X15.5Y-27.5
X15.5Y-36.0
X15.525Y-61.4
X16.035Y-39.39
X16.9Y-27.5
X17.0Y-13.0
X18.935Y-23.408
X19.535Y-39.39
X19.535Y-60.25
X19.995Y-19.434
X21.265Y-35.0
X21.605Y-42.39
X21.605Y-45.89
X21.605Y-49.39
X22.0Y-14.0
X22.0Y-54.0
X22.0Y-58.15
X22.0Y-60.1
X23.0Y-56.0
X23.6Y-6.9
X23.805Y-19.434
X23.805Y-58.15
X23.805Y-59.42
X24.2Y-35.0
X24.6Y-56.0
X25.6Y-35.0
X25.9Y-27.5
X26.345Y-51.901
X26.5Y-25.0
X26.915Y-35.0
X27.9Y-25.0
X28.3Y-27.5
X28.48Y-11.0
X30.0Y-14.0
X30.0Y-54.0
X30.855Y-35.0
X31.0Y-36.0
X31.425Y-24.4
X31.425Y-27.4
X31.6Y-5.0
X33.965Y-15.0
X33.965Y-16.2
X33.965Y-22.26
X33.965Y-23.96
X36.505Y-40.29
X36.505Y-41.49
X36.505Y-46.58
X38.0Y-6.0
X38.0Y-14.0
X38.0Y-30.0
X38.0Y-54.0
X38.345Y-12.11
X38.345Y-31.0
X39.045Y-15.0
X39.045Y-16.2
X39.045Y-22.26
X39.045Y-23.96
X39.745Y-12.11
X39.745Y-31.0
X40.95Y-19.0
X41.0Y-38.0
X41.585Y-40.29
X41.585Y-41.49
X41.585Y-44.85
X42.22Y-19.0
X43.425Y-12.11
X44.125Y-15.0
X44.125Y-16.2
X44.125Y-22.26
X44.125Y-23.96
X44.825Y-12.11
X44.925Y-16.787
X45.39Y-32.0
X45.545Y-41.878
X46.0Y-54.0
X46.6Y-5.9
X46.665Y-15.0
X46.665Y-16.2
X46.665Y-22.26
X46.665Y-23.96
X47.0Y-58.1
X47.0Y-60.1
X47.6Y-5.9
X48.12Y-8.91
X48.12Y-10.11
X48.6Y-5.9
X49.205Y-16.9
X49.86Y-57.25
X49.86Y-61.15
X50.475Y-17.0
X51.617Y-60.296
X52.0Y-15.0
X52.0Y-38.45
X52.0Y-39.85
X52.28Y-10.43
X54.0Y-8.49
X54.0Y-22.0
X54.0Y-30.0
X54.0Y-38.0
X54.0Y-54.0
X54.5Y-24.3
X54.94Y-57.25
X54.94Y-58.15
X54.94Y-59.42
X55.3Y-18.0
X55.3Y-19.0
X55.3Y-25.0
X55.3Y-26.0
X56.0Y-27.325
X56.7Y-26.0
X57.0Y-27.975
X57.7Y-18.0
X57.7Y-19.0
X57.7Y-25.0
X58.5Y-24.3
X58.59Y-19.0
X58.59Y-21.0
X60.0Y-45.91
X61.3Y-28.625
X61.6Y-27.975
X62.0Y-6.0
X62.0Y-38.0
X62.0Y-44.85
X62.0Y-54.0
X62.637Y-26.125
X63.0Y-33.65
X63.3Y-12.032
X63.362Y-37.25
X63.462Y-35.55
X65.5Y-34.65
X65.737Y-33.65
X66.15Y-42.8
X66.15Y-46.58
X66.2Y-49.2
X67.8Y-49.2
X67.85Y-42.8
X67.85Y-46.58
X68.49Y-46.58
X68.5Y-27.87
X68.5Y-29.57
X69.0Y-20.3
X69.0Y-21.6
X70.0Y-6.0
X70.0Y-14.0
X70.0Y-28.72
X70.0Y-30.0
X70.0Y-38.0
X70.0Y-50.5
X70.0Y-54.0
X70.57Y-57.2
X73.401Y-44.7
X75.085Y-57.705
X77.0Y-53.0
X78.0Y-6.0
X78.0Y-14.0
X78.0Y-22.0
X78.0Y-30.0
X78.0Y-38.0
X78.0Y-54.0
X79.7Y-44.7
X80.33Y-53.5
X80.35Y-50.85
X82.2Y-44.25
X82.4Y-43.45
X82.4Y-53.2
X82.7Y-51.75
X82.9Y-54.65
X85.0Y-45.25
X86.0Y-6.0
X86.0Y-14.0
X86.0Y-22.0
X86.0Y-30.0
X86.0Y-38.0
X86.0Y-54.0
T3
X2.215Y-15.6
X2.215Y-23.11
X2.215Y-40.89
X2.215Y-47.8
X2.215Y-52.255
X4.755Y-15.6
X4.755Y-23.11
X4.755Y-40.89
X4.755Y-47.8
X4.755Y-52.255
X7.295Y-15.6
X7.295Y-23.11
X7.295Y-40.89
X7.295Y-47.8
X9.835Y-15.6
X9.835Y-23.11
X9.835Y-40.89
X9.835Y-47.8
X9.96Y-10.655
X12.375Y-15.6
X12.375Y-23.11
X12.375Y-40.89
X12.375Y-47.8
X12.5Y-10.655
X14.915Y-15.6
X14.915Y-23.11
X14.915Y-40.89
X14.915Y-47.8
X15.04Y-10.655
X17.455Y-15.6
X17.455Y-23.11
X17.455Y-40.89
X17.455Y-47.8
X19.73Y-10.655
X19.995Y-15.6
X19.995Y-23.11
X19.995Y-40.89
X19.995Y-47.8
X22.27Y-10.655
X22.535Y-15.6
X22.535Y-23.11
X22.535Y-40.89
X22.535Y-47.8
X22.535Y-52.255
X25.075Y-15.6
X25.075Y-23.11
X25.075Y-40.89
X25.075Y-47.8
X25.075Y-52.255
X27.615Y-15.6
X27.615Y-23.11
X27.615Y-40.89
X27.615Y-47.8
X30.155Y-15.6
X30.155Y-23.11
X30.155Y-40.89
X30.155Y-47.8
X32.695Y-15.6
X32.695Y-23.11
X32.695Y-40.89
X32.695Y-47.8
X35.235Y-15.6
X35.235Y-23.11
X35.235Y-40.89
X35.235Y-47.8
X37.775Y-15.6
X37.775Y-23.11
X37.775Y-40.89
X37.775Y-47.8
X40.315Y-15.6
X40.315Y-23.11
X40.315Y-40.89
X40.315Y-47.8
X42.855Y-15.6
X42.855Y-23.11
X42.855Y-40.89
X42.855Y-47.8
X45.395Y-15.6
X45.395Y-23.11
X45.395Y-40.89
X45.395Y-47.8
X47.935Y-15.6
X47.935Y-23.11
X47.935Y-40.89
X47.935Y-47.8
X50.475Y-15.6
X50.475Y-23.11
X50.475Y-40.89
X50.475Y-47.8
X58.6Y-57.5
X59.26Y-10.655
X61.14Y-57.5
X61.8Y-10.655
X63.68Y-57.5
X64.34Y-10.655
T4
X26.51Y-6.75
X32.29Y-6.75
X85.25Y-42.11
X85.25Y-47.89
T5
X4.0Y-4.0
X4.0Y-60.0
X88.0Y-4.0
X88.0Y-60.0
T2
X25.08Y-3.4G85X25.08Y-2.8
G05
X25.08Y-7.83G85X25.08Y-6.73
G05
X33.72Y-3.4G85X33.72Y-2.8
G05
X33.72Y-7.83G85X33.72Y-6.73
G05
X74.215Y-13.6G85X75.915Y-13.6
G05
X74.215Y-26.4G85X75.915Y-26.4
G05
X84.17Y-40.68G85X85.27Y-40.68
G05
X84.17Y-49.32G85X85.27Y-49.32
G05
X88.6Y-40.68G85X89.2Y-40.68
G05
X88.6Y-49.32G85X89.2Y-49.32
G05
M30
