%TF.GenerationSoftware,KiCad,Pcbnew,9.0.2+dfsg-1*%
%TF.CreationDate,2026-07-30T15:18:47+07:00*%
%TF.ProjectId,pico2_trace,7069636f-325f-4747-9261-63652e6b6963,rev?*%
%TF.SameCoordinates,Original*%
%TF.FileFunction,Soldermask,Bot*%
%TF.FilePolarity,Negative*%
%FSLAX46Y46*%
G04 Gerber Fmt 4.6, Leading zero omitted, Abs format (unit mm)*
G04 Created by KiCad (PCBNEW 9.0.2+dfsg-1) date 2026-07-30 15:18:47*
%MOMM*%
%LPD*%
G01*
G04 APERTURE LIST*
G04 Aperture macros list*
%AMRoundRect*
0 Rectangle with rounded corners*
0 $1 Rounding radius*
0 $2 $3 $4 $5 $6 $7 $8 $9 X,Y pos of 4 corners*
0 Add a 4 corners polygon primitive as box body*
4,1,4,$2,$3,$4,$5,$6,$7,$8,$9,$2,$3,0*
0 Add four circle primitives for the rounded corners*
1,1,$1+$1,$2,$3*
1,1,$1+$1,$4,$5*
1,1,$1+$1,$6,$7*
1,1,$1+$1,$8,$9*
0 Add four rect primitives between the rounded corners*
20,1,$1+$1,$2,$3,$4,$5,0*
20,1,$1+$1,$4,$5,$6,$7,0*
20,1,$1+$1,$6,$7,$8,$9,0*
20,1,$1+$1,$8,$9,$2,$3,0*%
%AMFreePoly0*
4,1,37,0.603843,0.796157,0.639018,0.796157,0.711114,0.766294,0.766294,0.711114,0.796157,0.639018,0.796157,0.603843,0.800000,0.600000,0.800000,-0.600000,0.796157,-0.603843,0.796157,-0.639018,0.766294,-0.711114,0.711114,-0.766294,0.639018,-0.796157,0.603843,-0.796157,0.600000,-0.800000,0.000000,-0.800000,0.000000,-0.796148,-0.078414,-0.796148,-0.232228,-0.765552,-0.377117,-0.705537,
-0.507515,-0.618408,-0.618408,-0.507515,-0.705537,-0.377117,-0.765552,-0.232228,-0.796148,-0.078414,-0.796148,0.078414,-0.765552,0.232228,-0.705537,0.377117,-0.618408,0.507515,-0.507515,0.618408,-0.377117,0.705537,-0.232228,0.765552,-0.078414,0.796148,0.000000,0.796148,0.000000,0.800000,0.600000,0.800000,0.603843,0.796157,0.603843,0.796157,$1*%
%AMFreePoly1*
4,1,37,0.000000,0.796148,0.078414,0.796148,0.232228,0.765552,0.377117,0.705537,0.507515,0.618408,0.618408,0.507515,0.705537,0.377117,0.765552,0.232228,0.796148,0.078414,0.796148,-0.078414,0.765552,-0.232228,0.705537,-0.377117,0.618408,-0.507515,0.507515,-0.618408,0.377117,-0.705537,0.232228,-0.765552,0.078414,-0.796148,0.000000,-0.796148,0.000000,-0.800000,-0.600000,-0.800000,
-0.603843,-0.796157,-0.639018,-0.796157,-0.711114,-0.766294,-0.766294,-0.711114,-0.796157,-0.639018,-0.796157,-0.603843,-0.800000,-0.600000,-0.800000,0.600000,-0.796157,0.603843,-0.796157,0.639018,-0.766294,0.711114,-0.711114,0.766294,-0.639018,0.796157,-0.603843,0.796157,-0.600000,0.800000,0.000000,0.800000,0.000000,0.796148,0.000000,0.796148,$1*%
G04 Aperture macros list end*
%ADD10C,3.200000*%
%ADD11R,1.700000X1.700000*%
%ADD12C,1.700000*%
%ADD13RoundRect,0.200000X0.600000X-0.600000X0.600000X0.600000X-0.600000X0.600000X-0.600000X-0.600000X0*%
%ADD14C,1.600000*%
%ADD15FreePoly0,90.000000*%
%ADD16FreePoly1,90.000000*%
%ADD17C,0.650000*%
%ADD18O,1.000000X2.100000*%
%ADD19O,1.000000X1.600000*%
%ADD20O,2.100000X1.000000*%
%ADD21O,1.600000X1.000000*%
%ADD22O,2.900000X1.200000*%
G04 APERTURE END LIST*
D10*
%TO.C,MH1*%
X4000000Y-4000000D03*
%TD*%
D11*
%TO.C,J2B*%
X50475000Y-15600000D03*
D12*
X47935000Y-15600000D03*
X45395000Y-15600000D03*
X42855000Y-15600000D03*
X40315000Y-15600000D03*
X37775000Y-15600000D03*
X35235000Y-15600000D03*
X32695000Y-15600000D03*
X30155000Y-15600000D03*
X27615000Y-15600000D03*
X25075000Y-15600000D03*
X22535000Y-15600000D03*
X19995000Y-15600000D03*
X17455000Y-15600000D03*
X14915000Y-15600000D03*
X12375000Y-15600000D03*
X9835000Y-15600000D03*
X7295000Y-15600000D03*
X4755000Y-15600000D03*
X2215000Y-15600000D03*
%TD*%
D13*
%TO.C,PICO*%
X2215000Y-40890000D03*
D14*
X4755000Y-40890000D03*
D15*
X7295000Y-40890000D03*
D14*
X9835000Y-40890000D03*
X12375000Y-40890000D03*
X14915000Y-40890000D03*
X17455000Y-40890000D03*
D15*
X19995000Y-40890000D03*
D14*
X22535000Y-40890000D03*
X25075000Y-40890000D03*
X27615000Y-40890000D03*
X30155000Y-40890000D03*
D15*
X32695000Y-40890000D03*
D14*
X35235000Y-40890000D03*
X37775000Y-40890000D03*
X40315000Y-40890000D03*
X42855000Y-40890000D03*
D15*
X45395000Y-40890000D03*
D14*
X47935000Y-40890000D03*
X50475000Y-40890000D03*
X50475000Y-23110000D03*
X47935000Y-23110000D03*
D16*
X45395000Y-23110000D03*
D14*
X42855000Y-23110000D03*
X40315000Y-23110000D03*
X37775000Y-23110000D03*
X35235000Y-23110000D03*
D16*
X32695000Y-23110000D03*
D14*
X30155000Y-23110000D03*
X27615000Y-23110000D03*
X25075000Y-23110000D03*
X22535000Y-23110000D03*
D16*
X19995000Y-23110000D03*
D14*
X17455000Y-23110000D03*
X14915000Y-23110000D03*
X12375000Y-23110000D03*
X9835000Y-23110000D03*
D16*
X7295000Y-23110000D03*
D14*
X4755000Y-23110000D03*
X2215000Y-23110000D03*
%TD*%
D10*
%TO.C,MH4*%
X88000000Y-60000000D03*
%TD*%
D11*
%TO.C,JP2*%
X2215000Y-52255000D03*
D12*
X4755000Y-52255000D03*
%TD*%
D10*
%TO.C,MH3*%
X4000000Y-60000000D03*
%TD*%
D17*
%TO.C,J8*%
X32290000Y-6750000D03*
X26510000Y-6750000D03*
D18*
X33720000Y-7280000D03*
D19*
X33720000Y-3100000D03*
D18*
X25080000Y-7280000D03*
D19*
X25080000Y-3100000D03*
%TD*%
D11*
%TO.C,J_UART*%
X59260000Y-10655000D03*
D12*
X61800000Y-10655000D03*
X64340000Y-10655000D03*
%TD*%
D11*
%TO.C,J1B*%
X2215000Y-47800000D03*
D12*
X4755000Y-47800000D03*
X7295000Y-47800000D03*
X9835000Y-47800000D03*
X12375000Y-47800000D03*
X14915000Y-47800000D03*
X17455000Y-47800000D03*
X19995000Y-47800000D03*
X22535000Y-47800000D03*
X25075000Y-47800000D03*
X27615000Y-47800000D03*
X30155000Y-47800000D03*
X32695000Y-47800000D03*
X35235000Y-47800000D03*
X37775000Y-47800000D03*
X40315000Y-47800000D03*
X42855000Y-47800000D03*
X45395000Y-47800000D03*
X47935000Y-47800000D03*
X50475000Y-47800000D03*
%TD*%
D11*
%TO.C,JP1*%
X9960000Y-10655000D03*
D12*
X12500000Y-10655000D03*
X15040000Y-10655000D03*
%TD*%
D11*
%TO.C,JP3*%
X22535000Y-52255000D03*
D12*
X25075000Y-52255000D03*
%TD*%
D11*
%TO.C,JP4*%
X19730000Y-10655000D03*
D12*
X22270000Y-10655000D03*
%TD*%
D11*
%TO.C,J10*%
X58600000Y-57500000D03*
D12*
X61140000Y-57500000D03*
X63680000Y-57500000D03*
%TD*%
D17*
%TO.C,J9*%
X85250000Y-47890000D03*
X85250000Y-42110000D03*
D20*
X84720000Y-49320000D03*
D21*
X88900000Y-49320000D03*
D20*
X84720000Y-40680000D03*
D21*
X88900000Y-40680000D03*
%TD*%
D10*
%TO.C,MH2*%
X88000000Y-4000000D03*
%TD*%
D22*
%TO.C,J5*%
X75065000Y-26400000D03*
X75065000Y-13600000D03*
%TD*%
M02*
