%TF.GenerationSoftware,KiCad,Pcbnew,9.0.2+dfsg-1*%
%TF.CreationDate,2026-07-30T15:18:47+07:00*%
%TF.ProjectId,pico2_trace,7069636f-325f-4747-9261-63652e6b6963,rev?*%
%TF.SameCoordinates,Original*%
%TF.FileFunction,Legend,Top*%
%TF.FilePolarity,Positive*%
%FSLAX46Y46*%
G04 Gerber Fmt 4.6, Leading zero omitted, Abs format (unit mm)*
G04 Created by KiCad (PCBNEW 9.0.2+dfsg-1) date 2026-07-30 15:18:47*
%MOMM*%
%LPD*%
G01*
G04 APERTURE LIST*
%ADD10C,0.175001*%
%ADD11C,0.150000*%
%ADD12C,0.120000*%
%ADD13C,0.310000*%
G04 APERTURE END LIST*
D10*
X8287499Y-10655000D02*
G75*
G02*
X8112499Y-10655000I-87500J0D01*
G01*
X8112499Y-10655000D02*
G75*
G02*
X8287499Y-10655000I87500J0D01*
G01*
D11*
X48100000Y-8138485D02*
X48023810Y-8100390D01*
X48023810Y-8100390D02*
X47947619Y-8024200D01*
X47947619Y-8024200D02*
X47833333Y-7909914D01*
X47833333Y-7909914D02*
X47757143Y-7871819D01*
X47757143Y-7871819D02*
X47680952Y-7871819D01*
X47719048Y-8062295D02*
X47642857Y-8024200D01*
X47642857Y-8024200D02*
X47566667Y-7948009D01*
X47566667Y-7948009D02*
X47528571Y-7795628D01*
X47528571Y-7795628D02*
X47528571Y-7528961D01*
X47528571Y-7528961D02*
X47566667Y-7376580D01*
X47566667Y-7376580D02*
X47642857Y-7300390D01*
X47642857Y-7300390D02*
X47719048Y-7262295D01*
X47719048Y-7262295D02*
X47871429Y-7262295D01*
X47871429Y-7262295D02*
X47947619Y-7300390D01*
X47947619Y-7300390D02*
X48023810Y-7376580D01*
X48023810Y-7376580D02*
X48061905Y-7528961D01*
X48061905Y-7528961D02*
X48061905Y-7795628D01*
X48061905Y-7795628D02*
X48023810Y-7948009D01*
X48023810Y-7948009D02*
X47947619Y-8024200D01*
X47947619Y-8024200D02*
X47871429Y-8062295D01*
X47871429Y-8062295D02*
X47719048Y-8062295D01*
X48290476Y-7262295D02*
X48747619Y-7262295D01*
X48519047Y-8062295D02*
X48519047Y-7262295D01*
X11842380Y-54243247D02*
X12109046Y-54243247D01*
X12223332Y-54662295D02*
X11842380Y-54662295D01*
X11842380Y-54662295D02*
X11842380Y-53862295D01*
X11842380Y-53862295D02*
X12223332Y-53862295D01*
X12451904Y-53862295D02*
X12909047Y-53862295D01*
X12680475Y-54662295D02*
X12680475Y-53862295D01*
X13175714Y-54662295D02*
X13175714Y-53862295D01*
X13175714Y-53862295D02*
X13442380Y-54433723D01*
X13442380Y-54433723D02*
X13709047Y-53862295D01*
X13709047Y-53862295D02*
X13709047Y-54662295D01*
X14585238Y-53862295D02*
X15042381Y-53862295D01*
X14813809Y-54662295D02*
X14813809Y-53862295D01*
X15766191Y-54662295D02*
X15499524Y-54281342D01*
X15309048Y-54662295D02*
X15309048Y-53862295D01*
X15309048Y-53862295D02*
X15613810Y-53862295D01*
X15613810Y-53862295D02*
X15690000Y-53900390D01*
X15690000Y-53900390D02*
X15728095Y-53938485D01*
X15728095Y-53938485D02*
X15766191Y-54014676D01*
X15766191Y-54014676D02*
X15766191Y-54128961D01*
X15766191Y-54128961D02*
X15728095Y-54205152D01*
X15728095Y-54205152D02*
X15690000Y-54243247D01*
X15690000Y-54243247D02*
X15613810Y-54281342D01*
X15613810Y-54281342D02*
X15309048Y-54281342D01*
X16070952Y-54433723D02*
X16451905Y-54433723D01*
X15994762Y-54662295D02*
X16261429Y-53862295D01*
X16261429Y-53862295D02*
X16528095Y-54662295D01*
X17251905Y-54586104D02*
X17213809Y-54624200D01*
X17213809Y-54624200D02*
X17099524Y-54662295D01*
X17099524Y-54662295D02*
X17023333Y-54662295D01*
X17023333Y-54662295D02*
X16909047Y-54624200D01*
X16909047Y-54624200D02*
X16832857Y-54548009D01*
X16832857Y-54548009D02*
X16794762Y-54471819D01*
X16794762Y-54471819D02*
X16756666Y-54319438D01*
X16756666Y-54319438D02*
X16756666Y-54205152D01*
X16756666Y-54205152D02*
X16794762Y-54052771D01*
X16794762Y-54052771D02*
X16832857Y-53976580D01*
X16832857Y-53976580D02*
X16909047Y-53900390D01*
X16909047Y-53900390D02*
X17023333Y-53862295D01*
X17023333Y-53862295D02*
X17099524Y-53862295D01*
X17099524Y-53862295D02*
X17213809Y-53900390D01*
X17213809Y-53900390D02*
X17251905Y-53938485D01*
X17594762Y-54243247D02*
X17861428Y-54243247D01*
X17975714Y-54662295D02*
X17594762Y-54662295D01*
X17594762Y-54662295D02*
X17594762Y-53862295D01*
X17594762Y-53862295D02*
X17975714Y-53862295D01*
X63260953Y-60362295D02*
X63260953Y-59562295D01*
X63794286Y-59562295D02*
X63946667Y-59562295D01*
X63946667Y-59562295D02*
X64022857Y-59600390D01*
X64022857Y-59600390D02*
X64099048Y-59676580D01*
X64099048Y-59676580D02*
X64137143Y-59828961D01*
X64137143Y-59828961D02*
X64137143Y-60095628D01*
X64137143Y-60095628D02*
X64099048Y-60248009D01*
X64099048Y-60248009D02*
X64022857Y-60324200D01*
X64022857Y-60324200D02*
X63946667Y-60362295D01*
X63946667Y-60362295D02*
X63794286Y-60362295D01*
X63794286Y-60362295D02*
X63718095Y-60324200D01*
X63718095Y-60324200D02*
X63641905Y-60248009D01*
X63641905Y-60248009D02*
X63603809Y-60095628D01*
X63603809Y-60095628D02*
X63603809Y-59828961D01*
X63603809Y-59828961D02*
X63641905Y-59676580D01*
X63641905Y-59676580D02*
X63718095Y-59600390D01*
X63718095Y-59600390D02*
X63794286Y-59562295D01*
X64549523Y-12500390D02*
X64473333Y-12462295D01*
X64473333Y-12462295D02*
X64359047Y-12462295D01*
X64359047Y-12462295D02*
X64244761Y-12500390D01*
X64244761Y-12500390D02*
X64168571Y-12576580D01*
X64168571Y-12576580D02*
X64130476Y-12652771D01*
X64130476Y-12652771D02*
X64092380Y-12805152D01*
X64092380Y-12805152D02*
X64092380Y-12919438D01*
X64092380Y-12919438D02*
X64130476Y-13071819D01*
X64130476Y-13071819D02*
X64168571Y-13148009D01*
X64168571Y-13148009D02*
X64244761Y-13224200D01*
X64244761Y-13224200D02*
X64359047Y-13262295D01*
X64359047Y-13262295D02*
X64435238Y-13262295D01*
X64435238Y-13262295D02*
X64549523Y-13224200D01*
X64549523Y-13224200D02*
X64587619Y-13186104D01*
X64587619Y-13186104D02*
X64587619Y-12919438D01*
X64587619Y-12919438D02*
X64435238Y-12919438D01*
X58650476Y-12462295D02*
X59107619Y-12462295D01*
X58879047Y-13262295D02*
X58879047Y-12462295D01*
X59298095Y-12462295D02*
X59831429Y-13262295D01*
X59831429Y-12462295D02*
X59298095Y-13262295D01*
X61666667Y-13262295D02*
X61400000Y-12881342D01*
X61209524Y-13262295D02*
X61209524Y-12462295D01*
X61209524Y-12462295D02*
X61514286Y-12462295D01*
X61514286Y-12462295D02*
X61590476Y-12500390D01*
X61590476Y-12500390D02*
X61628571Y-12538485D01*
X61628571Y-12538485D02*
X61666667Y-12614676D01*
X61666667Y-12614676D02*
X61666667Y-12728961D01*
X61666667Y-12728961D02*
X61628571Y-12805152D01*
X61628571Y-12805152D02*
X61590476Y-12843247D01*
X61590476Y-12843247D02*
X61514286Y-12881342D01*
X61514286Y-12881342D02*
X61209524Y-12881342D01*
X61933333Y-12462295D02*
X62466667Y-13262295D01*
X62466667Y-12462295D02*
X61933333Y-13262295D01*
X67779524Y-54662295D02*
X67779524Y-53862295D01*
X67779524Y-53862295D02*
X68084286Y-53862295D01*
X68084286Y-53862295D02*
X68160476Y-53900390D01*
X68160476Y-53900390D02*
X68198571Y-53938485D01*
X68198571Y-53938485D02*
X68236667Y-54014676D01*
X68236667Y-54014676D02*
X68236667Y-54128961D01*
X68236667Y-54128961D02*
X68198571Y-54205152D01*
X68198571Y-54205152D02*
X68160476Y-54243247D01*
X68160476Y-54243247D02*
X68084286Y-54281342D01*
X68084286Y-54281342D02*
X67779524Y-54281342D01*
X69036667Y-54662295D02*
X68770000Y-54281342D01*
X68579524Y-54662295D02*
X68579524Y-53862295D01*
X68579524Y-53862295D02*
X68884286Y-53862295D01*
X68884286Y-53862295D02*
X68960476Y-53900390D01*
X68960476Y-53900390D02*
X68998571Y-53938485D01*
X68998571Y-53938485D02*
X69036667Y-54014676D01*
X69036667Y-54014676D02*
X69036667Y-54128961D01*
X69036667Y-54128961D02*
X68998571Y-54205152D01*
X68998571Y-54205152D02*
X68960476Y-54243247D01*
X68960476Y-54243247D02*
X68884286Y-54281342D01*
X68884286Y-54281342D02*
X68579524Y-54281342D01*
X69531905Y-53862295D02*
X69684286Y-53862295D01*
X69684286Y-53862295D02*
X69760476Y-53900390D01*
X69760476Y-53900390D02*
X69836667Y-53976580D01*
X69836667Y-53976580D02*
X69874762Y-54128961D01*
X69874762Y-54128961D02*
X69874762Y-54395628D01*
X69874762Y-54395628D02*
X69836667Y-54548009D01*
X69836667Y-54548009D02*
X69760476Y-54624200D01*
X69760476Y-54624200D02*
X69684286Y-54662295D01*
X69684286Y-54662295D02*
X69531905Y-54662295D01*
X69531905Y-54662295D02*
X69455714Y-54624200D01*
X69455714Y-54624200D02*
X69379524Y-54548009D01*
X69379524Y-54548009D02*
X69341428Y-54395628D01*
X69341428Y-54395628D02*
X69341428Y-54128961D01*
X69341428Y-54128961D02*
X69379524Y-53976580D01*
X69379524Y-53976580D02*
X69455714Y-53900390D01*
X69455714Y-53900390D02*
X69531905Y-53862295D01*
X70484285Y-54243247D02*
X70598571Y-54281342D01*
X70598571Y-54281342D02*
X70636666Y-54319438D01*
X70636666Y-54319438D02*
X70674762Y-54395628D01*
X70674762Y-54395628D02*
X70674762Y-54509914D01*
X70674762Y-54509914D02*
X70636666Y-54586104D01*
X70636666Y-54586104D02*
X70598571Y-54624200D01*
X70598571Y-54624200D02*
X70522381Y-54662295D01*
X70522381Y-54662295D02*
X70217619Y-54662295D01*
X70217619Y-54662295D02*
X70217619Y-53862295D01*
X70217619Y-53862295D02*
X70484285Y-53862295D01*
X70484285Y-53862295D02*
X70560476Y-53900390D01*
X70560476Y-53900390D02*
X70598571Y-53938485D01*
X70598571Y-53938485D02*
X70636666Y-54014676D01*
X70636666Y-54014676D02*
X70636666Y-54090866D01*
X70636666Y-54090866D02*
X70598571Y-54167057D01*
X70598571Y-54167057D02*
X70560476Y-54205152D01*
X70560476Y-54205152D02*
X70484285Y-54243247D01*
X70484285Y-54243247D02*
X70217619Y-54243247D01*
X71017619Y-54243247D02*
X71284285Y-54243247D01*
X71398571Y-54662295D02*
X71017619Y-54662295D01*
X71017619Y-54662295D02*
X71017619Y-53862295D01*
X71017619Y-53862295D02*
X71398571Y-53862295D01*
X60054285Y-54624200D02*
X60168571Y-54662295D01*
X60168571Y-54662295D02*
X60359047Y-54662295D01*
X60359047Y-54662295D02*
X60435238Y-54624200D01*
X60435238Y-54624200D02*
X60473333Y-54586104D01*
X60473333Y-54586104D02*
X60511428Y-54509914D01*
X60511428Y-54509914D02*
X60511428Y-54433723D01*
X60511428Y-54433723D02*
X60473333Y-54357533D01*
X60473333Y-54357533D02*
X60435238Y-54319438D01*
X60435238Y-54319438D02*
X60359047Y-54281342D01*
X60359047Y-54281342D02*
X60206666Y-54243247D01*
X60206666Y-54243247D02*
X60130476Y-54205152D01*
X60130476Y-54205152D02*
X60092381Y-54167057D01*
X60092381Y-54167057D02*
X60054285Y-54090866D01*
X60054285Y-54090866D02*
X60054285Y-54014676D01*
X60054285Y-54014676D02*
X60092381Y-53938485D01*
X60092381Y-53938485D02*
X60130476Y-53900390D01*
X60130476Y-53900390D02*
X60206666Y-53862295D01*
X60206666Y-53862295D02*
X60397143Y-53862295D01*
X60397143Y-53862295D02*
X60511428Y-53900390D01*
X60778095Y-53862295D02*
X60968571Y-54662295D01*
X60968571Y-54662295D02*
X61120952Y-54090866D01*
X61120952Y-54090866D02*
X61273333Y-54662295D01*
X61273333Y-54662295D02*
X61463810Y-53862295D01*
X61768572Y-54662295D02*
X61768572Y-53862295D01*
X61768572Y-53862295D02*
X61959048Y-53862295D01*
X61959048Y-53862295D02*
X62073334Y-53900390D01*
X62073334Y-53900390D02*
X62149524Y-53976580D01*
X62149524Y-53976580D02*
X62187619Y-54052771D01*
X62187619Y-54052771D02*
X62225715Y-54205152D01*
X62225715Y-54205152D02*
X62225715Y-54319438D01*
X62225715Y-54319438D02*
X62187619Y-54471819D01*
X62187619Y-54471819D02*
X62149524Y-54548009D01*
X62149524Y-54548009D02*
X62073334Y-54624200D01*
X62073334Y-54624200D02*
X61959048Y-54662295D01*
X61959048Y-54662295D02*
X61768572Y-54662295D01*
X18161904Y-8112295D02*
X18428571Y-8912295D01*
X18428571Y-8912295D02*
X18695237Y-8112295D01*
X19228570Y-8493247D02*
X19342856Y-8531342D01*
X19342856Y-8531342D02*
X19380951Y-8569438D01*
X19380951Y-8569438D02*
X19419047Y-8645628D01*
X19419047Y-8645628D02*
X19419047Y-8759914D01*
X19419047Y-8759914D02*
X19380951Y-8836104D01*
X19380951Y-8836104D02*
X19342856Y-8874200D01*
X19342856Y-8874200D02*
X19266666Y-8912295D01*
X19266666Y-8912295D02*
X18961904Y-8912295D01*
X18961904Y-8912295D02*
X18961904Y-8112295D01*
X18961904Y-8112295D02*
X19228570Y-8112295D01*
X19228570Y-8112295D02*
X19304761Y-8150390D01*
X19304761Y-8150390D02*
X19342856Y-8188485D01*
X19342856Y-8188485D02*
X19380951Y-8264676D01*
X19380951Y-8264676D02*
X19380951Y-8340866D01*
X19380951Y-8340866D02*
X19342856Y-8417057D01*
X19342856Y-8417057D02*
X19304761Y-8455152D01*
X19304761Y-8455152D02*
X19228570Y-8493247D01*
X19228570Y-8493247D02*
X18961904Y-8493247D01*
X19761904Y-8112295D02*
X19761904Y-8759914D01*
X19761904Y-8759914D02*
X19799999Y-8836104D01*
X19799999Y-8836104D02*
X19838094Y-8874200D01*
X19838094Y-8874200D02*
X19914285Y-8912295D01*
X19914285Y-8912295D02*
X20066666Y-8912295D01*
X20066666Y-8912295D02*
X20142856Y-8874200D01*
X20142856Y-8874200D02*
X20180951Y-8836104D01*
X20180951Y-8836104D02*
X20219047Y-8759914D01*
X20219047Y-8759914D02*
X20219047Y-8112295D01*
X20561903Y-8874200D02*
X20676189Y-8912295D01*
X20676189Y-8912295D02*
X20866665Y-8912295D01*
X20866665Y-8912295D02*
X20942856Y-8874200D01*
X20942856Y-8874200D02*
X20980951Y-8836104D01*
X20980951Y-8836104D02*
X21019046Y-8759914D01*
X21019046Y-8759914D02*
X21019046Y-8683723D01*
X21019046Y-8683723D02*
X20980951Y-8607533D01*
X20980951Y-8607533D02*
X20942856Y-8569438D01*
X20942856Y-8569438D02*
X20866665Y-8531342D01*
X20866665Y-8531342D02*
X20714284Y-8493247D01*
X20714284Y-8493247D02*
X20638094Y-8455152D01*
X20638094Y-8455152D02*
X20599999Y-8417057D01*
X20599999Y-8417057D02*
X20561903Y-8340866D01*
X20561903Y-8340866D02*
X20561903Y-8264676D01*
X20561903Y-8264676D02*
X20599999Y-8188485D01*
X20599999Y-8188485D02*
X20638094Y-8150390D01*
X20638094Y-8150390D02*
X20714284Y-8112295D01*
X20714284Y-8112295D02*
X20904761Y-8112295D01*
X20904761Y-8112295D02*
X21019046Y-8150390D01*
X21971428Y-8912295D02*
X21971428Y-8112295D01*
X21971428Y-8112295D02*
X22161904Y-8112295D01*
X22161904Y-8112295D02*
X22276190Y-8150390D01*
X22276190Y-8150390D02*
X22352380Y-8226580D01*
X22352380Y-8226580D02*
X22390475Y-8302771D01*
X22390475Y-8302771D02*
X22428571Y-8455152D01*
X22428571Y-8455152D02*
X22428571Y-8569438D01*
X22428571Y-8569438D02*
X22390475Y-8721819D01*
X22390475Y-8721819D02*
X22352380Y-8798009D01*
X22352380Y-8798009D02*
X22276190Y-8874200D01*
X22276190Y-8874200D02*
X22161904Y-8912295D01*
X22161904Y-8912295D02*
X21971428Y-8912295D01*
X22771428Y-8493247D02*
X23038094Y-8493247D01*
X23152380Y-8912295D02*
X22771428Y-8912295D01*
X22771428Y-8912295D02*
X22771428Y-8112295D01*
X22771428Y-8112295D02*
X23152380Y-8112295D01*
X23380952Y-8112295D02*
X23838095Y-8112295D01*
X23609523Y-8912295D02*
X23609523Y-8112295D01*
X61349523Y-59600390D02*
X61273333Y-59562295D01*
X61273333Y-59562295D02*
X61159047Y-59562295D01*
X61159047Y-59562295D02*
X61044761Y-59600390D01*
X61044761Y-59600390D02*
X60968571Y-59676580D01*
X60968571Y-59676580D02*
X60930476Y-59752771D01*
X60930476Y-59752771D02*
X60892380Y-59905152D01*
X60892380Y-59905152D02*
X60892380Y-60019438D01*
X60892380Y-60019438D02*
X60930476Y-60171819D01*
X60930476Y-60171819D02*
X60968571Y-60248009D01*
X60968571Y-60248009D02*
X61044761Y-60324200D01*
X61044761Y-60324200D02*
X61159047Y-60362295D01*
X61159047Y-60362295D02*
X61235238Y-60362295D01*
X61235238Y-60362295D02*
X61349523Y-60324200D01*
X61349523Y-60324200D02*
X61387619Y-60286104D01*
X61387619Y-60286104D02*
X61387619Y-60019438D01*
X61387619Y-60019438D02*
X61235238Y-60019438D01*
X74038095Y-54562295D02*
X73771428Y-54181342D01*
X73580952Y-54562295D02*
X73580952Y-53762295D01*
X73580952Y-53762295D02*
X73885714Y-53762295D01*
X73885714Y-53762295D02*
X73961904Y-53800390D01*
X73961904Y-53800390D02*
X73999999Y-53838485D01*
X73999999Y-53838485D02*
X74038095Y-53914676D01*
X74038095Y-53914676D02*
X74038095Y-54028961D01*
X74038095Y-54028961D02*
X73999999Y-54105152D01*
X73999999Y-54105152D02*
X73961904Y-54143247D01*
X73961904Y-54143247D02*
X73885714Y-54181342D01*
X73885714Y-54181342D02*
X73580952Y-54181342D01*
X74380952Y-54143247D02*
X74647618Y-54143247D01*
X74761904Y-54562295D02*
X74380952Y-54562295D01*
X74380952Y-54562295D02*
X74380952Y-53762295D01*
X74380952Y-53762295D02*
X74761904Y-53762295D01*
X75066666Y-54524200D02*
X75180952Y-54562295D01*
X75180952Y-54562295D02*
X75371428Y-54562295D01*
X75371428Y-54562295D02*
X75447619Y-54524200D01*
X75447619Y-54524200D02*
X75485714Y-54486104D01*
X75485714Y-54486104D02*
X75523809Y-54409914D01*
X75523809Y-54409914D02*
X75523809Y-54333723D01*
X75523809Y-54333723D02*
X75485714Y-54257533D01*
X75485714Y-54257533D02*
X75447619Y-54219438D01*
X75447619Y-54219438D02*
X75371428Y-54181342D01*
X75371428Y-54181342D02*
X75219047Y-54143247D01*
X75219047Y-54143247D02*
X75142857Y-54105152D01*
X75142857Y-54105152D02*
X75104762Y-54067057D01*
X75104762Y-54067057D02*
X75066666Y-53990866D01*
X75066666Y-53990866D02*
X75066666Y-53914676D01*
X75066666Y-53914676D02*
X75104762Y-53838485D01*
X75104762Y-53838485D02*
X75142857Y-53800390D01*
X75142857Y-53800390D02*
X75219047Y-53762295D01*
X75219047Y-53762295D02*
X75409524Y-53762295D01*
X75409524Y-53762295D02*
X75523809Y-53800390D01*
X75866667Y-54143247D02*
X76133333Y-54143247D01*
X76247619Y-54562295D02*
X75866667Y-54562295D01*
X75866667Y-54562295D02*
X75866667Y-53762295D01*
X75866667Y-53762295D02*
X76247619Y-53762295D01*
X76476191Y-53762295D02*
X76933334Y-53762295D01*
X76704762Y-54562295D02*
X76704762Y-53762295D01*
X1054523Y-49600390D02*
X978333Y-49562295D01*
X978333Y-49562295D02*
X864047Y-49562295D01*
X864047Y-49562295D02*
X749761Y-49600390D01*
X749761Y-49600390D02*
X673571Y-49676580D01*
X673571Y-49676580D02*
X635476Y-49752771D01*
X635476Y-49752771D02*
X597380Y-49905152D01*
X597380Y-49905152D02*
X597380Y-50019438D01*
X597380Y-50019438D02*
X635476Y-50171819D01*
X635476Y-50171819D02*
X673571Y-50248009D01*
X673571Y-50248009D02*
X749761Y-50324200D01*
X749761Y-50324200D02*
X864047Y-50362295D01*
X864047Y-50362295D02*
X940238Y-50362295D01*
X940238Y-50362295D02*
X1054523Y-50324200D01*
X1054523Y-50324200D02*
X1092619Y-50286104D01*
X1092619Y-50286104D02*
X1092619Y-50019438D01*
X1092619Y-50019438D02*
X940238Y-50019438D01*
X1435476Y-49562295D02*
X1435476Y-50209914D01*
X1435476Y-50209914D02*
X1473571Y-50286104D01*
X1473571Y-50286104D02*
X1511666Y-50324200D01*
X1511666Y-50324200D02*
X1587857Y-50362295D01*
X1587857Y-50362295D02*
X1740238Y-50362295D01*
X1740238Y-50362295D02*
X1816428Y-50324200D01*
X1816428Y-50324200D02*
X1854523Y-50286104D01*
X1854523Y-50286104D02*
X1892619Y-50209914D01*
X1892619Y-50209914D02*
X1892619Y-49562295D01*
X2235475Y-50133723D02*
X2616428Y-50133723D01*
X2159285Y-50362295D02*
X2425952Y-49562295D01*
X2425952Y-49562295D02*
X2692618Y-50362295D01*
X3416428Y-50362295D02*
X3149761Y-49981342D01*
X2959285Y-50362295D02*
X2959285Y-49562295D01*
X2959285Y-49562295D02*
X3264047Y-49562295D01*
X3264047Y-49562295D02*
X3340237Y-49600390D01*
X3340237Y-49600390D02*
X3378332Y-49638485D01*
X3378332Y-49638485D02*
X3416428Y-49714676D01*
X3416428Y-49714676D02*
X3416428Y-49828961D01*
X3416428Y-49828961D02*
X3378332Y-49905152D01*
X3378332Y-49905152D02*
X3340237Y-49943247D01*
X3340237Y-49943247D02*
X3264047Y-49981342D01*
X3264047Y-49981342D02*
X2959285Y-49981342D01*
X3759285Y-50362295D02*
X3759285Y-49562295D01*
X3759285Y-49562295D02*
X3949761Y-49562295D01*
X3949761Y-49562295D02*
X4064047Y-49600390D01*
X4064047Y-49600390D02*
X4140237Y-49676580D01*
X4140237Y-49676580D02*
X4178332Y-49752771D01*
X4178332Y-49752771D02*
X4216428Y-49905152D01*
X4216428Y-49905152D02*
X4216428Y-50019438D01*
X4216428Y-50019438D02*
X4178332Y-50171819D01*
X4178332Y-50171819D02*
X4140237Y-50248009D01*
X4140237Y-50248009D02*
X4064047Y-50324200D01*
X4064047Y-50324200D02*
X3949761Y-50362295D01*
X3949761Y-50362295D02*
X3759285Y-50362295D01*
X5587856Y-49600390D02*
X5511666Y-49562295D01*
X5511666Y-49562295D02*
X5397380Y-49562295D01*
X5397380Y-49562295D02*
X5283094Y-49600390D01*
X5283094Y-49600390D02*
X5206904Y-49676580D01*
X5206904Y-49676580D02*
X5168809Y-49752771D01*
X5168809Y-49752771D02*
X5130713Y-49905152D01*
X5130713Y-49905152D02*
X5130713Y-50019438D01*
X5130713Y-50019438D02*
X5168809Y-50171819D01*
X5168809Y-50171819D02*
X5206904Y-50248009D01*
X5206904Y-50248009D02*
X5283094Y-50324200D01*
X5283094Y-50324200D02*
X5397380Y-50362295D01*
X5397380Y-50362295D02*
X5473571Y-50362295D01*
X5473571Y-50362295D02*
X5587856Y-50324200D01*
X5587856Y-50324200D02*
X5625952Y-50286104D01*
X5625952Y-50286104D02*
X5625952Y-50019438D01*
X5625952Y-50019438D02*
X5473571Y-50019438D01*
X5968809Y-50362295D02*
X5968809Y-49562295D01*
X5968809Y-49562295D02*
X6273571Y-49562295D01*
X6273571Y-49562295D02*
X6349761Y-49600390D01*
X6349761Y-49600390D02*
X6387856Y-49638485D01*
X6387856Y-49638485D02*
X6425952Y-49714676D01*
X6425952Y-49714676D02*
X6425952Y-49828961D01*
X6425952Y-49828961D02*
X6387856Y-49905152D01*
X6387856Y-49905152D02*
X6349761Y-49943247D01*
X6349761Y-49943247D02*
X6273571Y-49981342D01*
X6273571Y-49981342D02*
X5968809Y-49981342D01*
X6921190Y-49562295D02*
X6997380Y-49562295D01*
X6997380Y-49562295D02*
X7073571Y-49600390D01*
X7073571Y-49600390D02*
X7111666Y-49638485D01*
X7111666Y-49638485D02*
X7149761Y-49714676D01*
X7149761Y-49714676D02*
X7187856Y-49867057D01*
X7187856Y-49867057D02*
X7187856Y-50057533D01*
X7187856Y-50057533D02*
X7149761Y-50209914D01*
X7149761Y-50209914D02*
X7111666Y-50286104D01*
X7111666Y-50286104D02*
X7073571Y-50324200D01*
X7073571Y-50324200D02*
X6997380Y-50362295D01*
X6997380Y-50362295D02*
X6921190Y-50362295D01*
X6921190Y-50362295D02*
X6844999Y-50324200D01*
X6844999Y-50324200D02*
X6806904Y-50286104D01*
X6806904Y-50286104D02*
X6768809Y-50209914D01*
X6768809Y-50209914D02*
X6730713Y-50057533D01*
X6730713Y-50057533D02*
X6730713Y-49867057D01*
X6730713Y-49867057D02*
X6768809Y-49714676D01*
X6768809Y-49714676D02*
X6806904Y-49638485D01*
X6806904Y-49638485D02*
X6844999Y-49600390D01*
X6844999Y-49600390D02*
X6921190Y-49562295D01*
X51314285Y-54624200D02*
X51428571Y-54662295D01*
X51428571Y-54662295D02*
X51619047Y-54662295D01*
X51619047Y-54662295D02*
X51695238Y-54624200D01*
X51695238Y-54624200D02*
X51733333Y-54586104D01*
X51733333Y-54586104D02*
X51771428Y-54509914D01*
X51771428Y-54509914D02*
X51771428Y-54433723D01*
X51771428Y-54433723D02*
X51733333Y-54357533D01*
X51733333Y-54357533D02*
X51695238Y-54319438D01*
X51695238Y-54319438D02*
X51619047Y-54281342D01*
X51619047Y-54281342D02*
X51466666Y-54243247D01*
X51466666Y-54243247D02*
X51390476Y-54205152D01*
X51390476Y-54205152D02*
X51352381Y-54167057D01*
X51352381Y-54167057D02*
X51314285Y-54090866D01*
X51314285Y-54090866D02*
X51314285Y-54014676D01*
X51314285Y-54014676D02*
X51352381Y-53938485D01*
X51352381Y-53938485D02*
X51390476Y-53900390D01*
X51390476Y-53900390D02*
X51466666Y-53862295D01*
X51466666Y-53862295D02*
X51657143Y-53862295D01*
X51657143Y-53862295D02*
X51771428Y-53900390D01*
X52038095Y-53862295D02*
X52228571Y-54662295D01*
X52228571Y-54662295D02*
X52380952Y-54090866D01*
X52380952Y-54090866D02*
X52533333Y-54662295D01*
X52533333Y-54662295D02*
X52723810Y-53862295D01*
X53028572Y-54662295D02*
X53028572Y-53862295D01*
X53028572Y-53862295D02*
X53219048Y-53862295D01*
X53219048Y-53862295D02*
X53333334Y-53900390D01*
X53333334Y-53900390D02*
X53409524Y-53976580D01*
X53409524Y-53976580D02*
X53447619Y-54052771D01*
X53447619Y-54052771D02*
X53485715Y-54205152D01*
X53485715Y-54205152D02*
X53485715Y-54319438D01*
X53485715Y-54319438D02*
X53447619Y-54471819D01*
X53447619Y-54471819D02*
X53409524Y-54548009D01*
X53409524Y-54548009D02*
X53333334Y-54624200D01*
X53333334Y-54624200D02*
X53219048Y-54662295D01*
X53219048Y-54662295D02*
X53028572Y-54662295D01*
X7935712Y-52083961D02*
X7935712Y-52617295D01*
X7592855Y-52083961D02*
X7592855Y-52503009D01*
X7592855Y-52503009D02*
X7630950Y-52579200D01*
X7630950Y-52579200D02*
X7707140Y-52617295D01*
X7707140Y-52617295D02*
X7821426Y-52617295D01*
X7821426Y-52617295D02*
X7897617Y-52579200D01*
X7897617Y-52579200D02*
X7935712Y-52541104D01*
X8316665Y-52083961D02*
X8316665Y-52617295D01*
X8316665Y-52160152D02*
X8354760Y-52122057D01*
X8354760Y-52122057D02*
X8430950Y-52083961D01*
X8430950Y-52083961D02*
X8545236Y-52083961D01*
X8545236Y-52083961D02*
X8621427Y-52122057D01*
X8621427Y-52122057D02*
X8659522Y-52198247D01*
X8659522Y-52198247D02*
X8659522Y-52617295D01*
X9040475Y-52083961D02*
X9040475Y-52883961D01*
X9040475Y-52122057D02*
X9116665Y-52083961D01*
X9116665Y-52083961D02*
X9269046Y-52083961D01*
X9269046Y-52083961D02*
X9345237Y-52122057D01*
X9345237Y-52122057D02*
X9383332Y-52160152D01*
X9383332Y-52160152D02*
X9421427Y-52236342D01*
X9421427Y-52236342D02*
X9421427Y-52464914D01*
X9421427Y-52464914D02*
X9383332Y-52541104D01*
X9383332Y-52541104D02*
X9345237Y-52579200D01*
X9345237Y-52579200D02*
X9269046Y-52617295D01*
X9269046Y-52617295D02*
X9116665Y-52617295D01*
X9116665Y-52617295D02*
X9040475Y-52579200D01*
X9878570Y-52617295D02*
X9802380Y-52579200D01*
X9802380Y-52579200D02*
X9764285Y-52503009D01*
X9764285Y-52503009D02*
X9764285Y-51817295D01*
X10526190Y-52083961D02*
X10526190Y-52617295D01*
X10183333Y-52083961D02*
X10183333Y-52503009D01*
X10183333Y-52503009D02*
X10221428Y-52579200D01*
X10221428Y-52579200D02*
X10297618Y-52617295D01*
X10297618Y-52617295D02*
X10411904Y-52617295D01*
X10411904Y-52617295D02*
X10488095Y-52579200D01*
X10488095Y-52579200D02*
X10526190Y-52541104D01*
X11250000Y-52083961D02*
X11250000Y-52731580D01*
X11250000Y-52731580D02*
X11211905Y-52807771D01*
X11211905Y-52807771D02*
X11173809Y-52845866D01*
X11173809Y-52845866D02*
X11097619Y-52883961D01*
X11097619Y-52883961D02*
X10983333Y-52883961D01*
X10983333Y-52883961D02*
X10907143Y-52845866D01*
X11250000Y-52579200D02*
X11173809Y-52617295D01*
X11173809Y-52617295D02*
X11021428Y-52617295D01*
X11021428Y-52617295D02*
X10945238Y-52579200D01*
X10945238Y-52579200D02*
X10907143Y-52541104D01*
X10907143Y-52541104D02*
X10869047Y-52464914D01*
X10869047Y-52464914D02*
X10869047Y-52236342D01*
X10869047Y-52236342D02*
X10907143Y-52160152D01*
X10907143Y-52160152D02*
X10945238Y-52122057D01*
X10945238Y-52122057D02*
X11021428Y-52083961D01*
X11021428Y-52083961D02*
X11173809Y-52083961D01*
X11173809Y-52083961D02*
X11250000Y-52122057D01*
X12164286Y-52083961D02*
X12316667Y-52617295D01*
X12316667Y-52617295D02*
X12469048Y-52236342D01*
X12469048Y-52236342D02*
X12621429Y-52617295D01*
X12621429Y-52617295D02*
X12773810Y-52083961D01*
X13078572Y-52617295D02*
X13078572Y-51817295D01*
X13421429Y-52617295D02*
X13421429Y-52198247D01*
X13421429Y-52198247D02*
X13383334Y-52122057D01*
X13383334Y-52122057D02*
X13307143Y-52083961D01*
X13307143Y-52083961D02*
X13192857Y-52083961D01*
X13192857Y-52083961D02*
X13116667Y-52122057D01*
X13116667Y-52122057D02*
X13078572Y-52160152D01*
X13802382Y-52617295D02*
X13802382Y-52083961D01*
X13802382Y-51817295D02*
X13764286Y-51855390D01*
X13764286Y-51855390D02*
X13802382Y-51893485D01*
X13802382Y-51893485D02*
X13840477Y-51855390D01*
X13840477Y-51855390D02*
X13802382Y-51817295D01*
X13802382Y-51817295D02*
X13802382Y-51893485D01*
X14297619Y-52617295D02*
X14221429Y-52579200D01*
X14221429Y-52579200D02*
X14183334Y-52503009D01*
X14183334Y-52503009D02*
X14183334Y-51817295D01*
X14907144Y-52579200D02*
X14830953Y-52617295D01*
X14830953Y-52617295D02*
X14678572Y-52617295D01*
X14678572Y-52617295D02*
X14602382Y-52579200D01*
X14602382Y-52579200D02*
X14564286Y-52503009D01*
X14564286Y-52503009D02*
X14564286Y-52198247D01*
X14564286Y-52198247D02*
X14602382Y-52122057D01*
X14602382Y-52122057D02*
X14678572Y-52083961D01*
X14678572Y-52083961D02*
X14830953Y-52083961D01*
X14830953Y-52083961D02*
X14907144Y-52122057D01*
X14907144Y-52122057D02*
X14945239Y-52198247D01*
X14945239Y-52198247D02*
X14945239Y-52274438D01*
X14945239Y-52274438D02*
X14564286Y-52350628D01*
X15783334Y-52083961D02*
X16088096Y-52083961D01*
X15897620Y-51817295D02*
X15897620Y-52503009D01*
X15897620Y-52503009D02*
X15935715Y-52579200D01*
X15935715Y-52579200D02*
X16011905Y-52617295D01*
X16011905Y-52617295D02*
X16088096Y-52617295D01*
X16354763Y-52617295D02*
X16354763Y-52083961D01*
X16354763Y-52236342D02*
X16392858Y-52160152D01*
X16392858Y-52160152D02*
X16430953Y-52122057D01*
X16430953Y-52122057D02*
X16507144Y-52083961D01*
X16507144Y-52083961D02*
X16583334Y-52083961D01*
X17192858Y-52617295D02*
X17192858Y-52198247D01*
X17192858Y-52198247D02*
X17154763Y-52122057D01*
X17154763Y-52122057D02*
X17078572Y-52083961D01*
X17078572Y-52083961D02*
X16926191Y-52083961D01*
X16926191Y-52083961D02*
X16850001Y-52122057D01*
X17192858Y-52579200D02*
X17116667Y-52617295D01*
X17116667Y-52617295D02*
X16926191Y-52617295D01*
X16926191Y-52617295D02*
X16850001Y-52579200D01*
X16850001Y-52579200D02*
X16811905Y-52503009D01*
X16811905Y-52503009D02*
X16811905Y-52426819D01*
X16811905Y-52426819D02*
X16850001Y-52350628D01*
X16850001Y-52350628D02*
X16926191Y-52312533D01*
X16926191Y-52312533D02*
X17116667Y-52312533D01*
X17116667Y-52312533D02*
X17192858Y-52274438D01*
X17916668Y-52579200D02*
X17840477Y-52617295D01*
X17840477Y-52617295D02*
X17688096Y-52617295D01*
X17688096Y-52617295D02*
X17611906Y-52579200D01*
X17611906Y-52579200D02*
X17573811Y-52541104D01*
X17573811Y-52541104D02*
X17535715Y-52464914D01*
X17535715Y-52464914D02*
X17535715Y-52236342D01*
X17535715Y-52236342D02*
X17573811Y-52160152D01*
X17573811Y-52160152D02*
X17611906Y-52122057D01*
X17611906Y-52122057D02*
X17688096Y-52083961D01*
X17688096Y-52083961D02*
X17840477Y-52083961D01*
X17840477Y-52083961D02*
X17916668Y-52122057D01*
X18259525Y-52617295D02*
X18259525Y-52083961D01*
X18259525Y-51817295D02*
X18221429Y-51855390D01*
X18221429Y-51855390D02*
X18259525Y-51893485D01*
X18259525Y-51893485D02*
X18297620Y-51855390D01*
X18297620Y-51855390D02*
X18259525Y-51817295D01*
X18259525Y-51817295D02*
X18259525Y-51893485D01*
X18640477Y-52083961D02*
X18640477Y-52617295D01*
X18640477Y-52160152D02*
X18678572Y-52122057D01*
X18678572Y-52122057D02*
X18754762Y-52083961D01*
X18754762Y-52083961D02*
X18869048Y-52083961D01*
X18869048Y-52083961D02*
X18945239Y-52122057D01*
X18945239Y-52122057D02*
X18983334Y-52198247D01*
X18983334Y-52198247D02*
X18983334Y-52617295D01*
X19707144Y-52083961D02*
X19707144Y-52731580D01*
X19707144Y-52731580D02*
X19669049Y-52807771D01*
X19669049Y-52807771D02*
X19630953Y-52845866D01*
X19630953Y-52845866D02*
X19554763Y-52883961D01*
X19554763Y-52883961D02*
X19440477Y-52883961D01*
X19440477Y-52883961D02*
X19364287Y-52845866D01*
X19707144Y-52579200D02*
X19630953Y-52617295D01*
X19630953Y-52617295D02*
X19478572Y-52617295D01*
X19478572Y-52617295D02*
X19402382Y-52579200D01*
X19402382Y-52579200D02*
X19364287Y-52541104D01*
X19364287Y-52541104D02*
X19326191Y-52464914D01*
X19326191Y-52464914D02*
X19326191Y-52236342D01*
X19326191Y-52236342D02*
X19364287Y-52160152D01*
X19364287Y-52160152D02*
X19402382Y-52122057D01*
X19402382Y-52122057D02*
X19478572Y-52083961D01*
X19478572Y-52083961D02*
X19630953Y-52083961D01*
X19630953Y-52083961D02*
X19707144Y-52122057D01*
X58123810Y-60286104D02*
X58085714Y-60324200D01*
X58085714Y-60324200D02*
X57971429Y-60362295D01*
X57971429Y-60362295D02*
X57895238Y-60362295D01*
X57895238Y-60362295D02*
X57780952Y-60324200D01*
X57780952Y-60324200D02*
X57704762Y-60248009D01*
X57704762Y-60248009D02*
X57666667Y-60171819D01*
X57666667Y-60171819D02*
X57628571Y-60019438D01*
X57628571Y-60019438D02*
X57628571Y-59905152D01*
X57628571Y-59905152D02*
X57666667Y-59752771D01*
X57666667Y-59752771D02*
X57704762Y-59676580D01*
X57704762Y-59676580D02*
X57780952Y-59600390D01*
X57780952Y-59600390D02*
X57895238Y-59562295D01*
X57895238Y-59562295D02*
X57971429Y-59562295D01*
X57971429Y-59562295D02*
X58085714Y-59600390D01*
X58085714Y-59600390D02*
X58123810Y-59638485D01*
X58847619Y-60362295D02*
X58466667Y-60362295D01*
X58466667Y-60362295D02*
X58466667Y-59562295D01*
X59114286Y-60362295D02*
X59114286Y-59562295D01*
X59571429Y-60362295D02*
X59228571Y-59905152D01*
X59571429Y-59562295D02*
X59114286Y-60019438D01*
X56685714Y-2547342D02*
X56685714Y-1347342D01*
X56685714Y-1347342D02*
X57142857Y-1347342D01*
X57142857Y-1347342D02*
X57257142Y-1404485D01*
X57257142Y-1404485D02*
X57314285Y-1461628D01*
X57314285Y-1461628D02*
X57371428Y-1575914D01*
X57371428Y-1575914D02*
X57371428Y-1747342D01*
X57371428Y-1747342D02*
X57314285Y-1861628D01*
X57314285Y-1861628D02*
X57257142Y-1918771D01*
X57257142Y-1918771D02*
X57142857Y-1975914D01*
X57142857Y-1975914D02*
X56685714Y-1975914D01*
X57885714Y-2547342D02*
X57885714Y-1347342D01*
X59142857Y-2433057D02*
X59085714Y-2490200D01*
X59085714Y-2490200D02*
X58914286Y-2547342D01*
X58914286Y-2547342D02*
X58800000Y-2547342D01*
X58800000Y-2547342D02*
X58628571Y-2490200D01*
X58628571Y-2490200D02*
X58514286Y-2375914D01*
X58514286Y-2375914D02*
X58457143Y-2261628D01*
X58457143Y-2261628D02*
X58400000Y-2033057D01*
X58400000Y-2033057D02*
X58400000Y-1861628D01*
X58400000Y-1861628D02*
X58457143Y-1633057D01*
X58457143Y-1633057D02*
X58514286Y-1518771D01*
X58514286Y-1518771D02*
X58628571Y-1404485D01*
X58628571Y-1404485D02*
X58800000Y-1347342D01*
X58800000Y-1347342D02*
X58914286Y-1347342D01*
X58914286Y-1347342D02*
X59085714Y-1404485D01*
X59085714Y-1404485D02*
X59142857Y-1461628D01*
X59885714Y-1347342D02*
X60114286Y-1347342D01*
X60114286Y-1347342D02*
X60228571Y-1404485D01*
X60228571Y-1404485D02*
X60342857Y-1518771D01*
X60342857Y-1518771D02*
X60400000Y-1747342D01*
X60400000Y-1747342D02*
X60400000Y-2147342D01*
X60400000Y-2147342D02*
X60342857Y-2375914D01*
X60342857Y-2375914D02*
X60228571Y-2490200D01*
X60228571Y-2490200D02*
X60114286Y-2547342D01*
X60114286Y-2547342D02*
X59885714Y-2547342D01*
X59885714Y-2547342D02*
X59771429Y-2490200D01*
X59771429Y-2490200D02*
X59657143Y-2375914D01*
X59657143Y-2375914D02*
X59600000Y-2147342D01*
X59600000Y-2147342D02*
X59600000Y-1747342D01*
X59600000Y-1747342D02*
X59657143Y-1518771D01*
X59657143Y-1518771D02*
X59771429Y-1404485D01*
X59771429Y-1404485D02*
X59885714Y-1347342D01*
X60857143Y-1461628D02*
X60914286Y-1404485D01*
X60914286Y-1404485D02*
X61028572Y-1347342D01*
X61028572Y-1347342D02*
X61314286Y-1347342D01*
X61314286Y-1347342D02*
X61428572Y-1404485D01*
X61428572Y-1404485D02*
X61485714Y-1461628D01*
X61485714Y-1461628D02*
X61542857Y-1575914D01*
X61542857Y-1575914D02*
X61542857Y-1690200D01*
X61542857Y-1690200D02*
X61485714Y-1861628D01*
X61485714Y-1861628D02*
X60800000Y-2547342D01*
X60800000Y-2547342D02*
X61542857Y-2547342D01*
X62800000Y-1347342D02*
X63485715Y-1347342D01*
X63142857Y-2547342D02*
X63142857Y-1347342D01*
X64571429Y-2547342D02*
X64171429Y-1975914D01*
X63885715Y-2547342D02*
X63885715Y-1347342D01*
X63885715Y-1347342D02*
X64342858Y-1347342D01*
X64342858Y-1347342D02*
X64457143Y-1404485D01*
X64457143Y-1404485D02*
X64514286Y-1461628D01*
X64514286Y-1461628D02*
X64571429Y-1575914D01*
X64571429Y-1575914D02*
X64571429Y-1747342D01*
X64571429Y-1747342D02*
X64514286Y-1861628D01*
X64514286Y-1861628D02*
X64457143Y-1918771D01*
X64457143Y-1918771D02*
X64342858Y-1975914D01*
X64342858Y-1975914D02*
X63885715Y-1975914D01*
X65028572Y-2204485D02*
X65600001Y-2204485D01*
X64914286Y-2547342D02*
X65314286Y-1347342D01*
X65314286Y-1347342D02*
X65714286Y-2547342D01*
X66800000Y-2433057D02*
X66742857Y-2490200D01*
X66742857Y-2490200D02*
X66571429Y-2547342D01*
X66571429Y-2547342D02*
X66457143Y-2547342D01*
X66457143Y-2547342D02*
X66285714Y-2490200D01*
X66285714Y-2490200D02*
X66171429Y-2375914D01*
X66171429Y-2375914D02*
X66114286Y-2261628D01*
X66114286Y-2261628D02*
X66057143Y-2033057D01*
X66057143Y-2033057D02*
X66057143Y-1861628D01*
X66057143Y-1861628D02*
X66114286Y-1633057D01*
X66114286Y-1633057D02*
X66171429Y-1518771D01*
X66171429Y-1518771D02*
X66285714Y-1404485D01*
X66285714Y-1404485D02*
X66457143Y-1347342D01*
X66457143Y-1347342D02*
X66571429Y-1347342D01*
X66571429Y-1347342D02*
X66742857Y-1404485D01*
X66742857Y-1404485D02*
X66800000Y-1461628D01*
X67314286Y-1918771D02*
X67714286Y-1918771D01*
X67885714Y-2547342D02*
X67314286Y-2547342D01*
X67314286Y-2547342D02*
X67314286Y-1347342D01*
X67314286Y-1347342D02*
X67885714Y-1347342D01*
X69314286Y-2547342D02*
X69314286Y-1347342D01*
X69314286Y-1347342D02*
X69714286Y-2204485D01*
X69714286Y-2204485D02*
X70114286Y-1347342D01*
X70114286Y-1347342D02*
X70114286Y-2547342D01*
X71085715Y-1918771D02*
X71257143Y-1975914D01*
X71257143Y-1975914D02*
X71314286Y-2033057D01*
X71314286Y-2033057D02*
X71371429Y-2147342D01*
X71371429Y-2147342D02*
X71371429Y-2318771D01*
X71371429Y-2318771D02*
X71314286Y-2433057D01*
X71314286Y-2433057D02*
X71257143Y-2490200D01*
X71257143Y-2490200D02*
X71142858Y-2547342D01*
X71142858Y-2547342D02*
X70685715Y-2547342D01*
X70685715Y-2547342D02*
X70685715Y-1347342D01*
X70685715Y-1347342D02*
X71085715Y-1347342D01*
X71085715Y-1347342D02*
X71200001Y-1404485D01*
X71200001Y-1404485D02*
X71257143Y-1461628D01*
X71257143Y-1461628D02*
X71314286Y-1575914D01*
X71314286Y-1575914D02*
X71314286Y-1690200D01*
X71314286Y-1690200D02*
X71257143Y-1804485D01*
X71257143Y-1804485D02*
X71200001Y-1861628D01*
X71200001Y-1861628D02*
X71085715Y-1918771D01*
X71085715Y-1918771D02*
X70685715Y-1918771D01*
X20911904Y-49600390D02*
X20835714Y-49562295D01*
X20835714Y-49562295D02*
X20721428Y-49562295D01*
X20721428Y-49562295D02*
X20607142Y-49600390D01*
X20607142Y-49600390D02*
X20530952Y-49676580D01*
X20530952Y-49676580D02*
X20492857Y-49752771D01*
X20492857Y-49752771D02*
X20454761Y-49905152D01*
X20454761Y-49905152D02*
X20454761Y-50019438D01*
X20454761Y-50019438D02*
X20492857Y-50171819D01*
X20492857Y-50171819D02*
X20530952Y-50248009D01*
X20530952Y-50248009D02*
X20607142Y-50324200D01*
X20607142Y-50324200D02*
X20721428Y-50362295D01*
X20721428Y-50362295D02*
X20797619Y-50362295D01*
X20797619Y-50362295D02*
X20911904Y-50324200D01*
X20911904Y-50324200D02*
X20950000Y-50286104D01*
X20950000Y-50286104D02*
X20950000Y-50019438D01*
X20950000Y-50019438D02*
X20797619Y-50019438D01*
X21292857Y-49562295D02*
X21292857Y-50209914D01*
X21292857Y-50209914D02*
X21330952Y-50286104D01*
X21330952Y-50286104D02*
X21369047Y-50324200D01*
X21369047Y-50324200D02*
X21445238Y-50362295D01*
X21445238Y-50362295D02*
X21597619Y-50362295D01*
X21597619Y-50362295D02*
X21673809Y-50324200D01*
X21673809Y-50324200D02*
X21711904Y-50286104D01*
X21711904Y-50286104D02*
X21750000Y-50209914D01*
X21750000Y-50209914D02*
X21750000Y-49562295D01*
X22092856Y-50133723D02*
X22473809Y-50133723D01*
X22016666Y-50362295D02*
X22283333Y-49562295D01*
X22283333Y-49562295D02*
X22549999Y-50362295D01*
X23273809Y-50362295D02*
X23007142Y-49981342D01*
X22816666Y-50362295D02*
X22816666Y-49562295D01*
X22816666Y-49562295D02*
X23121428Y-49562295D01*
X23121428Y-49562295D02*
X23197618Y-49600390D01*
X23197618Y-49600390D02*
X23235713Y-49638485D01*
X23235713Y-49638485D02*
X23273809Y-49714676D01*
X23273809Y-49714676D02*
X23273809Y-49828961D01*
X23273809Y-49828961D02*
X23235713Y-49905152D01*
X23235713Y-49905152D02*
X23197618Y-49943247D01*
X23197618Y-49943247D02*
X23121428Y-49981342D01*
X23121428Y-49981342D02*
X22816666Y-49981342D01*
X23616666Y-50362295D02*
X23616666Y-49562295D01*
X23616666Y-49562295D02*
X23807142Y-49562295D01*
X23807142Y-49562295D02*
X23921428Y-49600390D01*
X23921428Y-49600390D02*
X23997618Y-49676580D01*
X23997618Y-49676580D02*
X24035713Y-49752771D01*
X24035713Y-49752771D02*
X24073809Y-49905152D01*
X24073809Y-49905152D02*
X24073809Y-50019438D01*
X24073809Y-50019438D02*
X24035713Y-50171819D01*
X24035713Y-50171819D02*
X23997618Y-50248009D01*
X23997618Y-50248009D02*
X23921428Y-50324200D01*
X23921428Y-50324200D02*
X23807142Y-50362295D01*
X23807142Y-50362295D02*
X23616666Y-50362295D01*
X25445237Y-49600390D02*
X25369047Y-49562295D01*
X25369047Y-49562295D02*
X25254761Y-49562295D01*
X25254761Y-49562295D02*
X25140475Y-49600390D01*
X25140475Y-49600390D02*
X25064285Y-49676580D01*
X25064285Y-49676580D02*
X25026190Y-49752771D01*
X25026190Y-49752771D02*
X24988094Y-49905152D01*
X24988094Y-49905152D02*
X24988094Y-50019438D01*
X24988094Y-50019438D02*
X25026190Y-50171819D01*
X25026190Y-50171819D02*
X25064285Y-50248009D01*
X25064285Y-50248009D02*
X25140475Y-50324200D01*
X25140475Y-50324200D02*
X25254761Y-50362295D01*
X25254761Y-50362295D02*
X25330952Y-50362295D01*
X25330952Y-50362295D02*
X25445237Y-50324200D01*
X25445237Y-50324200D02*
X25483333Y-50286104D01*
X25483333Y-50286104D02*
X25483333Y-50019438D01*
X25483333Y-50019438D02*
X25330952Y-50019438D01*
X25826190Y-50362295D02*
X25826190Y-49562295D01*
X25826190Y-49562295D02*
X26130952Y-49562295D01*
X26130952Y-49562295D02*
X26207142Y-49600390D01*
X26207142Y-49600390D02*
X26245237Y-49638485D01*
X26245237Y-49638485D02*
X26283333Y-49714676D01*
X26283333Y-49714676D02*
X26283333Y-49828961D01*
X26283333Y-49828961D02*
X26245237Y-49905152D01*
X26245237Y-49905152D02*
X26207142Y-49943247D01*
X26207142Y-49943247D02*
X26130952Y-49981342D01*
X26130952Y-49981342D02*
X25826190Y-49981342D01*
X26969047Y-49562295D02*
X26816666Y-49562295D01*
X26816666Y-49562295D02*
X26740475Y-49600390D01*
X26740475Y-49600390D02*
X26702380Y-49638485D01*
X26702380Y-49638485D02*
X26626190Y-49752771D01*
X26626190Y-49752771D02*
X26588094Y-49905152D01*
X26588094Y-49905152D02*
X26588094Y-50209914D01*
X26588094Y-50209914D02*
X26626190Y-50286104D01*
X26626190Y-50286104D02*
X26664285Y-50324200D01*
X26664285Y-50324200D02*
X26740475Y-50362295D01*
X26740475Y-50362295D02*
X26892856Y-50362295D01*
X26892856Y-50362295D02*
X26969047Y-50324200D01*
X26969047Y-50324200D02*
X27007142Y-50286104D01*
X27007142Y-50286104D02*
X27045237Y-50209914D01*
X27045237Y-50209914D02*
X27045237Y-50019438D01*
X27045237Y-50019438D02*
X27007142Y-49943247D01*
X27007142Y-49943247D02*
X26969047Y-49905152D01*
X26969047Y-49905152D02*
X26892856Y-49867057D01*
X26892856Y-49867057D02*
X26740475Y-49867057D01*
X26740475Y-49867057D02*
X26664285Y-49905152D01*
X26664285Y-49905152D02*
X26626190Y-49943247D01*
X26626190Y-49943247D02*
X26588094Y-50019438D01*
X84880952Y-38462295D02*
X84880952Y-39109914D01*
X84880952Y-39109914D02*
X84919047Y-39186104D01*
X84919047Y-39186104D02*
X84957142Y-39224200D01*
X84957142Y-39224200D02*
X85033333Y-39262295D01*
X85033333Y-39262295D02*
X85185714Y-39262295D01*
X85185714Y-39262295D02*
X85261904Y-39224200D01*
X85261904Y-39224200D02*
X85299999Y-39186104D01*
X85299999Y-39186104D02*
X85338095Y-39109914D01*
X85338095Y-39109914D02*
X85338095Y-38462295D01*
X85680951Y-39224200D02*
X85795237Y-39262295D01*
X85795237Y-39262295D02*
X85985713Y-39262295D01*
X85985713Y-39262295D02*
X86061904Y-39224200D01*
X86061904Y-39224200D02*
X86099999Y-39186104D01*
X86099999Y-39186104D02*
X86138094Y-39109914D01*
X86138094Y-39109914D02*
X86138094Y-39033723D01*
X86138094Y-39033723D02*
X86099999Y-38957533D01*
X86099999Y-38957533D02*
X86061904Y-38919438D01*
X86061904Y-38919438D02*
X85985713Y-38881342D01*
X85985713Y-38881342D02*
X85833332Y-38843247D01*
X85833332Y-38843247D02*
X85757142Y-38805152D01*
X85757142Y-38805152D02*
X85719047Y-38767057D01*
X85719047Y-38767057D02*
X85680951Y-38690866D01*
X85680951Y-38690866D02*
X85680951Y-38614676D01*
X85680951Y-38614676D02*
X85719047Y-38538485D01*
X85719047Y-38538485D02*
X85757142Y-38500390D01*
X85757142Y-38500390D02*
X85833332Y-38462295D01*
X85833332Y-38462295D02*
X86023809Y-38462295D01*
X86023809Y-38462295D02*
X86138094Y-38500390D01*
X86747618Y-38843247D02*
X86861904Y-38881342D01*
X86861904Y-38881342D02*
X86899999Y-38919438D01*
X86899999Y-38919438D02*
X86938095Y-38995628D01*
X86938095Y-38995628D02*
X86938095Y-39109914D01*
X86938095Y-39109914D02*
X86899999Y-39186104D01*
X86899999Y-39186104D02*
X86861904Y-39224200D01*
X86861904Y-39224200D02*
X86785714Y-39262295D01*
X86785714Y-39262295D02*
X86480952Y-39262295D01*
X86480952Y-39262295D02*
X86480952Y-38462295D01*
X86480952Y-38462295D02*
X86747618Y-38462295D01*
X86747618Y-38462295D02*
X86823809Y-38500390D01*
X86823809Y-38500390D02*
X86861904Y-38538485D01*
X86861904Y-38538485D02*
X86899999Y-38614676D01*
X86899999Y-38614676D02*
X86899999Y-38690866D01*
X86899999Y-38690866D02*
X86861904Y-38767057D01*
X86861904Y-38767057D02*
X86823809Y-38805152D01*
X86823809Y-38805152D02*
X86747618Y-38843247D01*
X86747618Y-38843247D02*
X86480952Y-38843247D01*
X87890476Y-39262295D02*
X87890476Y-38462295D01*
X87890476Y-38462295D02*
X88080952Y-38462295D01*
X88080952Y-38462295D02*
X88195238Y-38500390D01*
X88195238Y-38500390D02*
X88271428Y-38576580D01*
X88271428Y-38576580D02*
X88309523Y-38652771D01*
X88309523Y-38652771D02*
X88347619Y-38805152D01*
X88347619Y-38805152D02*
X88347619Y-38919438D01*
X88347619Y-38919438D02*
X88309523Y-39071819D01*
X88309523Y-39071819D02*
X88271428Y-39148009D01*
X88271428Y-39148009D02*
X88195238Y-39224200D01*
X88195238Y-39224200D02*
X88080952Y-39262295D01*
X88080952Y-39262295D02*
X87890476Y-39262295D01*
X88690476Y-38843247D02*
X88957142Y-38843247D01*
X89071428Y-39262295D02*
X88690476Y-39262295D01*
X88690476Y-39262295D02*
X88690476Y-38462295D01*
X88690476Y-38462295D02*
X89071428Y-38462295D01*
X89300000Y-38462295D02*
X89566667Y-39262295D01*
X89566667Y-39262295D02*
X89833333Y-38462295D01*
X60970238Y-14962295D02*
X60970238Y-14162295D01*
X60970238Y-14162295D02*
X61160714Y-14162295D01*
X61160714Y-14162295D02*
X61275000Y-14200390D01*
X61275000Y-14200390D02*
X61351190Y-14276580D01*
X61351190Y-14276580D02*
X61389285Y-14352771D01*
X61389285Y-14352771D02*
X61427381Y-14505152D01*
X61427381Y-14505152D02*
X61427381Y-14619438D01*
X61427381Y-14619438D02*
X61389285Y-14771819D01*
X61389285Y-14771819D02*
X61351190Y-14848009D01*
X61351190Y-14848009D02*
X61275000Y-14924200D01*
X61275000Y-14924200D02*
X61160714Y-14962295D01*
X61160714Y-14962295D02*
X60970238Y-14962295D01*
X61770238Y-14657533D02*
X62379762Y-14657533D01*
X62075000Y-14962295D02*
X62075000Y-14352771D01*
X60970238Y-25862295D02*
X60970238Y-25062295D01*
X60970238Y-25062295D02*
X61160714Y-25062295D01*
X61160714Y-25062295D02*
X61275000Y-25100390D01*
X61275000Y-25100390D02*
X61351190Y-25176580D01*
X61351190Y-25176580D02*
X61389285Y-25252771D01*
X61389285Y-25252771D02*
X61427381Y-25405152D01*
X61427381Y-25405152D02*
X61427381Y-25519438D01*
X61427381Y-25519438D02*
X61389285Y-25671819D01*
X61389285Y-25671819D02*
X61351190Y-25748009D01*
X61351190Y-25748009D02*
X61275000Y-25824200D01*
X61275000Y-25824200D02*
X61160714Y-25862295D01*
X61160714Y-25862295D02*
X60970238Y-25862295D01*
X61770238Y-25557533D02*
X62379762Y-25557533D01*
X10976190Y-8112295D02*
X10595238Y-8112295D01*
X10595238Y-8112295D02*
X10557142Y-8493247D01*
X10557142Y-8493247D02*
X10595238Y-8455152D01*
X10595238Y-8455152D02*
X10671428Y-8417057D01*
X10671428Y-8417057D02*
X10861904Y-8417057D01*
X10861904Y-8417057D02*
X10938095Y-8455152D01*
X10938095Y-8455152D02*
X10976190Y-8493247D01*
X10976190Y-8493247D02*
X11014285Y-8569438D01*
X11014285Y-8569438D02*
X11014285Y-8759914D01*
X11014285Y-8759914D02*
X10976190Y-8836104D01*
X10976190Y-8836104D02*
X10938095Y-8874200D01*
X10938095Y-8874200D02*
X10861904Y-8912295D01*
X10861904Y-8912295D02*
X10671428Y-8912295D01*
X10671428Y-8912295D02*
X10595238Y-8874200D01*
X10595238Y-8874200D02*
X10557142Y-8836104D01*
X11242857Y-8112295D02*
X11509524Y-8912295D01*
X11509524Y-8912295D02*
X11776190Y-8112295D01*
X12614285Y-8874200D02*
X12728571Y-8912295D01*
X12728571Y-8912295D02*
X12919047Y-8912295D01*
X12919047Y-8912295D02*
X12995238Y-8874200D01*
X12995238Y-8874200D02*
X13033333Y-8836104D01*
X13033333Y-8836104D02*
X13071428Y-8759914D01*
X13071428Y-8759914D02*
X13071428Y-8683723D01*
X13071428Y-8683723D02*
X13033333Y-8607533D01*
X13033333Y-8607533D02*
X12995238Y-8569438D01*
X12995238Y-8569438D02*
X12919047Y-8531342D01*
X12919047Y-8531342D02*
X12766666Y-8493247D01*
X12766666Y-8493247D02*
X12690476Y-8455152D01*
X12690476Y-8455152D02*
X12652381Y-8417057D01*
X12652381Y-8417057D02*
X12614285Y-8340866D01*
X12614285Y-8340866D02*
X12614285Y-8264676D01*
X12614285Y-8264676D02*
X12652381Y-8188485D01*
X12652381Y-8188485D02*
X12690476Y-8150390D01*
X12690476Y-8150390D02*
X12766666Y-8112295D01*
X12766666Y-8112295D02*
X12957143Y-8112295D01*
X12957143Y-8112295D02*
X13071428Y-8150390D01*
X13414286Y-8493247D02*
X13680952Y-8493247D01*
X13795238Y-8912295D02*
X13414286Y-8912295D01*
X13414286Y-8912295D02*
X13414286Y-8112295D01*
X13414286Y-8112295D02*
X13795238Y-8112295D01*
X14519048Y-8912295D02*
X14138096Y-8912295D01*
X14138096Y-8912295D02*
X14138096Y-8112295D01*
X15233333Y-5862295D02*
X14852381Y-5862295D01*
X14852381Y-5862295D02*
X14814285Y-6243247D01*
X14814285Y-6243247D02*
X14852381Y-6205152D01*
X14852381Y-6205152D02*
X14928571Y-6167057D01*
X14928571Y-6167057D02*
X15119047Y-6167057D01*
X15119047Y-6167057D02*
X15195238Y-6205152D01*
X15195238Y-6205152D02*
X15233333Y-6243247D01*
X15233333Y-6243247D02*
X15271428Y-6319438D01*
X15271428Y-6319438D02*
X15271428Y-6509914D01*
X15271428Y-6509914D02*
X15233333Y-6586104D01*
X15233333Y-6586104D02*
X15195238Y-6624200D01*
X15195238Y-6624200D02*
X15119047Y-6662295D01*
X15119047Y-6662295D02*
X14928571Y-6662295D01*
X14928571Y-6662295D02*
X14852381Y-6624200D01*
X14852381Y-6624200D02*
X14814285Y-6586104D01*
X15500000Y-5862295D02*
X15766667Y-6662295D01*
X15766667Y-6662295D02*
X16033333Y-5862295D01*
X16909524Y-6662295D02*
X16909524Y-5862295D01*
X17290476Y-6662295D02*
X17290476Y-5862295D01*
X17290476Y-5862295D02*
X17747619Y-6662295D01*
X17747619Y-6662295D02*
X17747619Y-5862295D01*
X14574874Y-12412295D02*
X14841541Y-13212295D01*
X14841541Y-13212295D02*
X15108207Y-12412295D01*
X15641540Y-12793247D02*
X15755826Y-12831342D01*
X15755826Y-12831342D02*
X15793921Y-12869438D01*
X15793921Y-12869438D02*
X15832017Y-12945628D01*
X15832017Y-12945628D02*
X15832017Y-13059914D01*
X15832017Y-13059914D02*
X15793921Y-13136104D01*
X15793921Y-13136104D02*
X15755826Y-13174200D01*
X15755826Y-13174200D02*
X15679636Y-13212295D01*
X15679636Y-13212295D02*
X15374874Y-13212295D01*
X15374874Y-13212295D02*
X15374874Y-12412295D01*
X15374874Y-12412295D02*
X15641540Y-12412295D01*
X15641540Y-12412295D02*
X15717731Y-12450390D01*
X15717731Y-12450390D02*
X15755826Y-12488485D01*
X15755826Y-12488485D02*
X15793921Y-12564676D01*
X15793921Y-12564676D02*
X15793921Y-12640866D01*
X15793921Y-12640866D02*
X15755826Y-12717057D01*
X15755826Y-12717057D02*
X15717731Y-12755152D01*
X15717731Y-12755152D02*
X15641540Y-12793247D01*
X15641540Y-12793247D02*
X15374874Y-12793247D01*
X16174874Y-12412295D02*
X16174874Y-13059914D01*
X16174874Y-13059914D02*
X16212969Y-13136104D01*
X16212969Y-13136104D02*
X16251064Y-13174200D01*
X16251064Y-13174200D02*
X16327255Y-13212295D01*
X16327255Y-13212295D02*
X16479636Y-13212295D01*
X16479636Y-13212295D02*
X16555826Y-13174200D01*
X16555826Y-13174200D02*
X16593921Y-13136104D01*
X16593921Y-13136104D02*
X16632017Y-13059914D01*
X16632017Y-13059914D02*
X16632017Y-12412295D01*
X16974873Y-13174200D02*
X17089159Y-13212295D01*
X17089159Y-13212295D02*
X17279635Y-13212295D01*
X17279635Y-13212295D02*
X17355826Y-13174200D01*
X17355826Y-13174200D02*
X17393921Y-13136104D01*
X17393921Y-13136104D02*
X17432016Y-13059914D01*
X17432016Y-13059914D02*
X17432016Y-12983723D01*
X17432016Y-12983723D02*
X17393921Y-12907533D01*
X17393921Y-12907533D02*
X17355826Y-12869438D01*
X17355826Y-12869438D02*
X17279635Y-12831342D01*
X17279635Y-12831342D02*
X17127254Y-12793247D01*
X17127254Y-12793247D02*
X17051064Y-12755152D01*
X17051064Y-12755152D02*
X17012969Y-12717057D01*
X17012969Y-12717057D02*
X16974873Y-12640866D01*
X16974873Y-12640866D02*
X16974873Y-12564676D01*
X16974873Y-12564676D02*
X17012969Y-12488485D01*
X17012969Y-12488485D02*
X17051064Y-12450390D01*
X17051064Y-12450390D02*
X17127254Y-12412295D01*
X17127254Y-12412295D02*
X17317731Y-12412295D01*
X17317731Y-12412295D02*
X17432016Y-12450390D01*
X62619047Y-4754819D02*
X62285714Y-4278628D01*
X62047619Y-4754819D02*
X62047619Y-3754819D01*
X62047619Y-3754819D02*
X62428571Y-3754819D01*
X62428571Y-3754819D02*
X62523809Y-3802438D01*
X62523809Y-3802438D02*
X62571428Y-3850057D01*
X62571428Y-3850057D02*
X62619047Y-3945295D01*
X62619047Y-3945295D02*
X62619047Y-4088152D01*
X62619047Y-4088152D02*
X62571428Y-4183390D01*
X62571428Y-4183390D02*
X62523809Y-4231009D01*
X62523809Y-4231009D02*
X62428571Y-4278628D01*
X62428571Y-4278628D02*
X62047619Y-4278628D01*
X63047619Y-4231009D02*
X63380952Y-4231009D01*
X63523809Y-4754819D02*
X63047619Y-4754819D01*
X63047619Y-4754819D02*
X63047619Y-3754819D01*
X63047619Y-3754819D02*
X63523809Y-3754819D01*
X63809524Y-3754819D02*
X64142857Y-4754819D01*
X64142857Y-4754819D02*
X64476190Y-3754819D01*
X65523810Y-4469104D02*
X66000000Y-4469104D01*
X65428572Y-4754819D02*
X65761905Y-3754819D01*
X65761905Y-3754819D02*
X66095238Y-4754819D01*
X69509523Y-25000390D02*
X69433333Y-24962295D01*
X69433333Y-24962295D02*
X69319047Y-24962295D01*
X69319047Y-24962295D02*
X69204761Y-25000390D01*
X69204761Y-25000390D02*
X69128571Y-25076580D01*
X69128571Y-25076580D02*
X69090476Y-25152771D01*
X69090476Y-25152771D02*
X69052380Y-25305152D01*
X69052380Y-25305152D02*
X69052380Y-25419438D01*
X69052380Y-25419438D02*
X69090476Y-25571819D01*
X69090476Y-25571819D02*
X69128571Y-25648009D01*
X69128571Y-25648009D02*
X69204761Y-25724200D01*
X69204761Y-25724200D02*
X69319047Y-25762295D01*
X69319047Y-25762295D02*
X69395238Y-25762295D01*
X69395238Y-25762295D02*
X69509523Y-25724200D01*
X69509523Y-25724200D02*
X69547619Y-25686104D01*
X69547619Y-25686104D02*
X69547619Y-25419438D01*
X69547619Y-25419438D02*
X69395238Y-25419438D01*
X77161905Y-11162295D02*
X77161905Y-11809914D01*
X77161905Y-11809914D02*
X77200000Y-11886104D01*
X77200000Y-11886104D02*
X77238095Y-11924200D01*
X77238095Y-11924200D02*
X77314286Y-11962295D01*
X77314286Y-11962295D02*
X77466667Y-11962295D01*
X77466667Y-11962295D02*
X77542857Y-11924200D01*
X77542857Y-11924200D02*
X77580952Y-11886104D01*
X77580952Y-11886104D02*
X77619048Y-11809914D01*
X77619048Y-11809914D02*
X77619048Y-11162295D01*
X77961904Y-11924200D02*
X78076190Y-11962295D01*
X78076190Y-11962295D02*
X78266666Y-11962295D01*
X78266666Y-11962295D02*
X78342857Y-11924200D01*
X78342857Y-11924200D02*
X78380952Y-11886104D01*
X78380952Y-11886104D02*
X78419047Y-11809914D01*
X78419047Y-11809914D02*
X78419047Y-11733723D01*
X78419047Y-11733723D02*
X78380952Y-11657533D01*
X78380952Y-11657533D02*
X78342857Y-11619438D01*
X78342857Y-11619438D02*
X78266666Y-11581342D01*
X78266666Y-11581342D02*
X78114285Y-11543247D01*
X78114285Y-11543247D02*
X78038095Y-11505152D01*
X78038095Y-11505152D02*
X78000000Y-11467057D01*
X78000000Y-11467057D02*
X77961904Y-11390866D01*
X77961904Y-11390866D02*
X77961904Y-11314676D01*
X77961904Y-11314676D02*
X78000000Y-11238485D01*
X78000000Y-11238485D02*
X78038095Y-11200390D01*
X78038095Y-11200390D02*
X78114285Y-11162295D01*
X78114285Y-11162295D02*
X78304762Y-11162295D01*
X78304762Y-11162295D02*
X78419047Y-11200390D01*
X79028571Y-11543247D02*
X79142857Y-11581342D01*
X79142857Y-11581342D02*
X79180952Y-11619438D01*
X79180952Y-11619438D02*
X79219048Y-11695628D01*
X79219048Y-11695628D02*
X79219048Y-11809914D01*
X79219048Y-11809914D02*
X79180952Y-11886104D01*
X79180952Y-11886104D02*
X79142857Y-11924200D01*
X79142857Y-11924200D02*
X79066667Y-11962295D01*
X79066667Y-11962295D02*
X78761905Y-11962295D01*
X78761905Y-11962295D02*
X78761905Y-11162295D01*
X78761905Y-11162295D02*
X79028571Y-11162295D01*
X79028571Y-11162295D02*
X79104762Y-11200390D01*
X79104762Y-11200390D02*
X79142857Y-11238485D01*
X79142857Y-11238485D02*
X79180952Y-11314676D01*
X79180952Y-11314676D02*
X79180952Y-11390866D01*
X79180952Y-11390866D02*
X79142857Y-11467057D01*
X79142857Y-11467057D02*
X79104762Y-11505152D01*
X79104762Y-11505152D02*
X79028571Y-11543247D01*
X79028571Y-11543247D02*
X78761905Y-11543247D01*
X80171429Y-11962295D02*
X80171429Y-11162295D01*
X80171429Y-11543247D02*
X80628572Y-11543247D01*
X80628572Y-11962295D02*
X80628572Y-11162295D01*
X81161905Y-11162295D02*
X81314286Y-11162295D01*
X81314286Y-11162295D02*
X81390476Y-11200390D01*
X81390476Y-11200390D02*
X81466667Y-11276580D01*
X81466667Y-11276580D02*
X81504762Y-11428961D01*
X81504762Y-11428961D02*
X81504762Y-11695628D01*
X81504762Y-11695628D02*
X81466667Y-11848009D01*
X81466667Y-11848009D02*
X81390476Y-11924200D01*
X81390476Y-11924200D02*
X81314286Y-11962295D01*
X81314286Y-11962295D02*
X81161905Y-11962295D01*
X81161905Y-11962295D02*
X81085714Y-11924200D01*
X81085714Y-11924200D02*
X81009524Y-11848009D01*
X81009524Y-11848009D02*
X80971428Y-11695628D01*
X80971428Y-11695628D02*
X80971428Y-11428961D01*
X80971428Y-11428961D02*
X81009524Y-11276580D01*
X81009524Y-11276580D02*
X81085714Y-11200390D01*
X81085714Y-11200390D02*
X81161905Y-11162295D01*
X81809523Y-11924200D02*
X81923809Y-11962295D01*
X81923809Y-11962295D02*
X82114285Y-11962295D01*
X82114285Y-11962295D02*
X82190476Y-11924200D01*
X82190476Y-11924200D02*
X82228571Y-11886104D01*
X82228571Y-11886104D02*
X82266666Y-11809914D01*
X82266666Y-11809914D02*
X82266666Y-11733723D01*
X82266666Y-11733723D02*
X82228571Y-11657533D01*
X82228571Y-11657533D02*
X82190476Y-11619438D01*
X82190476Y-11619438D02*
X82114285Y-11581342D01*
X82114285Y-11581342D02*
X81961904Y-11543247D01*
X81961904Y-11543247D02*
X81885714Y-11505152D01*
X81885714Y-11505152D02*
X81847619Y-11467057D01*
X81847619Y-11467057D02*
X81809523Y-11390866D01*
X81809523Y-11390866D02*
X81809523Y-11314676D01*
X81809523Y-11314676D02*
X81847619Y-11238485D01*
X81847619Y-11238485D02*
X81885714Y-11200390D01*
X81885714Y-11200390D02*
X81961904Y-11162295D01*
X81961904Y-11162295D02*
X82152381Y-11162295D01*
X82152381Y-11162295D02*
X82266666Y-11200390D01*
X82495238Y-11162295D02*
X82952381Y-11162295D01*
X82723809Y-11962295D02*
X82723809Y-11162295D01*
X72628571Y-1762295D02*
X72628571Y-2409914D01*
X72628571Y-2409914D02*
X72666666Y-2486104D01*
X72666666Y-2486104D02*
X72704761Y-2524200D01*
X72704761Y-2524200D02*
X72780952Y-2562295D01*
X72780952Y-2562295D02*
X72933333Y-2562295D01*
X72933333Y-2562295D02*
X73009523Y-2524200D01*
X73009523Y-2524200D02*
X73047618Y-2486104D01*
X73047618Y-2486104D02*
X73085714Y-2409914D01*
X73085714Y-2409914D02*
X73085714Y-1762295D01*
X73428570Y-2524200D02*
X73542856Y-2562295D01*
X73542856Y-2562295D02*
X73733332Y-2562295D01*
X73733332Y-2562295D02*
X73809523Y-2524200D01*
X73809523Y-2524200D02*
X73847618Y-2486104D01*
X73847618Y-2486104D02*
X73885713Y-2409914D01*
X73885713Y-2409914D02*
X73885713Y-2333723D01*
X73885713Y-2333723D02*
X73847618Y-2257533D01*
X73847618Y-2257533D02*
X73809523Y-2219438D01*
X73809523Y-2219438D02*
X73733332Y-2181342D01*
X73733332Y-2181342D02*
X73580951Y-2143247D01*
X73580951Y-2143247D02*
X73504761Y-2105152D01*
X73504761Y-2105152D02*
X73466666Y-2067057D01*
X73466666Y-2067057D02*
X73428570Y-1990866D01*
X73428570Y-1990866D02*
X73428570Y-1914676D01*
X73428570Y-1914676D02*
X73466666Y-1838485D01*
X73466666Y-1838485D02*
X73504761Y-1800390D01*
X73504761Y-1800390D02*
X73580951Y-1762295D01*
X73580951Y-1762295D02*
X73771428Y-1762295D01*
X73771428Y-1762295D02*
X73885713Y-1800390D01*
X74228571Y-2143247D02*
X74495237Y-2143247D01*
X74609523Y-2562295D02*
X74228571Y-2562295D01*
X74228571Y-2562295D02*
X74228571Y-1762295D01*
X74228571Y-1762295D02*
X74609523Y-1762295D01*
X75409524Y-2562295D02*
X75142857Y-2181342D01*
X74952381Y-2562295D02*
X74952381Y-1762295D01*
X74952381Y-1762295D02*
X75257143Y-1762295D01*
X75257143Y-1762295D02*
X75333333Y-1800390D01*
X75333333Y-1800390D02*
X75371428Y-1838485D01*
X75371428Y-1838485D02*
X75409524Y-1914676D01*
X75409524Y-1914676D02*
X75409524Y-2028961D01*
X75409524Y-2028961D02*
X75371428Y-2105152D01*
X75371428Y-2105152D02*
X75333333Y-2143247D01*
X75333333Y-2143247D02*
X75257143Y-2181342D01*
X75257143Y-2181342D02*
X74952381Y-2181342D01*
X6691791Y-12412295D02*
X6691791Y-12983723D01*
X6691791Y-12983723D02*
X6653696Y-13098009D01*
X6653696Y-13098009D02*
X6577505Y-13174200D01*
X6577505Y-13174200D02*
X6463220Y-13212295D01*
X6463220Y-13212295D02*
X6387029Y-13212295D01*
X6958458Y-12412295D02*
X7415601Y-12412295D01*
X7187029Y-13212295D02*
X7187029Y-12412295D01*
X8139411Y-13212295D02*
X7872744Y-12831342D01*
X7682268Y-13212295D02*
X7682268Y-12412295D01*
X7682268Y-12412295D02*
X7987030Y-12412295D01*
X7987030Y-12412295D02*
X8063220Y-12450390D01*
X8063220Y-12450390D02*
X8101315Y-12488485D01*
X8101315Y-12488485D02*
X8139411Y-12564676D01*
X8139411Y-12564676D02*
X8139411Y-12678961D01*
X8139411Y-12678961D02*
X8101315Y-12755152D01*
X8101315Y-12755152D02*
X8063220Y-12793247D01*
X8063220Y-12793247D02*
X7987030Y-12831342D01*
X7987030Y-12831342D02*
X7682268Y-12831342D01*
X8444172Y-12983723D02*
X8825125Y-12983723D01*
X8367982Y-13212295D02*
X8634649Y-12412295D01*
X8634649Y-12412295D02*
X8901315Y-13212295D01*
X9625125Y-13136104D02*
X9587029Y-13174200D01*
X9587029Y-13174200D02*
X9472744Y-13212295D01*
X9472744Y-13212295D02*
X9396553Y-13212295D01*
X9396553Y-13212295D02*
X9282267Y-13174200D01*
X9282267Y-13174200D02*
X9206077Y-13098009D01*
X9206077Y-13098009D02*
X9167982Y-13021819D01*
X9167982Y-13021819D02*
X9129886Y-12869438D01*
X9129886Y-12869438D02*
X9129886Y-12755152D01*
X9129886Y-12755152D02*
X9167982Y-12602771D01*
X9167982Y-12602771D02*
X9206077Y-12526580D01*
X9206077Y-12526580D02*
X9282267Y-12450390D01*
X9282267Y-12450390D02*
X9396553Y-12412295D01*
X9396553Y-12412295D02*
X9472744Y-12412295D01*
X9472744Y-12412295D02*
X9587029Y-12450390D01*
X9587029Y-12450390D02*
X9625125Y-12488485D01*
X9967982Y-12793247D02*
X10234648Y-12793247D01*
X10348934Y-13212295D02*
X9967982Y-13212295D01*
X9967982Y-13212295D02*
X9967982Y-12412295D01*
X9967982Y-12412295D02*
X10348934Y-12412295D01*
X28094018Y-17522980D02*
X28094018Y-18094408D01*
X28094018Y-18094408D02*
X28055923Y-18208694D01*
X28055923Y-18208694D02*
X27979732Y-18284885D01*
X27979732Y-18284885D02*
X27865447Y-18322980D01*
X27865447Y-18322980D02*
X27789256Y-18322980D01*
X28436875Y-17599170D02*
X28474971Y-17561075D01*
X28474971Y-17561075D02*
X28551161Y-17522980D01*
X28551161Y-17522980D02*
X28741637Y-17522980D01*
X28741637Y-17522980D02*
X28817828Y-17561075D01*
X28817828Y-17561075D02*
X28855923Y-17599170D01*
X28855923Y-17599170D02*
X28894018Y-17675361D01*
X28894018Y-17675361D02*
X28894018Y-17751551D01*
X28894018Y-17751551D02*
X28855923Y-17865837D01*
X28855923Y-17865837D02*
X28398780Y-18322980D01*
X28398780Y-18322980D02*
X28894018Y-18322980D01*
X29503542Y-17903932D02*
X29617828Y-17942027D01*
X29617828Y-17942027D02*
X29655923Y-17980123D01*
X29655923Y-17980123D02*
X29694019Y-18056313D01*
X29694019Y-18056313D02*
X29694019Y-18170599D01*
X29694019Y-18170599D02*
X29655923Y-18246789D01*
X29655923Y-18246789D02*
X29617828Y-18284885D01*
X29617828Y-18284885D02*
X29541638Y-18322980D01*
X29541638Y-18322980D02*
X29236876Y-18322980D01*
X29236876Y-18322980D02*
X29236876Y-17522980D01*
X29236876Y-17522980D02*
X29503542Y-17522980D01*
X29503542Y-17522980D02*
X29579733Y-17561075D01*
X29579733Y-17561075D02*
X29617828Y-17599170D01*
X29617828Y-17599170D02*
X29655923Y-17675361D01*
X29655923Y-17675361D02*
X29655923Y-17751551D01*
X29655923Y-17751551D02*
X29617828Y-17827742D01*
X29617828Y-17827742D02*
X29579733Y-17865837D01*
X29579733Y-17865837D02*
X29503542Y-17903932D01*
X29503542Y-17903932D02*
X29236876Y-17903932D01*
X7933095Y-19267295D02*
X7933095Y-18467295D01*
X7933095Y-18467295D02*
X8123571Y-18467295D01*
X8123571Y-18467295D02*
X8237857Y-18505390D01*
X8237857Y-18505390D02*
X8314047Y-18581580D01*
X8314047Y-18581580D02*
X8352142Y-18657771D01*
X8352142Y-18657771D02*
X8390238Y-18810152D01*
X8390238Y-18810152D02*
X8390238Y-18924438D01*
X8390238Y-18924438D02*
X8352142Y-19076819D01*
X8352142Y-19076819D02*
X8314047Y-19153009D01*
X8314047Y-19153009D02*
X8237857Y-19229200D01*
X8237857Y-19229200D02*
X8123571Y-19267295D01*
X8123571Y-19267295D02*
X7933095Y-19267295D01*
X8542619Y-19343485D02*
X9152142Y-19343485D01*
X9228333Y-18467295D02*
X9495000Y-19267295D01*
X9495000Y-19267295D02*
X9761666Y-18467295D01*
X9990237Y-19229200D02*
X10104523Y-19267295D01*
X10104523Y-19267295D02*
X10294999Y-19267295D01*
X10294999Y-19267295D02*
X10371190Y-19229200D01*
X10371190Y-19229200D02*
X10409285Y-19191104D01*
X10409285Y-19191104D02*
X10447380Y-19114914D01*
X10447380Y-19114914D02*
X10447380Y-19038723D01*
X10447380Y-19038723D02*
X10409285Y-18962533D01*
X10409285Y-18962533D02*
X10371190Y-18924438D01*
X10371190Y-18924438D02*
X10294999Y-18886342D01*
X10294999Y-18886342D02*
X10142618Y-18848247D01*
X10142618Y-18848247D02*
X10066428Y-18810152D01*
X10066428Y-18810152D02*
X10028333Y-18772057D01*
X10028333Y-18772057D02*
X9990237Y-18695866D01*
X9990237Y-18695866D02*
X9990237Y-18619676D01*
X9990237Y-18619676D02*
X10028333Y-18543485D01*
X10028333Y-18543485D02*
X10066428Y-18505390D01*
X10066428Y-18505390D02*
X10142618Y-18467295D01*
X10142618Y-18467295D02*
X10333095Y-18467295D01*
X10333095Y-18467295D02*
X10447380Y-18505390D01*
X10942619Y-18886342D02*
X10942619Y-19267295D01*
X10675952Y-18467295D02*
X10942619Y-18886342D01*
X10942619Y-18886342D02*
X11209285Y-18467295D01*
X11437856Y-19229200D02*
X11552142Y-19267295D01*
X11552142Y-19267295D02*
X11742618Y-19267295D01*
X11742618Y-19267295D02*
X11818809Y-19229200D01*
X11818809Y-19229200D02*
X11856904Y-19191104D01*
X11856904Y-19191104D02*
X11894999Y-19114914D01*
X11894999Y-19114914D02*
X11894999Y-19038723D01*
X11894999Y-19038723D02*
X11856904Y-18962533D01*
X11856904Y-18962533D02*
X11818809Y-18924438D01*
X11818809Y-18924438D02*
X11742618Y-18886342D01*
X11742618Y-18886342D02*
X11590237Y-18848247D01*
X11590237Y-18848247D02*
X11514047Y-18810152D01*
X11514047Y-18810152D02*
X11475952Y-18772057D01*
X11475952Y-18772057D02*
X11437856Y-18695866D01*
X11437856Y-18695866D02*
X11437856Y-18619676D01*
X11437856Y-18619676D02*
X11475952Y-18543485D01*
X11475952Y-18543485D02*
X11514047Y-18505390D01*
X11514047Y-18505390D02*
X11590237Y-18467295D01*
X11590237Y-18467295D02*
X11780714Y-18467295D01*
X11780714Y-18467295D02*
X11894999Y-18505390D01*
X59475751Y-43959630D02*
X59209084Y-43578677D01*
X59018608Y-43959630D02*
X59018608Y-43159630D01*
X59018608Y-43159630D02*
X59323370Y-43159630D01*
X59323370Y-43159630D02*
X59399560Y-43197725D01*
X59399560Y-43197725D02*
X59437655Y-43235820D01*
X59437655Y-43235820D02*
X59475751Y-43312011D01*
X59475751Y-43312011D02*
X59475751Y-43426296D01*
X59475751Y-43426296D02*
X59437655Y-43502487D01*
X59437655Y-43502487D02*
X59399560Y-43540582D01*
X59399560Y-43540582D02*
X59323370Y-43578677D01*
X59323370Y-43578677D02*
X59018608Y-43578677D01*
X59628132Y-44035820D02*
X60237655Y-44035820D01*
X60428132Y-43959630D02*
X60428132Y-43159630D01*
X60428132Y-43540582D02*
X60885275Y-43540582D01*
X60885275Y-43959630D02*
X60885275Y-43159630D01*
X61151941Y-43159630D02*
X61418608Y-43959630D01*
X61418608Y-43959630D02*
X61685274Y-43159630D01*
X61951941Y-43540582D02*
X62218607Y-43540582D01*
X62332893Y-43959630D02*
X61951941Y-43959630D01*
X61951941Y-43959630D02*
X61951941Y-43159630D01*
X61951941Y-43159630D02*
X62332893Y-43159630D01*
X62675751Y-43959630D02*
X62675751Y-43159630D01*
X62675751Y-43159630D02*
X63132894Y-43959630D01*
X63132894Y-43959630D02*
X63132894Y-43159630D01*
X63323370Y-44035820D02*
X63932893Y-44035820D01*
X64123370Y-43959630D02*
X64123370Y-43159630D01*
X64123370Y-43159630D02*
X64428132Y-43159630D01*
X64428132Y-43159630D02*
X64504322Y-43197725D01*
X64504322Y-43197725D02*
X64542417Y-43235820D01*
X64542417Y-43235820D02*
X64580513Y-43312011D01*
X64580513Y-43312011D02*
X64580513Y-43426296D01*
X64580513Y-43426296D02*
X64542417Y-43502487D01*
X64542417Y-43502487D02*
X64504322Y-43540582D01*
X64504322Y-43540582D02*
X64428132Y-43578677D01*
X64428132Y-43578677D02*
X64123370Y-43578677D01*
X64923370Y-43959630D02*
X64923370Y-43159630D01*
X64923370Y-43159630D02*
X65113846Y-43159630D01*
X65113846Y-43159630D02*
X65228132Y-43197725D01*
X65228132Y-43197725D02*
X65304322Y-43273915D01*
X65304322Y-43273915D02*
X65342417Y-43350106D01*
X65342417Y-43350106D02*
X65380513Y-43502487D01*
X65380513Y-43502487D02*
X65380513Y-43616773D01*
X65380513Y-43616773D02*
X65342417Y-43769154D01*
X65342417Y-43769154D02*
X65304322Y-43845344D01*
X65304322Y-43845344D02*
X65228132Y-43921535D01*
X65228132Y-43921535D02*
X65113846Y-43959630D01*
X65113846Y-43959630D02*
X64923370Y-43959630D01*
X65872266Y-55331228D02*
X65872266Y-55902656D01*
X65872266Y-55902656D02*
X65834171Y-56016942D01*
X65834171Y-56016942D02*
X65757980Y-56093133D01*
X65757980Y-56093133D02*
X65643695Y-56131228D01*
X65643695Y-56131228D02*
X65567504Y-56131228D01*
X66177028Y-55331228D02*
X66710362Y-55331228D01*
X66710362Y-55331228D02*
X66367504Y-56131228D01*
X71229264Y-45046474D02*
X70962597Y-44665521D01*
X70772121Y-45046474D02*
X70772121Y-44246474D01*
X70772121Y-44246474D02*
X71076883Y-44246474D01*
X71076883Y-44246474D02*
X71153073Y-44284569D01*
X71153073Y-44284569D02*
X71191168Y-44322664D01*
X71191168Y-44322664D02*
X71229264Y-44398855D01*
X71229264Y-44398855D02*
X71229264Y-44513140D01*
X71229264Y-44513140D02*
X71191168Y-44589331D01*
X71191168Y-44589331D02*
X71153073Y-44627426D01*
X71153073Y-44627426D02*
X71076883Y-44665521D01*
X71076883Y-44665521D02*
X70772121Y-44665521D01*
X71381645Y-45122664D02*
X71991168Y-45122664D01*
X72181645Y-45046474D02*
X72181645Y-44246474D01*
X72181645Y-44246474D02*
X72372121Y-44246474D01*
X72372121Y-44246474D02*
X72486407Y-44284569D01*
X72486407Y-44284569D02*
X72562597Y-44360759D01*
X72562597Y-44360759D02*
X72600692Y-44436950D01*
X72600692Y-44436950D02*
X72638788Y-44589331D01*
X72638788Y-44589331D02*
X72638788Y-44703617D01*
X72638788Y-44703617D02*
X72600692Y-44855998D01*
X72600692Y-44855998D02*
X72562597Y-44932188D01*
X72562597Y-44932188D02*
X72486407Y-45008379D01*
X72486407Y-45008379D02*
X72372121Y-45046474D01*
X72372121Y-45046474D02*
X72181645Y-45046474D01*
X72981645Y-45046474D02*
X72981645Y-44246474D01*
X72981645Y-44246474D02*
X73172121Y-44246474D01*
X73172121Y-44246474D02*
X73286407Y-44284569D01*
X73286407Y-44284569D02*
X73362597Y-44360759D01*
X73362597Y-44360759D02*
X73400692Y-44436950D01*
X73400692Y-44436950D02*
X73438788Y-44589331D01*
X73438788Y-44589331D02*
X73438788Y-44703617D01*
X73438788Y-44703617D02*
X73400692Y-44855998D01*
X73400692Y-44855998D02*
X73362597Y-44932188D01*
X73362597Y-44932188D02*
X73286407Y-45008379D01*
X73286407Y-45008379D02*
X73172121Y-45046474D01*
X73172121Y-45046474D02*
X72981645Y-45046474D01*
X73781645Y-45046474D02*
X73781645Y-44246474D01*
X73781645Y-44246474D02*
X74086407Y-44246474D01*
X74086407Y-44246474D02*
X74162597Y-44284569D01*
X74162597Y-44284569D02*
X74200692Y-44322664D01*
X74200692Y-44322664D02*
X74238788Y-44398855D01*
X74238788Y-44398855D02*
X74238788Y-44513140D01*
X74238788Y-44513140D02*
X74200692Y-44589331D01*
X74200692Y-44589331D02*
X74162597Y-44627426D01*
X74162597Y-44627426D02*
X74086407Y-44665521D01*
X74086407Y-44665521D02*
X73781645Y-44665521D01*
X84926904Y-53362295D02*
X84660237Y-52981342D01*
X84469761Y-53362295D02*
X84469761Y-52562295D01*
X84469761Y-52562295D02*
X84774523Y-52562295D01*
X84774523Y-52562295D02*
X84850713Y-52600390D01*
X84850713Y-52600390D02*
X84888808Y-52638485D01*
X84888808Y-52638485D02*
X84926904Y-52714676D01*
X84926904Y-52714676D02*
X84926904Y-52828961D01*
X84926904Y-52828961D02*
X84888808Y-52905152D01*
X84888808Y-52905152D02*
X84850713Y-52943247D01*
X84850713Y-52943247D02*
X84774523Y-52981342D01*
X84774523Y-52981342D02*
X84469761Y-52981342D01*
X85079285Y-53438485D02*
X85688808Y-53438485D01*
X86336428Y-53286104D02*
X86298332Y-53324200D01*
X86298332Y-53324200D02*
X86184047Y-53362295D01*
X86184047Y-53362295D02*
X86107856Y-53362295D01*
X86107856Y-53362295D02*
X85993570Y-53324200D01*
X85993570Y-53324200D02*
X85917380Y-53248009D01*
X85917380Y-53248009D02*
X85879285Y-53171819D01*
X85879285Y-53171819D02*
X85841189Y-53019438D01*
X85841189Y-53019438D02*
X85841189Y-52905152D01*
X85841189Y-52905152D02*
X85879285Y-52752771D01*
X85879285Y-52752771D02*
X85917380Y-52676580D01*
X85917380Y-52676580D02*
X85993570Y-52600390D01*
X85993570Y-52600390D02*
X86107856Y-52562295D01*
X86107856Y-52562295D02*
X86184047Y-52562295D01*
X86184047Y-52562295D02*
X86298332Y-52600390D01*
X86298332Y-52600390D02*
X86336428Y-52638485D01*
X87136428Y-53286104D02*
X87098332Y-53324200D01*
X87098332Y-53324200D02*
X86984047Y-53362295D01*
X86984047Y-53362295D02*
X86907856Y-53362295D01*
X86907856Y-53362295D02*
X86793570Y-53324200D01*
X86793570Y-53324200D02*
X86717380Y-53248009D01*
X86717380Y-53248009D02*
X86679285Y-53171819D01*
X86679285Y-53171819D02*
X86641189Y-53019438D01*
X86641189Y-53019438D02*
X86641189Y-52905152D01*
X86641189Y-52905152D02*
X86679285Y-52752771D01*
X86679285Y-52752771D02*
X86717380Y-52676580D01*
X86717380Y-52676580D02*
X86793570Y-52600390D01*
X86793570Y-52600390D02*
X86907856Y-52562295D01*
X86907856Y-52562295D02*
X86984047Y-52562295D01*
X86984047Y-52562295D02*
X87098332Y-52600390D01*
X87098332Y-52600390D02*
X87136428Y-52638485D01*
X87822142Y-52828961D02*
X87822142Y-53362295D01*
X87631666Y-52524200D02*
X87441189Y-53095628D01*
X87441189Y-53095628D02*
X87936428Y-53095628D01*
X83188332Y-60279200D02*
X83302618Y-60317295D01*
X83302618Y-60317295D02*
X83493094Y-60317295D01*
X83493094Y-60317295D02*
X83569285Y-60279200D01*
X83569285Y-60279200D02*
X83607380Y-60241104D01*
X83607380Y-60241104D02*
X83645475Y-60164914D01*
X83645475Y-60164914D02*
X83645475Y-60088723D01*
X83645475Y-60088723D02*
X83607380Y-60012533D01*
X83607380Y-60012533D02*
X83569285Y-59974438D01*
X83569285Y-59974438D02*
X83493094Y-59936342D01*
X83493094Y-59936342D02*
X83340713Y-59898247D01*
X83340713Y-59898247D02*
X83264523Y-59860152D01*
X83264523Y-59860152D02*
X83226428Y-59822057D01*
X83226428Y-59822057D02*
X83188332Y-59745866D01*
X83188332Y-59745866D02*
X83188332Y-59669676D01*
X83188332Y-59669676D02*
X83226428Y-59593485D01*
X83226428Y-59593485D02*
X83264523Y-59555390D01*
X83264523Y-59555390D02*
X83340713Y-59517295D01*
X83340713Y-59517295D02*
X83531190Y-59517295D01*
X83531190Y-59517295D02*
X83645475Y-59555390D01*
X83912142Y-59517295D02*
X84102618Y-60317295D01*
X84102618Y-60317295D02*
X84254999Y-59745866D01*
X84254999Y-59745866D02*
X84407380Y-60317295D01*
X84407380Y-60317295D02*
X84597857Y-59517295D01*
X85321666Y-60317295D02*
X84864523Y-60317295D01*
X85093095Y-60317295D02*
X85093095Y-59517295D01*
X85093095Y-59517295D02*
X85016904Y-59631580D01*
X85016904Y-59631580D02*
X84940714Y-59707771D01*
X84940714Y-59707771D02*
X84864523Y-59745866D01*
X41360522Y-7706533D02*
X41360522Y-8277961D01*
X41360522Y-8277961D02*
X41322427Y-8392247D01*
X41322427Y-8392247D02*
X41246236Y-8468438D01*
X41246236Y-8468438D02*
X41131951Y-8506533D01*
X41131951Y-8506533D02*
X41055760Y-8506533D01*
X41550999Y-8582723D02*
X42160522Y-8582723D01*
X42312903Y-8468438D02*
X42427189Y-8506533D01*
X42427189Y-8506533D02*
X42617665Y-8506533D01*
X42617665Y-8506533D02*
X42693856Y-8468438D01*
X42693856Y-8468438D02*
X42731951Y-8430342D01*
X42731951Y-8430342D02*
X42770046Y-8354152D01*
X42770046Y-8354152D02*
X42770046Y-8277961D01*
X42770046Y-8277961D02*
X42731951Y-8201771D01*
X42731951Y-8201771D02*
X42693856Y-8163676D01*
X42693856Y-8163676D02*
X42617665Y-8125580D01*
X42617665Y-8125580D02*
X42465284Y-8087485D01*
X42465284Y-8087485D02*
X42389094Y-8049390D01*
X42389094Y-8049390D02*
X42350999Y-8011295D01*
X42350999Y-8011295D02*
X42312903Y-7935104D01*
X42312903Y-7935104D02*
X42312903Y-7858914D01*
X42312903Y-7858914D02*
X42350999Y-7782723D01*
X42350999Y-7782723D02*
X42389094Y-7744628D01*
X42389094Y-7744628D02*
X42465284Y-7706533D01*
X42465284Y-7706533D02*
X42655761Y-7706533D01*
X42655761Y-7706533D02*
X42770046Y-7744628D01*
X42998618Y-7706533D02*
X43455761Y-7706533D01*
X43227189Y-8506533D02*
X43227189Y-7706533D01*
X43722428Y-8087485D02*
X43989094Y-8087485D01*
X44103380Y-8506533D02*
X43722428Y-8506533D01*
X43722428Y-8506533D02*
X43722428Y-7706533D01*
X43722428Y-7706533D02*
X44103380Y-7706533D01*
X44446238Y-8506533D02*
X44446238Y-7706533D01*
X44446238Y-7706533D02*
X44712904Y-8277961D01*
X44712904Y-8277961D02*
X44979571Y-7706533D01*
X44979571Y-7706533D02*
X44979571Y-8506533D01*
X45360524Y-8506533D02*
X45360524Y-7706533D01*
X45360524Y-7706533D02*
X45627190Y-8277961D01*
X45627190Y-8277961D02*
X45893857Y-7706533D01*
X45893857Y-7706533D02*
X45893857Y-8506533D01*
X46236714Y-8277961D02*
X46617667Y-8277961D01*
X46160524Y-8506533D02*
X46427191Y-7706533D01*
X46427191Y-7706533D02*
X46693857Y-8506533D01*
X19593599Y-5514554D02*
X19326932Y-5133601D01*
X19136456Y-5514554D02*
X19136456Y-4714554D01*
X19136456Y-4714554D02*
X19441218Y-4714554D01*
X19441218Y-4714554D02*
X19517408Y-4752649D01*
X19517408Y-4752649D02*
X19555503Y-4790744D01*
X19555503Y-4790744D02*
X19593599Y-4866935D01*
X19593599Y-4866935D02*
X19593599Y-4981220D01*
X19593599Y-4981220D02*
X19555503Y-5057411D01*
X19555503Y-5057411D02*
X19517408Y-5095506D01*
X19517408Y-5095506D02*
X19441218Y-5133601D01*
X19441218Y-5133601D02*
X19136456Y-5133601D01*
X19745980Y-5590744D02*
X20355503Y-5590744D01*
X21003123Y-5438363D02*
X20965027Y-5476459D01*
X20965027Y-5476459D02*
X20850742Y-5514554D01*
X20850742Y-5514554D02*
X20774551Y-5514554D01*
X20774551Y-5514554D02*
X20660265Y-5476459D01*
X20660265Y-5476459D02*
X20584075Y-5400268D01*
X20584075Y-5400268D02*
X20545980Y-5324078D01*
X20545980Y-5324078D02*
X20507884Y-5171697D01*
X20507884Y-5171697D02*
X20507884Y-5057411D01*
X20507884Y-5057411D02*
X20545980Y-4905030D01*
X20545980Y-4905030D02*
X20584075Y-4828839D01*
X20584075Y-4828839D02*
X20660265Y-4752649D01*
X20660265Y-4752649D02*
X20774551Y-4714554D01*
X20774551Y-4714554D02*
X20850742Y-4714554D01*
X20850742Y-4714554D02*
X20965027Y-4752649D01*
X20965027Y-4752649D02*
X21003123Y-4790744D01*
X21803123Y-5438363D02*
X21765027Y-5476459D01*
X21765027Y-5476459D02*
X21650742Y-5514554D01*
X21650742Y-5514554D02*
X21574551Y-5514554D01*
X21574551Y-5514554D02*
X21460265Y-5476459D01*
X21460265Y-5476459D02*
X21384075Y-5400268D01*
X21384075Y-5400268D02*
X21345980Y-5324078D01*
X21345980Y-5324078D02*
X21307884Y-5171697D01*
X21307884Y-5171697D02*
X21307884Y-5057411D01*
X21307884Y-5057411D02*
X21345980Y-4905030D01*
X21345980Y-4905030D02*
X21384075Y-4828839D01*
X21384075Y-4828839D02*
X21460265Y-4752649D01*
X21460265Y-4752649D02*
X21574551Y-4714554D01*
X21574551Y-4714554D02*
X21650742Y-4714554D01*
X21650742Y-4714554D02*
X21765027Y-4752649D01*
X21765027Y-4752649D02*
X21803123Y-4790744D01*
X22565027Y-5514554D02*
X22107884Y-5514554D01*
X22336456Y-5514554D02*
X22336456Y-4714554D01*
X22336456Y-4714554D02*
X22260265Y-4828839D01*
X22260265Y-4828839D02*
X22184075Y-4905030D01*
X22184075Y-4905030D02*
X22107884Y-4943125D01*
X52494047Y-6494122D02*
X52113095Y-6494122D01*
X52113095Y-6494122D02*
X52113095Y-5694122D01*
X52760714Y-6075074D02*
X53027380Y-6075074D01*
X53141666Y-6494122D02*
X52760714Y-6494122D01*
X52760714Y-6494122D02*
X52760714Y-5694122D01*
X52760714Y-5694122D02*
X53141666Y-5694122D01*
X53484524Y-6494122D02*
X53484524Y-5694122D01*
X53484524Y-5694122D02*
X53675000Y-5694122D01*
X53675000Y-5694122D02*
X53789286Y-5732217D01*
X53789286Y-5732217D02*
X53865476Y-5808407D01*
X53865476Y-5808407D02*
X53903571Y-5884598D01*
X53903571Y-5884598D02*
X53941667Y-6036979D01*
X53941667Y-6036979D02*
X53941667Y-6151265D01*
X53941667Y-6151265D02*
X53903571Y-6303646D01*
X53903571Y-6303646D02*
X53865476Y-6379836D01*
X53865476Y-6379836D02*
X53789286Y-6456027D01*
X53789286Y-6456027D02*
X53675000Y-6494122D01*
X53675000Y-6494122D02*
X53484524Y-6494122D01*
X54094048Y-6570312D02*
X54703571Y-6570312D01*
X54894048Y-5694122D02*
X54894048Y-6341741D01*
X54894048Y-6341741D02*
X54932143Y-6417931D01*
X54932143Y-6417931D02*
X54970238Y-6456027D01*
X54970238Y-6456027D02*
X55046429Y-6494122D01*
X55046429Y-6494122D02*
X55198810Y-6494122D01*
X55198810Y-6494122D02*
X55275000Y-6456027D01*
X55275000Y-6456027D02*
X55313095Y-6417931D01*
X55313095Y-6417931D02*
X55351191Y-6341741D01*
X55351191Y-6341741D02*
X55351191Y-5694122D01*
X55694047Y-6456027D02*
X55808333Y-6494122D01*
X55808333Y-6494122D02*
X55998809Y-6494122D01*
X55998809Y-6494122D02*
X56075000Y-6456027D01*
X56075000Y-6456027D02*
X56113095Y-6417931D01*
X56113095Y-6417931D02*
X56151190Y-6341741D01*
X56151190Y-6341741D02*
X56151190Y-6265550D01*
X56151190Y-6265550D02*
X56113095Y-6189360D01*
X56113095Y-6189360D02*
X56075000Y-6151265D01*
X56075000Y-6151265D02*
X55998809Y-6113169D01*
X55998809Y-6113169D02*
X55846428Y-6075074D01*
X55846428Y-6075074D02*
X55770238Y-6036979D01*
X55770238Y-6036979D02*
X55732143Y-5998884D01*
X55732143Y-5998884D02*
X55694047Y-5922693D01*
X55694047Y-5922693D02*
X55694047Y-5846503D01*
X55694047Y-5846503D02*
X55732143Y-5770312D01*
X55732143Y-5770312D02*
X55770238Y-5732217D01*
X55770238Y-5732217D02*
X55846428Y-5694122D01*
X55846428Y-5694122D02*
X56036905Y-5694122D01*
X56036905Y-5694122D02*
X56151190Y-5732217D01*
X56494048Y-6075074D02*
X56760714Y-6075074D01*
X56875000Y-6494122D02*
X56494048Y-6494122D01*
X56494048Y-6494122D02*
X56494048Y-5694122D01*
X56494048Y-5694122D02*
X56875000Y-5694122D01*
X57675001Y-6494122D02*
X57408334Y-6113169D01*
X57217858Y-6494122D02*
X57217858Y-5694122D01*
X57217858Y-5694122D02*
X57522620Y-5694122D01*
X57522620Y-5694122D02*
X57598810Y-5732217D01*
X57598810Y-5732217D02*
X57636905Y-5770312D01*
X57636905Y-5770312D02*
X57675001Y-5846503D01*
X57675001Y-5846503D02*
X57675001Y-5960788D01*
X57675001Y-5960788D02*
X57636905Y-6036979D01*
X57636905Y-6036979D02*
X57598810Y-6075074D01*
X57598810Y-6075074D02*
X57522620Y-6113169D01*
X57522620Y-6113169D02*
X57217858Y-6113169D01*
X53379160Y-32362295D02*
X53379160Y-31562295D01*
X53379160Y-31562295D02*
X53683922Y-31562295D01*
X53683922Y-31562295D02*
X53760112Y-31600390D01*
X53760112Y-31600390D02*
X53798207Y-31638485D01*
X53798207Y-31638485D02*
X53836303Y-31714676D01*
X53836303Y-31714676D02*
X53836303Y-31828961D01*
X53836303Y-31828961D02*
X53798207Y-31905152D01*
X53798207Y-31905152D02*
X53760112Y-31943247D01*
X53760112Y-31943247D02*
X53683922Y-31981342D01*
X53683922Y-31981342D02*
X53379160Y-31981342D01*
X54179160Y-32362295D02*
X54179160Y-31562295D01*
X55017255Y-32286104D02*
X54979159Y-32324200D01*
X54979159Y-32324200D02*
X54864874Y-32362295D01*
X54864874Y-32362295D02*
X54788683Y-32362295D01*
X54788683Y-32362295D02*
X54674397Y-32324200D01*
X54674397Y-32324200D02*
X54598207Y-32248009D01*
X54598207Y-32248009D02*
X54560112Y-32171819D01*
X54560112Y-32171819D02*
X54522016Y-32019438D01*
X54522016Y-32019438D02*
X54522016Y-31905152D01*
X54522016Y-31905152D02*
X54560112Y-31752771D01*
X54560112Y-31752771D02*
X54598207Y-31676580D01*
X54598207Y-31676580D02*
X54674397Y-31600390D01*
X54674397Y-31600390D02*
X54788683Y-31562295D01*
X54788683Y-31562295D02*
X54864874Y-31562295D01*
X54864874Y-31562295D02*
X54979159Y-31600390D01*
X54979159Y-31600390D02*
X55017255Y-31638485D01*
X55512493Y-31562295D02*
X55664874Y-31562295D01*
X55664874Y-31562295D02*
X55741064Y-31600390D01*
X55741064Y-31600390D02*
X55817255Y-31676580D01*
X55817255Y-31676580D02*
X55855350Y-31828961D01*
X55855350Y-31828961D02*
X55855350Y-32095628D01*
X55855350Y-32095628D02*
X55817255Y-32248009D01*
X55817255Y-32248009D02*
X55741064Y-32324200D01*
X55741064Y-32324200D02*
X55664874Y-32362295D01*
X55664874Y-32362295D02*
X55512493Y-32362295D01*
X55512493Y-32362295D02*
X55436302Y-32324200D01*
X55436302Y-32324200D02*
X55360112Y-32248009D01*
X55360112Y-32248009D02*
X55322016Y-32095628D01*
X55322016Y-32095628D02*
X55322016Y-31828961D01*
X55322016Y-31828961D02*
X55360112Y-31676580D01*
X55360112Y-31676580D02*
X55436302Y-31600390D01*
X55436302Y-31600390D02*
X55512493Y-31562295D01*
X63762525Y-15158817D02*
X63495858Y-14777864D01*
X63305382Y-15158817D02*
X63305382Y-14358817D01*
X63305382Y-14358817D02*
X63610144Y-14358817D01*
X63610144Y-14358817D02*
X63686334Y-14396912D01*
X63686334Y-14396912D02*
X63724429Y-14435007D01*
X63724429Y-14435007D02*
X63762525Y-14511198D01*
X63762525Y-14511198D02*
X63762525Y-14625483D01*
X63762525Y-14625483D02*
X63724429Y-14701674D01*
X63724429Y-14701674D02*
X63686334Y-14739769D01*
X63686334Y-14739769D02*
X63610144Y-14777864D01*
X63610144Y-14777864D02*
X63305382Y-14777864D01*
X63914906Y-15235007D02*
X64524429Y-15235007D01*
X64714906Y-15158817D02*
X64714906Y-14358817D01*
X64714906Y-14739769D02*
X65172049Y-14739769D01*
X65172049Y-15158817D02*
X65172049Y-14358817D01*
X65553001Y-15158817D02*
X65553001Y-14358817D01*
X65553001Y-14358817D02*
X65743477Y-14358817D01*
X65743477Y-14358817D02*
X65857763Y-14396912D01*
X65857763Y-14396912D02*
X65933953Y-14473102D01*
X65933953Y-14473102D02*
X65972048Y-14549293D01*
X65972048Y-14549293D02*
X66010144Y-14701674D01*
X66010144Y-14701674D02*
X66010144Y-14815960D01*
X66010144Y-14815960D02*
X65972048Y-14968341D01*
X65972048Y-14968341D02*
X65933953Y-15044531D01*
X65933953Y-15044531D02*
X65857763Y-15120722D01*
X65857763Y-15120722D02*
X65743477Y-15158817D01*
X65743477Y-15158817D02*
X65553001Y-15158817D01*
X66353001Y-15158817D02*
X66353001Y-14358817D01*
X66353001Y-14358817D02*
X66657763Y-14358817D01*
X66657763Y-14358817D02*
X66733953Y-14396912D01*
X66733953Y-14396912D02*
X66772048Y-14435007D01*
X66772048Y-14435007D02*
X66810144Y-14511198D01*
X66810144Y-14511198D02*
X66810144Y-14625483D01*
X66810144Y-14625483D02*
X66772048Y-14701674D01*
X66772048Y-14701674D02*
X66733953Y-14739769D01*
X66733953Y-14739769D02*
X66657763Y-14777864D01*
X66657763Y-14777864D02*
X66353001Y-14777864D01*
X66962525Y-15235007D02*
X67572048Y-15235007D01*
X67762525Y-15158817D02*
X67762525Y-14358817D01*
X67762525Y-14358817D02*
X68067287Y-14358817D01*
X68067287Y-14358817D02*
X68143477Y-14396912D01*
X68143477Y-14396912D02*
X68181572Y-14435007D01*
X68181572Y-14435007D02*
X68219668Y-14511198D01*
X68219668Y-14511198D02*
X68219668Y-14625483D01*
X68219668Y-14625483D02*
X68181572Y-14701674D01*
X68181572Y-14701674D02*
X68143477Y-14739769D01*
X68143477Y-14739769D02*
X68067287Y-14777864D01*
X68067287Y-14777864D02*
X67762525Y-14777864D01*
X68562525Y-15158817D02*
X68562525Y-14358817D01*
X68562525Y-14358817D02*
X68753001Y-14358817D01*
X68753001Y-14358817D02*
X68867287Y-14396912D01*
X68867287Y-14396912D02*
X68943477Y-14473102D01*
X68943477Y-14473102D02*
X68981572Y-14549293D01*
X68981572Y-14549293D02*
X69019668Y-14701674D01*
X69019668Y-14701674D02*
X69019668Y-14815960D01*
X69019668Y-14815960D02*
X68981572Y-14968341D01*
X68981572Y-14968341D02*
X68943477Y-15044531D01*
X68943477Y-15044531D02*
X68867287Y-15120722D01*
X68867287Y-15120722D02*
X68753001Y-15158817D01*
X68753001Y-15158817D02*
X68562525Y-15158817D01*
X51071429Y-12937295D02*
X50804762Y-12556342D01*
X50614286Y-12937295D02*
X50614286Y-12137295D01*
X50614286Y-12137295D02*
X50919048Y-12137295D01*
X50919048Y-12137295D02*
X50995238Y-12175390D01*
X50995238Y-12175390D02*
X51033333Y-12213485D01*
X51033333Y-12213485D02*
X51071429Y-12289676D01*
X51071429Y-12289676D02*
X51071429Y-12403961D01*
X51071429Y-12403961D02*
X51033333Y-12480152D01*
X51033333Y-12480152D02*
X50995238Y-12518247D01*
X50995238Y-12518247D02*
X50919048Y-12556342D01*
X50919048Y-12556342D02*
X50614286Y-12556342D01*
X51223810Y-13013485D02*
X51833333Y-13013485D01*
X52023810Y-12937295D02*
X52023810Y-12137295D01*
X52023810Y-12137295D02*
X52480953Y-12937295D01*
X52480953Y-12937295D02*
X52480953Y-12137295D01*
X52747619Y-12137295D02*
X53014286Y-12937295D01*
X53014286Y-12937295D02*
X53280952Y-12137295D01*
X53547619Y-12937295D02*
X53547619Y-12137295D01*
X53547619Y-12137295D02*
X53738095Y-12137295D01*
X53738095Y-12137295D02*
X53852381Y-12175390D01*
X53852381Y-12175390D02*
X53928571Y-12251580D01*
X53928571Y-12251580D02*
X53966666Y-12327771D01*
X53966666Y-12327771D02*
X54004762Y-12480152D01*
X54004762Y-12480152D02*
X54004762Y-12594438D01*
X54004762Y-12594438D02*
X53966666Y-12746819D01*
X53966666Y-12746819D02*
X53928571Y-12823009D01*
X53928571Y-12823009D02*
X53852381Y-12899200D01*
X53852381Y-12899200D02*
X53738095Y-12937295D01*
X53738095Y-12937295D02*
X53547619Y-12937295D01*
X54157143Y-13013485D02*
X54766666Y-13013485D01*
X54842857Y-12137295D02*
X55300000Y-12137295D01*
X55071428Y-12937295D02*
X55071428Y-12137295D01*
X67695667Y-42710342D02*
X67657571Y-42748438D01*
X67657571Y-42748438D02*
X67543286Y-42786533D01*
X67543286Y-42786533D02*
X67467095Y-42786533D01*
X67467095Y-42786533D02*
X67352809Y-42748438D01*
X67352809Y-42748438D02*
X67276619Y-42672247D01*
X67276619Y-42672247D02*
X67238524Y-42596057D01*
X67238524Y-42596057D02*
X67200428Y-42443676D01*
X67200428Y-42443676D02*
X67200428Y-42329390D01*
X67200428Y-42329390D02*
X67238524Y-42177009D01*
X67238524Y-42177009D02*
X67276619Y-42100818D01*
X67276619Y-42100818D02*
X67352809Y-42024628D01*
X67352809Y-42024628D02*
X67467095Y-41986533D01*
X67467095Y-41986533D02*
X67543286Y-41986533D01*
X67543286Y-41986533D02*
X67657571Y-42024628D01*
X67657571Y-42024628D02*
X67695667Y-42062723D01*
X67848048Y-42862723D02*
X68457571Y-42862723D01*
X68648048Y-42786533D02*
X68648048Y-41986533D01*
X68648048Y-42367485D02*
X69105191Y-42367485D01*
X69105191Y-42786533D02*
X69105191Y-41986533D01*
X69448047Y-42748438D02*
X69562333Y-42786533D01*
X69562333Y-42786533D02*
X69752809Y-42786533D01*
X69752809Y-42786533D02*
X69829000Y-42748438D01*
X69829000Y-42748438D02*
X69867095Y-42710342D01*
X69867095Y-42710342D02*
X69905190Y-42634152D01*
X69905190Y-42634152D02*
X69905190Y-42557961D01*
X69905190Y-42557961D02*
X69867095Y-42481771D01*
X69867095Y-42481771D02*
X69829000Y-42443676D01*
X69829000Y-42443676D02*
X69752809Y-42405580D01*
X69752809Y-42405580D02*
X69600428Y-42367485D01*
X69600428Y-42367485D02*
X69524238Y-42329390D01*
X69524238Y-42329390D02*
X69486143Y-42291295D01*
X69486143Y-42291295D02*
X69448047Y-42215104D01*
X69448047Y-42215104D02*
X69448047Y-42138914D01*
X69448047Y-42138914D02*
X69486143Y-42062723D01*
X69486143Y-42062723D02*
X69524238Y-42024628D01*
X69524238Y-42024628D02*
X69600428Y-41986533D01*
X69600428Y-41986533D02*
X69790905Y-41986533D01*
X69790905Y-41986533D02*
X69905190Y-42024628D01*
X70171857Y-41986533D02*
X70362333Y-42786533D01*
X70362333Y-42786533D02*
X70514714Y-42215104D01*
X70514714Y-42215104D02*
X70667095Y-42786533D01*
X70667095Y-42786533D02*
X70857572Y-41986533D01*
X70971858Y-42862723D02*
X71581381Y-42862723D01*
X71771858Y-42786533D02*
X71771858Y-41986533D01*
X72152810Y-42786533D02*
X72152810Y-41986533D01*
X72152810Y-41986533D02*
X72609953Y-42786533D01*
X72609953Y-42786533D02*
X72609953Y-41986533D01*
X61052047Y-40633128D02*
X61052047Y-41280747D01*
X61052047Y-41280747D02*
X61090142Y-41356937D01*
X61090142Y-41356937D02*
X61128237Y-41395033D01*
X61128237Y-41395033D02*
X61204428Y-41433128D01*
X61204428Y-41433128D02*
X61356809Y-41433128D01*
X61356809Y-41433128D02*
X61432999Y-41395033D01*
X61432999Y-41395033D02*
X61471094Y-41356937D01*
X61471094Y-41356937D02*
X61509190Y-41280747D01*
X61509190Y-41280747D02*
X61509190Y-40633128D01*
X61699666Y-41509318D02*
X62309189Y-41509318D01*
X62499666Y-41433128D02*
X62499666Y-40633128D01*
X62499666Y-41014080D02*
X62956809Y-41014080D01*
X62956809Y-41433128D02*
X62956809Y-40633128D01*
X63299665Y-41395033D02*
X63413951Y-41433128D01*
X63413951Y-41433128D02*
X63604427Y-41433128D01*
X63604427Y-41433128D02*
X63680618Y-41395033D01*
X63680618Y-41395033D02*
X63718713Y-41356937D01*
X63718713Y-41356937D02*
X63756808Y-41280747D01*
X63756808Y-41280747D02*
X63756808Y-41204556D01*
X63756808Y-41204556D02*
X63718713Y-41128366D01*
X63718713Y-41128366D02*
X63680618Y-41090271D01*
X63680618Y-41090271D02*
X63604427Y-41052175D01*
X63604427Y-41052175D02*
X63452046Y-41014080D01*
X63452046Y-41014080D02*
X63375856Y-40975985D01*
X63375856Y-40975985D02*
X63337761Y-40937890D01*
X63337761Y-40937890D02*
X63299665Y-40861699D01*
X63299665Y-40861699D02*
X63299665Y-40785509D01*
X63299665Y-40785509D02*
X63337761Y-40709318D01*
X63337761Y-40709318D02*
X63375856Y-40671223D01*
X63375856Y-40671223D02*
X63452046Y-40633128D01*
X63452046Y-40633128D02*
X63642523Y-40633128D01*
X63642523Y-40633128D02*
X63756808Y-40671223D01*
X64023475Y-40633128D02*
X64213951Y-41433128D01*
X64213951Y-41433128D02*
X64366332Y-40861699D01*
X64366332Y-40861699D02*
X64518713Y-41433128D01*
X64518713Y-41433128D02*
X64709190Y-40633128D01*
X74185380Y-41772413D02*
X74452046Y-41772413D01*
X74566332Y-42191461D02*
X74185380Y-42191461D01*
X74185380Y-42191461D02*
X74185380Y-41391461D01*
X74185380Y-41391461D02*
X74566332Y-41391461D01*
X74871094Y-42153366D02*
X74985380Y-42191461D01*
X74985380Y-42191461D02*
X75175856Y-42191461D01*
X75175856Y-42191461D02*
X75252047Y-42153366D01*
X75252047Y-42153366D02*
X75290142Y-42115270D01*
X75290142Y-42115270D02*
X75328237Y-42039080D01*
X75328237Y-42039080D02*
X75328237Y-41962889D01*
X75328237Y-41962889D02*
X75290142Y-41886699D01*
X75290142Y-41886699D02*
X75252047Y-41848604D01*
X75252047Y-41848604D02*
X75175856Y-41810508D01*
X75175856Y-41810508D02*
X75023475Y-41772413D01*
X75023475Y-41772413D02*
X74947285Y-41734318D01*
X74947285Y-41734318D02*
X74909190Y-41696223D01*
X74909190Y-41696223D02*
X74871094Y-41620032D01*
X74871094Y-41620032D02*
X74871094Y-41543842D01*
X74871094Y-41543842D02*
X74909190Y-41467651D01*
X74909190Y-41467651D02*
X74947285Y-41429556D01*
X74947285Y-41429556D02*
X75023475Y-41391461D01*
X75023475Y-41391461D02*
X75213952Y-41391461D01*
X75213952Y-41391461D02*
X75328237Y-41429556D01*
X75671095Y-42191461D02*
X75671095Y-41391461D01*
X75671095Y-41391461D02*
X75861571Y-41391461D01*
X75861571Y-41391461D02*
X75975857Y-41429556D01*
X75975857Y-41429556D02*
X76052047Y-41505746D01*
X76052047Y-41505746D02*
X76090142Y-41581937D01*
X76090142Y-41581937D02*
X76128238Y-41734318D01*
X76128238Y-41734318D02*
X76128238Y-41848604D01*
X76128238Y-41848604D02*
X76090142Y-42000985D01*
X76090142Y-42000985D02*
X76052047Y-42077175D01*
X76052047Y-42077175D02*
X75975857Y-42153366D01*
X75975857Y-42153366D02*
X75861571Y-42191461D01*
X75861571Y-42191461D02*
X75671095Y-42191461D01*
X76280619Y-42267651D02*
X76890142Y-42267651D01*
X77080619Y-42191461D02*
X77080619Y-41391461D01*
X77080619Y-41391461D02*
X77271095Y-41391461D01*
X77271095Y-41391461D02*
X77385381Y-41429556D01*
X77385381Y-41429556D02*
X77461571Y-41505746D01*
X77461571Y-41505746D02*
X77499666Y-41581937D01*
X77499666Y-41581937D02*
X77537762Y-41734318D01*
X77537762Y-41734318D02*
X77537762Y-41848604D01*
X77537762Y-41848604D02*
X77499666Y-42000985D01*
X77499666Y-42000985D02*
X77461571Y-42077175D01*
X77461571Y-42077175D02*
X77385381Y-42153366D01*
X77385381Y-42153366D02*
X77271095Y-42191461D01*
X77271095Y-42191461D02*
X77080619Y-42191461D01*
X60664222Y-20966044D02*
X61121365Y-20966044D01*
X60892793Y-21766044D02*
X60892793Y-20966044D01*
X61388032Y-21766044D02*
X61388032Y-20966044D01*
X61388032Y-20966044D02*
X61692794Y-20966044D01*
X61692794Y-20966044D02*
X61768984Y-21004139D01*
X61768984Y-21004139D02*
X61807079Y-21042234D01*
X61807079Y-21042234D02*
X61845175Y-21118425D01*
X61845175Y-21118425D02*
X61845175Y-21232710D01*
X61845175Y-21232710D02*
X61807079Y-21308901D01*
X61807079Y-21308901D02*
X61768984Y-21346996D01*
X61768984Y-21346996D02*
X61692794Y-21385091D01*
X61692794Y-21385091D02*
X61388032Y-21385091D01*
X62149936Y-21042234D02*
X62188032Y-21004139D01*
X62188032Y-21004139D02*
X62264222Y-20966044D01*
X62264222Y-20966044D02*
X62454698Y-20966044D01*
X62454698Y-20966044D02*
X62530889Y-21004139D01*
X62530889Y-21004139D02*
X62568984Y-21042234D01*
X62568984Y-21042234D02*
X62607079Y-21118425D01*
X62607079Y-21118425D02*
X62607079Y-21194615D01*
X62607079Y-21194615D02*
X62568984Y-21308901D01*
X62568984Y-21308901D02*
X62111841Y-21766044D01*
X62111841Y-21766044D02*
X62607079Y-21766044D01*
X68376428Y-33305276D02*
X68338332Y-33343372D01*
X68338332Y-33343372D02*
X68224047Y-33381467D01*
X68224047Y-33381467D02*
X68147856Y-33381467D01*
X68147856Y-33381467D02*
X68033570Y-33343372D01*
X68033570Y-33343372D02*
X67957380Y-33267181D01*
X67957380Y-33267181D02*
X67919285Y-33190991D01*
X67919285Y-33190991D02*
X67881189Y-33038610D01*
X67881189Y-33038610D02*
X67881189Y-32924324D01*
X67881189Y-32924324D02*
X67919285Y-32771943D01*
X67919285Y-32771943D02*
X67957380Y-32695752D01*
X67957380Y-32695752D02*
X68033570Y-32619562D01*
X68033570Y-32619562D02*
X68147856Y-32581467D01*
X68147856Y-32581467D02*
X68224047Y-32581467D01*
X68224047Y-32581467D02*
X68338332Y-32619562D01*
X68338332Y-32619562D02*
X68376428Y-32657657D01*
X68528809Y-33457657D02*
X69138332Y-33457657D01*
X69328809Y-33381467D02*
X69328809Y-32581467D01*
X69328809Y-32962419D02*
X69785952Y-32962419D01*
X69785952Y-33381467D02*
X69785952Y-32581467D01*
X70052618Y-32581467D02*
X70319285Y-33381467D01*
X70319285Y-33381467D02*
X70585951Y-32581467D01*
X71119284Y-32962419D02*
X71233570Y-33000514D01*
X71233570Y-33000514D02*
X71271665Y-33038610D01*
X71271665Y-33038610D02*
X71309761Y-33114800D01*
X71309761Y-33114800D02*
X71309761Y-33229086D01*
X71309761Y-33229086D02*
X71271665Y-33305276D01*
X71271665Y-33305276D02*
X71233570Y-33343372D01*
X71233570Y-33343372D02*
X71157380Y-33381467D01*
X71157380Y-33381467D02*
X70852618Y-33381467D01*
X70852618Y-33381467D02*
X70852618Y-32581467D01*
X70852618Y-32581467D02*
X71119284Y-32581467D01*
X71119284Y-32581467D02*
X71195475Y-32619562D01*
X71195475Y-32619562D02*
X71233570Y-32657657D01*
X71233570Y-32657657D02*
X71271665Y-32733848D01*
X71271665Y-32733848D02*
X71271665Y-32810038D01*
X71271665Y-32810038D02*
X71233570Y-32886229D01*
X71233570Y-32886229D02*
X71195475Y-32924324D01*
X71195475Y-32924324D02*
X71119284Y-32962419D01*
X71119284Y-32962419D02*
X70852618Y-32962419D01*
X71652618Y-32581467D02*
X71652618Y-33229086D01*
X71652618Y-33229086D02*
X71690713Y-33305276D01*
X71690713Y-33305276D02*
X71728808Y-33343372D01*
X71728808Y-33343372D02*
X71804999Y-33381467D01*
X71804999Y-33381467D02*
X71957380Y-33381467D01*
X71957380Y-33381467D02*
X72033570Y-33343372D01*
X72033570Y-33343372D02*
X72071665Y-33305276D01*
X72071665Y-33305276D02*
X72109761Y-33229086D01*
X72109761Y-33229086D02*
X72109761Y-32581467D01*
X72452617Y-33343372D02*
X72566903Y-33381467D01*
X72566903Y-33381467D02*
X72757379Y-33381467D01*
X72757379Y-33381467D02*
X72833570Y-33343372D01*
X72833570Y-33343372D02*
X72871665Y-33305276D01*
X72871665Y-33305276D02*
X72909760Y-33229086D01*
X72909760Y-33229086D02*
X72909760Y-33152895D01*
X72909760Y-33152895D02*
X72871665Y-33076705D01*
X72871665Y-33076705D02*
X72833570Y-33038610D01*
X72833570Y-33038610D02*
X72757379Y-33000514D01*
X72757379Y-33000514D02*
X72604998Y-32962419D01*
X72604998Y-32962419D02*
X72528808Y-32924324D01*
X72528808Y-32924324D02*
X72490713Y-32886229D01*
X72490713Y-32886229D02*
X72452617Y-32810038D01*
X72452617Y-32810038D02*
X72452617Y-32733848D01*
X72452617Y-32733848D02*
X72490713Y-32657657D01*
X72490713Y-32657657D02*
X72528808Y-32619562D01*
X72528808Y-32619562D02*
X72604998Y-32581467D01*
X72604998Y-32581467D02*
X72795475Y-32581467D01*
X72795475Y-32581467D02*
X72909760Y-32619562D01*
X73062142Y-33457657D02*
X73671665Y-33457657D01*
X74281189Y-33381467D02*
X73824046Y-33381467D01*
X74052618Y-33381467D02*
X74052618Y-32581467D01*
X74052618Y-32581467D02*
X73976427Y-32695752D01*
X73976427Y-32695752D02*
X73900237Y-32771943D01*
X73900237Y-32771943D02*
X73824046Y-32810038D01*
X74776428Y-32581467D02*
X74852618Y-32581467D01*
X74852618Y-32581467D02*
X74928809Y-32619562D01*
X74928809Y-32619562D02*
X74966904Y-32657657D01*
X74966904Y-32657657D02*
X75004999Y-32733848D01*
X75004999Y-32733848D02*
X75043094Y-32886229D01*
X75043094Y-32886229D02*
X75043094Y-33076705D01*
X75043094Y-33076705D02*
X75004999Y-33229086D01*
X75004999Y-33229086D02*
X74966904Y-33305276D01*
X74966904Y-33305276D02*
X74928809Y-33343372D01*
X74928809Y-33343372D02*
X74852618Y-33381467D01*
X74852618Y-33381467D02*
X74776428Y-33381467D01*
X74776428Y-33381467D02*
X74700237Y-33343372D01*
X74700237Y-33343372D02*
X74662142Y-33305276D01*
X74662142Y-33305276D02*
X74624047Y-33229086D01*
X74624047Y-33229086D02*
X74585951Y-33076705D01*
X74585951Y-33076705D02*
X74585951Y-32886229D01*
X74585951Y-32886229D02*
X74624047Y-32733848D01*
X74624047Y-32733848D02*
X74662142Y-32657657D01*
X74662142Y-32657657D02*
X74700237Y-32619562D01*
X74700237Y-32619562D02*
X74776428Y-32581467D01*
X75538333Y-32581467D02*
X75614523Y-32581467D01*
X75614523Y-32581467D02*
X75690714Y-32619562D01*
X75690714Y-32619562D02*
X75728809Y-32657657D01*
X75728809Y-32657657D02*
X75766904Y-32733848D01*
X75766904Y-32733848D02*
X75804999Y-32886229D01*
X75804999Y-32886229D02*
X75804999Y-33076705D01*
X75804999Y-33076705D02*
X75766904Y-33229086D01*
X75766904Y-33229086D02*
X75728809Y-33305276D01*
X75728809Y-33305276D02*
X75690714Y-33343372D01*
X75690714Y-33343372D02*
X75614523Y-33381467D01*
X75614523Y-33381467D02*
X75538333Y-33381467D01*
X75538333Y-33381467D02*
X75462142Y-33343372D01*
X75462142Y-33343372D02*
X75424047Y-33305276D01*
X75424047Y-33305276D02*
X75385952Y-33229086D01*
X75385952Y-33229086D02*
X75347856Y-33076705D01*
X75347856Y-33076705D02*
X75347856Y-32886229D01*
X75347856Y-32886229D02*
X75385952Y-32733848D01*
X75385952Y-32733848D02*
X75424047Y-32657657D01*
X75424047Y-32657657D02*
X75462142Y-32619562D01*
X75462142Y-32619562D02*
X75538333Y-32581467D01*
X76147857Y-32848133D02*
X76147857Y-33381467D01*
X76147857Y-32924324D02*
X76185952Y-32886229D01*
X76185952Y-32886229D02*
X76262142Y-32848133D01*
X76262142Y-32848133D02*
X76376428Y-32848133D01*
X76376428Y-32848133D02*
X76452619Y-32886229D01*
X76452619Y-32886229D02*
X76490714Y-32962419D01*
X76490714Y-32962419D02*
X76490714Y-33381467D01*
X53290476Y-15537295D02*
X53023809Y-15156342D01*
X52833333Y-15537295D02*
X52833333Y-14737295D01*
X52833333Y-14737295D02*
X53138095Y-14737295D01*
X53138095Y-14737295D02*
X53214285Y-14775390D01*
X53214285Y-14775390D02*
X53252380Y-14813485D01*
X53252380Y-14813485D02*
X53290476Y-14889676D01*
X53290476Y-14889676D02*
X53290476Y-15003961D01*
X53290476Y-15003961D02*
X53252380Y-15080152D01*
X53252380Y-15080152D02*
X53214285Y-15118247D01*
X53214285Y-15118247D02*
X53138095Y-15156342D01*
X53138095Y-15156342D02*
X52833333Y-15156342D01*
X53442857Y-15613485D02*
X54052380Y-15613485D01*
X54623809Y-15537295D02*
X54242857Y-15537295D01*
X54242857Y-15537295D02*
X54242857Y-14737295D01*
X54890476Y-15118247D02*
X55157142Y-15118247D01*
X55271428Y-15537295D02*
X54890476Y-15537295D01*
X54890476Y-15537295D02*
X54890476Y-14737295D01*
X54890476Y-14737295D02*
X55271428Y-14737295D01*
X55614286Y-15537295D02*
X55614286Y-14737295D01*
X55614286Y-14737295D02*
X55804762Y-14737295D01*
X55804762Y-14737295D02*
X55919048Y-14775390D01*
X55919048Y-14775390D02*
X55995238Y-14851580D01*
X55995238Y-14851580D02*
X56033333Y-14927771D01*
X56033333Y-14927771D02*
X56071429Y-15080152D01*
X56071429Y-15080152D02*
X56071429Y-15194438D01*
X56071429Y-15194438D02*
X56033333Y-15346819D01*
X56033333Y-15346819D02*
X55995238Y-15423009D01*
X55995238Y-15423009D02*
X55919048Y-15499200D01*
X55919048Y-15499200D02*
X55804762Y-15537295D01*
X55804762Y-15537295D02*
X55614286Y-15537295D01*
X56223810Y-15613485D02*
X56833333Y-15613485D01*
X57023810Y-14737295D02*
X57023810Y-15384914D01*
X57023810Y-15384914D02*
X57061905Y-15461104D01*
X57061905Y-15461104D02*
X57100000Y-15499200D01*
X57100000Y-15499200D02*
X57176191Y-15537295D01*
X57176191Y-15537295D02*
X57328572Y-15537295D01*
X57328572Y-15537295D02*
X57404762Y-15499200D01*
X57404762Y-15499200D02*
X57442857Y-15461104D01*
X57442857Y-15461104D02*
X57480953Y-15384914D01*
X57480953Y-15384914D02*
X57480953Y-14737295D01*
X57823809Y-15499200D02*
X57938095Y-15537295D01*
X57938095Y-15537295D02*
X58128571Y-15537295D01*
X58128571Y-15537295D02*
X58204762Y-15499200D01*
X58204762Y-15499200D02*
X58242857Y-15461104D01*
X58242857Y-15461104D02*
X58280952Y-15384914D01*
X58280952Y-15384914D02*
X58280952Y-15308723D01*
X58280952Y-15308723D02*
X58242857Y-15232533D01*
X58242857Y-15232533D02*
X58204762Y-15194438D01*
X58204762Y-15194438D02*
X58128571Y-15156342D01*
X58128571Y-15156342D02*
X57976190Y-15118247D01*
X57976190Y-15118247D02*
X57900000Y-15080152D01*
X57900000Y-15080152D02*
X57861905Y-15042057D01*
X57861905Y-15042057D02*
X57823809Y-14965866D01*
X57823809Y-14965866D02*
X57823809Y-14889676D01*
X57823809Y-14889676D02*
X57861905Y-14813485D01*
X57861905Y-14813485D02*
X57900000Y-14775390D01*
X57900000Y-14775390D02*
X57976190Y-14737295D01*
X57976190Y-14737295D02*
X58166667Y-14737295D01*
X58166667Y-14737295D02*
X58280952Y-14775390D01*
X58623810Y-15118247D02*
X58890476Y-15118247D01*
X59004762Y-15537295D02*
X58623810Y-15537295D01*
X58623810Y-15537295D02*
X58623810Y-14737295D01*
X58623810Y-14737295D02*
X59004762Y-14737295D01*
X59804763Y-15537295D02*
X59538096Y-15156342D01*
X59347620Y-15537295D02*
X59347620Y-14737295D01*
X59347620Y-14737295D02*
X59652382Y-14737295D01*
X59652382Y-14737295D02*
X59728572Y-14775390D01*
X59728572Y-14775390D02*
X59766667Y-14813485D01*
X59766667Y-14813485D02*
X59804763Y-14889676D01*
X59804763Y-14889676D02*
X59804763Y-15003961D01*
X59804763Y-15003961D02*
X59766667Y-15080152D01*
X59766667Y-15080152D02*
X59728572Y-15118247D01*
X59728572Y-15118247D02*
X59652382Y-15156342D01*
X59652382Y-15156342D02*
X59347620Y-15156342D01*
X6208095Y-45162295D02*
X5941428Y-44781342D01*
X5750952Y-45162295D02*
X5750952Y-44362295D01*
X5750952Y-44362295D02*
X6055714Y-44362295D01*
X6055714Y-44362295D02*
X6131904Y-44400390D01*
X6131904Y-44400390D02*
X6169999Y-44438485D01*
X6169999Y-44438485D02*
X6208095Y-44514676D01*
X6208095Y-44514676D02*
X6208095Y-44628961D01*
X6208095Y-44628961D02*
X6169999Y-44705152D01*
X6169999Y-44705152D02*
X6131904Y-44743247D01*
X6131904Y-44743247D02*
X6055714Y-44781342D01*
X6055714Y-44781342D02*
X5750952Y-44781342D01*
X6436666Y-44628961D02*
X6741428Y-44628961D01*
X6550952Y-44362295D02*
X6550952Y-45048009D01*
X6550952Y-45048009D02*
X6589047Y-45124200D01*
X6589047Y-45124200D02*
X6665237Y-45162295D01*
X6665237Y-45162295D02*
X6741428Y-45162295D01*
X7427142Y-45162295D02*
X6969999Y-45162295D01*
X7198571Y-45162295D02*
X7198571Y-44362295D01*
X7198571Y-44362295D02*
X7122380Y-44476580D01*
X7122380Y-44476580D02*
X7046190Y-44552771D01*
X7046190Y-44552771D02*
X6969999Y-44590866D01*
X5204018Y-54197980D02*
X5204018Y-54769408D01*
X5204018Y-54769408D02*
X5165923Y-54883694D01*
X5165923Y-54883694D02*
X5089732Y-54959885D01*
X5089732Y-54959885D02*
X4975447Y-54997980D01*
X4975447Y-54997980D02*
X4899256Y-54997980D01*
X5584971Y-54997980D02*
X5584971Y-54197980D01*
X5584971Y-54197980D02*
X5889733Y-54197980D01*
X5889733Y-54197980D02*
X5965923Y-54236075D01*
X5965923Y-54236075D02*
X6004018Y-54274170D01*
X6004018Y-54274170D02*
X6042114Y-54350361D01*
X6042114Y-54350361D02*
X6042114Y-54464646D01*
X6042114Y-54464646D02*
X6004018Y-54540837D01*
X6004018Y-54540837D02*
X5965923Y-54578932D01*
X5965923Y-54578932D02*
X5889733Y-54617027D01*
X5889733Y-54617027D02*
X5584971Y-54617027D01*
X6346875Y-54274170D02*
X6384971Y-54236075D01*
X6384971Y-54236075D02*
X6461161Y-54197980D01*
X6461161Y-54197980D02*
X6651637Y-54197980D01*
X6651637Y-54197980D02*
X6727828Y-54236075D01*
X6727828Y-54236075D02*
X6765923Y-54274170D01*
X6765923Y-54274170D02*
X6804018Y-54350361D01*
X6804018Y-54350361D02*
X6804018Y-54426551D01*
X6804018Y-54426551D02*
X6765923Y-54540837D01*
X6765923Y-54540837D02*
X6308780Y-54997980D01*
X6308780Y-54997980D02*
X6804018Y-54997980D01*
X20427725Y-3775887D02*
X20161058Y-3394934D01*
X19970582Y-3775887D02*
X19970582Y-2975887D01*
X19970582Y-2975887D02*
X20275344Y-2975887D01*
X20275344Y-2975887D02*
X20351534Y-3013982D01*
X20351534Y-3013982D02*
X20389629Y-3052077D01*
X20389629Y-3052077D02*
X20427725Y-3128268D01*
X20427725Y-3128268D02*
X20427725Y-3242553D01*
X20427725Y-3242553D02*
X20389629Y-3318744D01*
X20389629Y-3318744D02*
X20351534Y-3356839D01*
X20351534Y-3356839D02*
X20275344Y-3394934D01*
X20275344Y-3394934D02*
X19970582Y-3394934D01*
X20580106Y-3852077D02*
X21189629Y-3852077D01*
X21837249Y-3699696D02*
X21799153Y-3737792D01*
X21799153Y-3737792D02*
X21684868Y-3775887D01*
X21684868Y-3775887D02*
X21608677Y-3775887D01*
X21608677Y-3775887D02*
X21494391Y-3737792D01*
X21494391Y-3737792D02*
X21418201Y-3661601D01*
X21418201Y-3661601D02*
X21380106Y-3585411D01*
X21380106Y-3585411D02*
X21342010Y-3433030D01*
X21342010Y-3433030D02*
X21342010Y-3318744D01*
X21342010Y-3318744D02*
X21380106Y-3166363D01*
X21380106Y-3166363D02*
X21418201Y-3090172D01*
X21418201Y-3090172D02*
X21494391Y-3013982D01*
X21494391Y-3013982D02*
X21608677Y-2975887D01*
X21608677Y-2975887D02*
X21684868Y-2975887D01*
X21684868Y-2975887D02*
X21799153Y-3013982D01*
X21799153Y-3013982D02*
X21837249Y-3052077D01*
X22637249Y-3699696D02*
X22599153Y-3737792D01*
X22599153Y-3737792D02*
X22484868Y-3775887D01*
X22484868Y-3775887D02*
X22408677Y-3775887D01*
X22408677Y-3775887D02*
X22294391Y-3737792D01*
X22294391Y-3737792D02*
X22218201Y-3661601D01*
X22218201Y-3661601D02*
X22180106Y-3585411D01*
X22180106Y-3585411D02*
X22142010Y-3433030D01*
X22142010Y-3433030D02*
X22142010Y-3318744D01*
X22142010Y-3318744D02*
X22180106Y-3166363D01*
X22180106Y-3166363D02*
X22218201Y-3090172D01*
X22218201Y-3090172D02*
X22294391Y-3013982D01*
X22294391Y-3013982D02*
X22408677Y-2975887D01*
X22408677Y-2975887D02*
X22484868Y-2975887D01*
X22484868Y-2975887D02*
X22599153Y-3013982D01*
X22599153Y-3013982D02*
X22637249Y-3052077D01*
X22942010Y-3052077D02*
X22980106Y-3013982D01*
X22980106Y-3013982D02*
X23056296Y-2975887D01*
X23056296Y-2975887D02*
X23246772Y-2975887D01*
X23246772Y-2975887D02*
X23322963Y-3013982D01*
X23322963Y-3013982D02*
X23361058Y-3052077D01*
X23361058Y-3052077D02*
X23399153Y-3128268D01*
X23399153Y-3128268D02*
X23399153Y-3204458D01*
X23399153Y-3204458D02*
X23361058Y-3318744D01*
X23361058Y-3318744D02*
X22903915Y-3775887D01*
X22903915Y-3775887D02*
X23399153Y-3775887D01*
X70158142Y-12341940D02*
X70272428Y-12380035D01*
X70272428Y-12380035D02*
X70462904Y-12380035D01*
X70462904Y-12380035D02*
X70539095Y-12341940D01*
X70539095Y-12341940D02*
X70577190Y-12303844D01*
X70577190Y-12303844D02*
X70615285Y-12227654D01*
X70615285Y-12227654D02*
X70615285Y-12151463D01*
X70615285Y-12151463D02*
X70577190Y-12075273D01*
X70577190Y-12075273D02*
X70539095Y-12037178D01*
X70539095Y-12037178D02*
X70462904Y-11999082D01*
X70462904Y-11999082D02*
X70310523Y-11960987D01*
X70310523Y-11960987D02*
X70234333Y-11922892D01*
X70234333Y-11922892D02*
X70196238Y-11884797D01*
X70196238Y-11884797D02*
X70158142Y-11808606D01*
X70158142Y-11808606D02*
X70158142Y-11732416D01*
X70158142Y-11732416D02*
X70196238Y-11656225D01*
X70196238Y-11656225D02*
X70234333Y-11618130D01*
X70234333Y-11618130D02*
X70310523Y-11580035D01*
X70310523Y-11580035D02*
X70501000Y-11580035D01*
X70501000Y-11580035D02*
X70615285Y-11618130D01*
X70881952Y-11580035D02*
X71072428Y-12380035D01*
X71072428Y-12380035D02*
X71224809Y-11808606D01*
X71224809Y-11808606D02*
X71377190Y-12380035D01*
X71377190Y-12380035D02*
X71567667Y-11580035D01*
X71681953Y-12456225D02*
X72291476Y-12456225D01*
X72481953Y-11580035D02*
X72481953Y-12227654D01*
X72481953Y-12227654D02*
X72520048Y-12303844D01*
X72520048Y-12303844D02*
X72558143Y-12341940D01*
X72558143Y-12341940D02*
X72634334Y-12380035D01*
X72634334Y-12380035D02*
X72786715Y-12380035D01*
X72786715Y-12380035D02*
X72862905Y-12341940D01*
X72862905Y-12341940D02*
X72901000Y-12303844D01*
X72901000Y-12303844D02*
X72939096Y-12227654D01*
X72939096Y-12227654D02*
X72939096Y-11580035D01*
X73281952Y-12341940D02*
X73396238Y-12380035D01*
X73396238Y-12380035D02*
X73586714Y-12380035D01*
X73586714Y-12380035D02*
X73662905Y-12341940D01*
X73662905Y-12341940D02*
X73701000Y-12303844D01*
X73701000Y-12303844D02*
X73739095Y-12227654D01*
X73739095Y-12227654D02*
X73739095Y-12151463D01*
X73739095Y-12151463D02*
X73701000Y-12075273D01*
X73701000Y-12075273D02*
X73662905Y-12037178D01*
X73662905Y-12037178D02*
X73586714Y-11999082D01*
X73586714Y-11999082D02*
X73434333Y-11960987D01*
X73434333Y-11960987D02*
X73358143Y-11922892D01*
X73358143Y-11922892D02*
X73320048Y-11884797D01*
X73320048Y-11884797D02*
X73281952Y-11808606D01*
X73281952Y-11808606D02*
X73281952Y-11732416D01*
X73281952Y-11732416D02*
X73320048Y-11656225D01*
X73320048Y-11656225D02*
X73358143Y-11618130D01*
X73358143Y-11618130D02*
X73434333Y-11580035D01*
X73434333Y-11580035D02*
X73624810Y-11580035D01*
X73624810Y-11580035D02*
X73739095Y-11618130D01*
X74081953Y-11960987D02*
X74348619Y-11960987D01*
X74462905Y-12380035D02*
X74081953Y-12380035D01*
X74081953Y-12380035D02*
X74081953Y-11580035D01*
X74081953Y-11580035D02*
X74462905Y-11580035D01*
X75262906Y-12380035D02*
X74996239Y-11999082D01*
X74805763Y-12380035D02*
X74805763Y-11580035D01*
X74805763Y-11580035D02*
X75110525Y-11580035D01*
X75110525Y-11580035D02*
X75186715Y-11618130D01*
X75186715Y-11618130D02*
X75224810Y-11656225D01*
X75224810Y-11656225D02*
X75262906Y-11732416D01*
X75262906Y-11732416D02*
X75262906Y-11846701D01*
X75262906Y-11846701D02*
X75224810Y-11922892D01*
X75224810Y-11922892D02*
X75186715Y-11960987D01*
X75186715Y-11960987D02*
X75110525Y-11999082D01*
X75110525Y-11999082D02*
X74805763Y-11999082D01*
X65698435Y-22460987D02*
X65965101Y-22460987D01*
X66079387Y-22880035D02*
X65698435Y-22880035D01*
X65698435Y-22880035D02*
X65698435Y-22080035D01*
X65698435Y-22080035D02*
X66079387Y-22080035D01*
X66384149Y-22841940D02*
X66498435Y-22880035D01*
X66498435Y-22880035D02*
X66688911Y-22880035D01*
X66688911Y-22880035D02*
X66765102Y-22841940D01*
X66765102Y-22841940D02*
X66803197Y-22803844D01*
X66803197Y-22803844D02*
X66841292Y-22727654D01*
X66841292Y-22727654D02*
X66841292Y-22651463D01*
X66841292Y-22651463D02*
X66803197Y-22575273D01*
X66803197Y-22575273D02*
X66765102Y-22537178D01*
X66765102Y-22537178D02*
X66688911Y-22499082D01*
X66688911Y-22499082D02*
X66536530Y-22460987D01*
X66536530Y-22460987D02*
X66460340Y-22422892D01*
X66460340Y-22422892D02*
X66422245Y-22384797D01*
X66422245Y-22384797D02*
X66384149Y-22308606D01*
X66384149Y-22308606D02*
X66384149Y-22232416D01*
X66384149Y-22232416D02*
X66422245Y-22156225D01*
X66422245Y-22156225D02*
X66460340Y-22118130D01*
X66460340Y-22118130D02*
X66536530Y-22080035D01*
X66536530Y-22080035D02*
X66727007Y-22080035D01*
X66727007Y-22080035D02*
X66841292Y-22118130D01*
X67184150Y-22880035D02*
X67184150Y-22080035D01*
X67184150Y-22080035D02*
X67374626Y-22080035D01*
X67374626Y-22080035D02*
X67488912Y-22118130D01*
X67488912Y-22118130D02*
X67565102Y-22194320D01*
X67565102Y-22194320D02*
X67603197Y-22270511D01*
X67603197Y-22270511D02*
X67641293Y-22422892D01*
X67641293Y-22422892D02*
X67641293Y-22537178D01*
X67641293Y-22537178D02*
X67603197Y-22689559D01*
X67603197Y-22689559D02*
X67565102Y-22765749D01*
X67565102Y-22765749D02*
X67488912Y-22841940D01*
X67488912Y-22841940D02*
X67374626Y-22880035D01*
X67374626Y-22880035D02*
X67184150Y-22880035D01*
X67793674Y-22956225D02*
X68403197Y-22956225D01*
X68593674Y-22880035D02*
X68593674Y-22080035D01*
X68593674Y-22460987D02*
X69050817Y-22460987D01*
X69050817Y-22880035D02*
X69050817Y-22080035D01*
X56819331Y-23003128D02*
X56552664Y-22622175D01*
X56362188Y-23003128D02*
X56362188Y-22203128D01*
X56362188Y-22203128D02*
X56666950Y-22203128D01*
X56666950Y-22203128D02*
X56743140Y-22241223D01*
X56743140Y-22241223D02*
X56781235Y-22279318D01*
X56781235Y-22279318D02*
X56819331Y-22355509D01*
X56819331Y-22355509D02*
X56819331Y-22469794D01*
X56819331Y-22469794D02*
X56781235Y-22545985D01*
X56781235Y-22545985D02*
X56743140Y-22584080D01*
X56743140Y-22584080D02*
X56666950Y-22622175D01*
X56666950Y-22622175D02*
X56362188Y-22622175D01*
X56971712Y-23079318D02*
X57581235Y-23079318D01*
X57771712Y-23003128D02*
X57771712Y-22203128D01*
X57771712Y-22584080D02*
X58228855Y-22584080D01*
X58228855Y-23003128D02*
X58228855Y-22203128D01*
X58609807Y-23003128D02*
X58609807Y-22203128D01*
X58609807Y-22203128D02*
X58800283Y-22203128D01*
X58800283Y-22203128D02*
X58914569Y-22241223D01*
X58914569Y-22241223D02*
X58990759Y-22317413D01*
X58990759Y-22317413D02*
X59028854Y-22393604D01*
X59028854Y-22393604D02*
X59066950Y-22545985D01*
X59066950Y-22545985D02*
X59066950Y-22660271D01*
X59066950Y-22660271D02*
X59028854Y-22812652D01*
X59028854Y-22812652D02*
X58990759Y-22888842D01*
X58990759Y-22888842D02*
X58914569Y-22965033D01*
X58914569Y-22965033D02*
X58800283Y-23003128D01*
X58800283Y-23003128D02*
X58609807Y-23003128D01*
X59409807Y-23003128D02*
X59409807Y-22203128D01*
X59409807Y-22203128D02*
X59676473Y-22774556D01*
X59676473Y-22774556D02*
X59943140Y-22203128D01*
X59943140Y-22203128D02*
X59943140Y-23003128D01*
X50717688Y-11220797D02*
X50451021Y-10839844D01*
X50260545Y-11220797D02*
X50260545Y-10420797D01*
X50260545Y-10420797D02*
X50565307Y-10420797D01*
X50565307Y-10420797D02*
X50641497Y-10458892D01*
X50641497Y-10458892D02*
X50679592Y-10496987D01*
X50679592Y-10496987D02*
X50717688Y-10573178D01*
X50717688Y-10573178D02*
X50717688Y-10687463D01*
X50717688Y-10687463D02*
X50679592Y-10763654D01*
X50679592Y-10763654D02*
X50641497Y-10801749D01*
X50641497Y-10801749D02*
X50565307Y-10839844D01*
X50565307Y-10839844D02*
X50260545Y-10839844D01*
X50870069Y-11296987D02*
X51479592Y-11296987D01*
X51670069Y-11220797D02*
X51670069Y-10420797D01*
X51670069Y-10420797D02*
X52127212Y-11220797D01*
X52127212Y-11220797D02*
X52127212Y-10420797D01*
X52393878Y-10420797D02*
X52660545Y-11220797D01*
X52660545Y-11220797D02*
X52927211Y-10420797D01*
X53193878Y-11220797D02*
X53193878Y-10420797D01*
X53193878Y-10420797D02*
X53384354Y-10420797D01*
X53384354Y-10420797D02*
X53498640Y-10458892D01*
X53498640Y-10458892D02*
X53574830Y-10535082D01*
X53574830Y-10535082D02*
X53612925Y-10611273D01*
X53612925Y-10611273D02*
X53651021Y-10763654D01*
X53651021Y-10763654D02*
X53651021Y-10877940D01*
X53651021Y-10877940D02*
X53612925Y-11030321D01*
X53612925Y-11030321D02*
X53574830Y-11106511D01*
X53574830Y-11106511D02*
X53498640Y-11182702D01*
X53498640Y-11182702D02*
X53384354Y-11220797D01*
X53384354Y-11220797D02*
X53193878Y-11220797D01*
X53803402Y-11296987D02*
X54412925Y-11296987D01*
X54870068Y-10801749D02*
X54984354Y-10839844D01*
X54984354Y-10839844D02*
X55022449Y-10877940D01*
X55022449Y-10877940D02*
X55060545Y-10954130D01*
X55060545Y-10954130D02*
X55060545Y-11068416D01*
X55060545Y-11068416D02*
X55022449Y-11144606D01*
X55022449Y-11144606D02*
X54984354Y-11182702D01*
X54984354Y-11182702D02*
X54908164Y-11220797D01*
X54908164Y-11220797D02*
X54603402Y-11220797D01*
X54603402Y-11220797D02*
X54603402Y-10420797D01*
X54603402Y-10420797D02*
X54870068Y-10420797D01*
X54870068Y-10420797D02*
X54946259Y-10458892D01*
X54946259Y-10458892D02*
X54984354Y-10496987D01*
X54984354Y-10496987D02*
X55022449Y-10573178D01*
X55022449Y-10573178D02*
X55022449Y-10649368D01*
X55022449Y-10649368D02*
X54984354Y-10725559D01*
X54984354Y-10725559D02*
X54946259Y-10763654D01*
X54946259Y-10763654D02*
X54870068Y-10801749D01*
X54870068Y-10801749D02*
X54603402Y-10801749D01*
X81129285Y-55681104D02*
X81091189Y-55719200D01*
X81091189Y-55719200D02*
X80976904Y-55757295D01*
X80976904Y-55757295D02*
X80900713Y-55757295D01*
X80900713Y-55757295D02*
X80786427Y-55719200D01*
X80786427Y-55719200D02*
X80710237Y-55643009D01*
X80710237Y-55643009D02*
X80672142Y-55566819D01*
X80672142Y-55566819D02*
X80634046Y-55414438D01*
X80634046Y-55414438D02*
X80634046Y-55300152D01*
X80634046Y-55300152D02*
X80672142Y-55147771D01*
X80672142Y-55147771D02*
X80710237Y-55071580D01*
X80710237Y-55071580D02*
X80786427Y-54995390D01*
X80786427Y-54995390D02*
X80900713Y-54957295D01*
X80900713Y-54957295D02*
X80976904Y-54957295D01*
X80976904Y-54957295D02*
X81091189Y-54995390D01*
X81091189Y-54995390D02*
X81129285Y-55033485D01*
X81281666Y-55833485D02*
X81891189Y-55833485D01*
X82081666Y-55757295D02*
X82081666Y-54957295D01*
X82081666Y-54957295D02*
X82538809Y-55757295D01*
X82538809Y-55757295D02*
X82538809Y-54957295D01*
X83376904Y-55757295D02*
X83110237Y-55376342D01*
X82919761Y-55757295D02*
X82919761Y-54957295D01*
X82919761Y-54957295D02*
X83224523Y-54957295D01*
X83224523Y-54957295D02*
X83300713Y-54995390D01*
X83300713Y-54995390D02*
X83338808Y-55033485D01*
X83338808Y-55033485D02*
X83376904Y-55109676D01*
X83376904Y-55109676D02*
X83376904Y-55223961D01*
X83376904Y-55223961D02*
X83338808Y-55300152D01*
X83338808Y-55300152D02*
X83300713Y-55338247D01*
X83300713Y-55338247D02*
X83224523Y-55376342D01*
X83224523Y-55376342D02*
X82919761Y-55376342D01*
X83719761Y-55338247D02*
X83986427Y-55338247D01*
X84100713Y-55757295D02*
X83719761Y-55757295D01*
X83719761Y-55757295D02*
X83719761Y-54957295D01*
X83719761Y-54957295D02*
X84100713Y-54957295D01*
X84405475Y-55719200D02*
X84519761Y-55757295D01*
X84519761Y-55757295D02*
X84710237Y-55757295D01*
X84710237Y-55757295D02*
X84786428Y-55719200D01*
X84786428Y-55719200D02*
X84824523Y-55681104D01*
X84824523Y-55681104D02*
X84862618Y-55604914D01*
X84862618Y-55604914D02*
X84862618Y-55528723D01*
X84862618Y-55528723D02*
X84824523Y-55452533D01*
X84824523Y-55452533D02*
X84786428Y-55414438D01*
X84786428Y-55414438D02*
X84710237Y-55376342D01*
X84710237Y-55376342D02*
X84557856Y-55338247D01*
X84557856Y-55338247D02*
X84481666Y-55300152D01*
X84481666Y-55300152D02*
X84443571Y-55262057D01*
X84443571Y-55262057D02*
X84405475Y-55185866D01*
X84405475Y-55185866D02*
X84405475Y-55109676D01*
X84405475Y-55109676D02*
X84443571Y-55033485D01*
X84443571Y-55033485D02*
X84481666Y-54995390D01*
X84481666Y-54995390D02*
X84557856Y-54957295D01*
X84557856Y-54957295D02*
X84748333Y-54957295D01*
X84748333Y-54957295D02*
X84862618Y-54995390D01*
X85205476Y-55338247D02*
X85472142Y-55338247D01*
X85586428Y-55757295D02*
X85205476Y-55757295D01*
X85205476Y-55757295D02*
X85205476Y-54957295D01*
X85205476Y-54957295D02*
X85586428Y-54957295D01*
X85815000Y-54957295D02*
X86272143Y-54957295D01*
X86043571Y-55757295D02*
X86043571Y-54957295D01*
X65293530Y-29547241D02*
X64912577Y-29813908D01*
X65293530Y-30004384D02*
X64493530Y-30004384D01*
X64493530Y-30004384D02*
X64493530Y-29699622D01*
X64493530Y-29699622D02*
X64531625Y-29623432D01*
X64531625Y-29623432D02*
X64569720Y-29585337D01*
X64569720Y-29585337D02*
X64645911Y-29547241D01*
X64645911Y-29547241D02*
X64760196Y-29547241D01*
X64760196Y-29547241D02*
X64836387Y-29585337D01*
X64836387Y-29585337D02*
X64874482Y-29623432D01*
X64874482Y-29623432D02*
X64912577Y-29699622D01*
X64912577Y-29699622D02*
X64912577Y-30004384D01*
X65369720Y-29394861D02*
X65369720Y-28785337D01*
X65293530Y-28594860D02*
X64493530Y-28594860D01*
X64874482Y-28594860D02*
X64874482Y-28137717D01*
X65293530Y-28137717D02*
X64493530Y-28137717D01*
X65293530Y-27756765D02*
X64493530Y-27756765D01*
X64493530Y-27756765D02*
X64493530Y-27566289D01*
X64493530Y-27566289D02*
X64531625Y-27452003D01*
X64531625Y-27452003D02*
X64607815Y-27375813D01*
X64607815Y-27375813D02*
X64684006Y-27337718D01*
X64684006Y-27337718D02*
X64836387Y-27299622D01*
X64836387Y-27299622D02*
X64950673Y-27299622D01*
X64950673Y-27299622D02*
X65103054Y-27337718D01*
X65103054Y-27337718D02*
X65179244Y-27375813D01*
X65179244Y-27375813D02*
X65255435Y-27452003D01*
X65255435Y-27452003D02*
X65293530Y-27566289D01*
X65293530Y-27566289D02*
X65293530Y-27756765D01*
X65293530Y-26956765D02*
X64493530Y-26956765D01*
X64493530Y-26956765D02*
X65064958Y-26690099D01*
X65064958Y-26690099D02*
X64493530Y-26423432D01*
X64493530Y-26423432D02*
X65293530Y-26423432D01*
X65369720Y-26232956D02*
X65369720Y-25623432D01*
X65293530Y-25432955D02*
X64493530Y-25432955D01*
X64493530Y-25432955D02*
X64493530Y-25128193D01*
X64493530Y-25128193D02*
X64531625Y-25052003D01*
X64531625Y-25052003D02*
X64569720Y-25013908D01*
X64569720Y-25013908D02*
X64645911Y-24975812D01*
X64645911Y-24975812D02*
X64760196Y-24975812D01*
X64760196Y-24975812D02*
X64836387Y-25013908D01*
X64836387Y-25013908D02*
X64874482Y-25052003D01*
X64874482Y-25052003D02*
X64912577Y-25128193D01*
X64912577Y-25128193D02*
X64912577Y-25432955D01*
X65293530Y-24632955D02*
X64493530Y-24632955D01*
X64493530Y-24632955D02*
X64493530Y-24442479D01*
X64493530Y-24442479D02*
X64531625Y-24328193D01*
X64531625Y-24328193D02*
X64607815Y-24252003D01*
X64607815Y-24252003D02*
X64684006Y-24213908D01*
X64684006Y-24213908D02*
X64836387Y-24175812D01*
X64836387Y-24175812D02*
X64950673Y-24175812D01*
X64950673Y-24175812D02*
X65103054Y-24213908D01*
X65103054Y-24213908D02*
X65179244Y-24252003D01*
X65179244Y-24252003D02*
X65255435Y-24328193D01*
X65255435Y-24328193D02*
X65293530Y-24442479D01*
X65293530Y-24442479D02*
X65293530Y-24632955D01*
X69119952Y-47446533D02*
X68853285Y-47065580D01*
X68662809Y-47446533D02*
X68662809Y-46646533D01*
X68662809Y-46646533D02*
X68967571Y-46646533D01*
X68967571Y-46646533D02*
X69043761Y-46684628D01*
X69043761Y-46684628D02*
X69081856Y-46722723D01*
X69081856Y-46722723D02*
X69119952Y-46798914D01*
X69119952Y-46798914D02*
X69119952Y-46913199D01*
X69119952Y-46913199D02*
X69081856Y-46989390D01*
X69081856Y-46989390D02*
X69043761Y-47027485D01*
X69043761Y-47027485D02*
X68967571Y-47065580D01*
X68967571Y-47065580D02*
X68662809Y-47065580D01*
X69272333Y-47522723D02*
X69881856Y-47522723D01*
X70072333Y-47446533D02*
X70072333Y-46646533D01*
X70072333Y-46646533D02*
X70262809Y-46646533D01*
X70262809Y-46646533D02*
X70377095Y-46684628D01*
X70377095Y-46684628D02*
X70453285Y-46760818D01*
X70453285Y-46760818D02*
X70491380Y-46837009D01*
X70491380Y-46837009D02*
X70529476Y-46989390D01*
X70529476Y-46989390D02*
X70529476Y-47103676D01*
X70529476Y-47103676D02*
X70491380Y-47256057D01*
X70491380Y-47256057D02*
X70453285Y-47332247D01*
X70453285Y-47332247D02*
X70377095Y-47408438D01*
X70377095Y-47408438D02*
X70262809Y-47446533D01*
X70262809Y-47446533D02*
X70072333Y-47446533D01*
X70872333Y-47446533D02*
X70872333Y-46646533D01*
X70872333Y-46646533D02*
X71062809Y-46646533D01*
X71062809Y-46646533D02*
X71177095Y-46684628D01*
X71177095Y-46684628D02*
X71253285Y-46760818D01*
X71253285Y-46760818D02*
X71291380Y-46837009D01*
X71291380Y-46837009D02*
X71329476Y-46989390D01*
X71329476Y-46989390D02*
X71329476Y-47103676D01*
X71329476Y-47103676D02*
X71291380Y-47256057D01*
X71291380Y-47256057D02*
X71253285Y-47332247D01*
X71253285Y-47332247D02*
X71177095Y-47408438D01*
X71177095Y-47408438D02*
X71062809Y-47446533D01*
X71062809Y-47446533D02*
X70872333Y-47446533D01*
X71672333Y-47446533D02*
X71672333Y-46646533D01*
X71672333Y-46646533D02*
X71938999Y-47217961D01*
X71938999Y-47217961D02*
X72205666Y-46646533D01*
X72205666Y-46646533D02*
X72205666Y-47446533D01*
X25752381Y-12591104D02*
X25714285Y-12629200D01*
X25714285Y-12629200D02*
X25600000Y-12667295D01*
X25600000Y-12667295D02*
X25523809Y-12667295D01*
X25523809Y-12667295D02*
X25409523Y-12629200D01*
X25409523Y-12629200D02*
X25333333Y-12553009D01*
X25333333Y-12553009D02*
X25295238Y-12476819D01*
X25295238Y-12476819D02*
X25257142Y-12324438D01*
X25257142Y-12324438D02*
X25257142Y-12210152D01*
X25257142Y-12210152D02*
X25295238Y-12057771D01*
X25295238Y-12057771D02*
X25333333Y-11981580D01*
X25333333Y-11981580D02*
X25409523Y-11905390D01*
X25409523Y-11905390D02*
X25523809Y-11867295D01*
X25523809Y-11867295D02*
X25600000Y-11867295D01*
X25600000Y-11867295D02*
X25714285Y-11905390D01*
X25714285Y-11905390D02*
X25752381Y-11943485D01*
X25904762Y-12743485D02*
X26514285Y-12743485D01*
X26704762Y-12667295D02*
X26704762Y-11867295D01*
X26704762Y-11867295D02*
X27009524Y-11867295D01*
X27009524Y-11867295D02*
X27085714Y-11905390D01*
X27085714Y-11905390D02*
X27123809Y-11943485D01*
X27123809Y-11943485D02*
X27161905Y-12019676D01*
X27161905Y-12019676D02*
X27161905Y-12133961D01*
X27161905Y-12133961D02*
X27123809Y-12210152D01*
X27123809Y-12210152D02*
X27085714Y-12248247D01*
X27085714Y-12248247D02*
X27009524Y-12286342D01*
X27009524Y-12286342D02*
X26704762Y-12286342D01*
X27428571Y-11867295D02*
X27923809Y-11867295D01*
X27923809Y-11867295D02*
X27657143Y-12172057D01*
X27657143Y-12172057D02*
X27771428Y-12172057D01*
X27771428Y-12172057D02*
X27847619Y-12210152D01*
X27847619Y-12210152D02*
X27885714Y-12248247D01*
X27885714Y-12248247D02*
X27923809Y-12324438D01*
X27923809Y-12324438D02*
X27923809Y-12514914D01*
X27923809Y-12514914D02*
X27885714Y-12591104D01*
X27885714Y-12591104D02*
X27847619Y-12629200D01*
X27847619Y-12629200D02*
X27771428Y-12667295D01*
X27771428Y-12667295D02*
X27542857Y-12667295D01*
X27542857Y-12667295D02*
X27466666Y-12629200D01*
X27466666Y-12629200D02*
X27428571Y-12591104D01*
X28152381Y-11867295D02*
X28419048Y-12667295D01*
X28419048Y-12667295D02*
X28685714Y-11867295D01*
X28876190Y-11867295D02*
X29371428Y-11867295D01*
X29371428Y-11867295D02*
X29104762Y-12172057D01*
X29104762Y-12172057D02*
X29219047Y-12172057D01*
X29219047Y-12172057D02*
X29295238Y-12210152D01*
X29295238Y-12210152D02*
X29333333Y-12248247D01*
X29333333Y-12248247D02*
X29371428Y-12324438D01*
X29371428Y-12324438D02*
X29371428Y-12514914D01*
X29371428Y-12514914D02*
X29333333Y-12591104D01*
X29333333Y-12591104D02*
X29295238Y-12629200D01*
X29295238Y-12629200D02*
X29219047Y-12667295D01*
X29219047Y-12667295D02*
X28990476Y-12667295D01*
X28990476Y-12667295D02*
X28914285Y-12629200D01*
X28914285Y-12629200D02*
X28876190Y-12591104D01*
X29523810Y-12743485D02*
X30133333Y-12743485D01*
X30742857Y-12667295D02*
X30285714Y-12667295D01*
X30514286Y-12667295D02*
X30514286Y-11867295D01*
X30514286Y-11867295D02*
X30438095Y-11981580D01*
X30438095Y-11981580D02*
X30361905Y-12057771D01*
X30361905Y-12057771D02*
X30285714Y-12095866D01*
X10005490Y-54144452D02*
X10005490Y-54715880D01*
X10005490Y-54715880D02*
X9967395Y-54830166D01*
X9967395Y-54830166D02*
X9891204Y-54906357D01*
X9891204Y-54906357D02*
X9776919Y-54944452D01*
X9776919Y-54944452D02*
X9700728Y-54944452D01*
X10310252Y-54144452D02*
X10805490Y-54144452D01*
X10805490Y-54144452D02*
X10538824Y-54449214D01*
X10538824Y-54449214D02*
X10653109Y-54449214D01*
X10653109Y-54449214D02*
X10729300Y-54487309D01*
X10729300Y-54487309D02*
X10767395Y-54525404D01*
X10767395Y-54525404D02*
X10805490Y-54601595D01*
X10805490Y-54601595D02*
X10805490Y-54792071D01*
X10805490Y-54792071D02*
X10767395Y-54868261D01*
X10767395Y-54868261D02*
X10729300Y-54906357D01*
X10729300Y-54906357D02*
X10653109Y-54944452D01*
X10653109Y-54944452D02*
X10424538Y-54944452D01*
X10424538Y-54944452D02*
X10348347Y-54906357D01*
X10348347Y-54906357D02*
X10310252Y-54868261D01*
X60664222Y-18158543D02*
X61121365Y-18158543D01*
X60892793Y-18958543D02*
X60892793Y-18158543D01*
X61388032Y-18958543D02*
X61388032Y-18158543D01*
X61388032Y-18158543D02*
X61692794Y-18158543D01*
X61692794Y-18158543D02*
X61768984Y-18196638D01*
X61768984Y-18196638D02*
X61807079Y-18234733D01*
X61807079Y-18234733D02*
X61845175Y-18310924D01*
X61845175Y-18310924D02*
X61845175Y-18425209D01*
X61845175Y-18425209D02*
X61807079Y-18501400D01*
X61807079Y-18501400D02*
X61768984Y-18539495D01*
X61768984Y-18539495D02*
X61692794Y-18577590D01*
X61692794Y-18577590D02*
X61388032Y-18577590D01*
X62607079Y-18958543D02*
X62149936Y-18958543D01*
X62378508Y-18958543D02*
X62378508Y-18158543D01*
X62378508Y-18158543D02*
X62302317Y-18272828D01*
X62302317Y-18272828D02*
X62226127Y-18349019D01*
X62226127Y-18349019D02*
X62149936Y-18387114D01*
X85203909Y-51344316D02*
X84937242Y-50963363D01*
X84746766Y-51344316D02*
X84746766Y-50544316D01*
X84746766Y-50544316D02*
X85051528Y-50544316D01*
X85051528Y-50544316D02*
X85127718Y-50582411D01*
X85127718Y-50582411D02*
X85165813Y-50620506D01*
X85165813Y-50620506D02*
X85203909Y-50696697D01*
X85203909Y-50696697D02*
X85203909Y-50810982D01*
X85203909Y-50810982D02*
X85165813Y-50887173D01*
X85165813Y-50887173D02*
X85127718Y-50925268D01*
X85127718Y-50925268D02*
X85051528Y-50963363D01*
X85051528Y-50963363D02*
X84746766Y-50963363D01*
X85356290Y-51420506D02*
X85965813Y-51420506D01*
X86384861Y-50544316D02*
X86384861Y-51115744D01*
X86384861Y-51115744D02*
X86346766Y-51230030D01*
X86346766Y-51230030D02*
X86270575Y-51306221D01*
X86270575Y-51306221D02*
X86156290Y-51344316D01*
X86156290Y-51344316D02*
X86080099Y-51344316D01*
X86803909Y-51344316D02*
X86956290Y-51344316D01*
X86956290Y-51344316D02*
X87032480Y-51306221D01*
X87032480Y-51306221D02*
X87070576Y-51268125D01*
X87070576Y-51268125D02*
X87146766Y-51153840D01*
X87146766Y-51153840D02*
X87184861Y-51001459D01*
X87184861Y-51001459D02*
X87184861Y-50696697D01*
X87184861Y-50696697D02*
X87146766Y-50620506D01*
X87146766Y-50620506D02*
X87108671Y-50582411D01*
X87108671Y-50582411D02*
X87032480Y-50544316D01*
X87032480Y-50544316D02*
X86880099Y-50544316D01*
X86880099Y-50544316D02*
X86803909Y-50582411D01*
X86803909Y-50582411D02*
X86765814Y-50620506D01*
X86765814Y-50620506D02*
X86727718Y-50696697D01*
X86727718Y-50696697D02*
X86727718Y-50887173D01*
X86727718Y-50887173D02*
X86765814Y-50963363D01*
X86765814Y-50963363D02*
X86803909Y-51001459D01*
X86803909Y-51001459D02*
X86880099Y-51039554D01*
X86880099Y-51039554D02*
X87032480Y-51039554D01*
X87032480Y-51039554D02*
X87108671Y-51001459D01*
X87108671Y-51001459D02*
X87146766Y-50963363D01*
X87146766Y-50963363D02*
X87184861Y-50887173D01*
X87413433Y-50544316D02*
X87680100Y-51344316D01*
X87680100Y-51344316D02*
X87946766Y-50544316D01*
X88213433Y-51344316D02*
X88213433Y-50544316D01*
X88213433Y-50544316D02*
X88403909Y-50544316D01*
X88403909Y-50544316D02*
X88518195Y-50582411D01*
X88518195Y-50582411D02*
X88594385Y-50658601D01*
X88594385Y-50658601D02*
X88632480Y-50734792D01*
X88632480Y-50734792D02*
X88670576Y-50887173D01*
X88670576Y-50887173D02*
X88670576Y-51001459D01*
X88670576Y-51001459D02*
X88632480Y-51153840D01*
X88632480Y-51153840D02*
X88594385Y-51230030D01*
X88594385Y-51230030D02*
X88518195Y-51306221D01*
X88518195Y-51306221D02*
X88403909Y-51344316D01*
X88403909Y-51344316D02*
X88213433Y-51344316D01*
X88822957Y-51420506D02*
X89432480Y-51420506D01*
X89508671Y-50544316D02*
X89965814Y-50544316D01*
X89737242Y-51344316D02*
X89737242Y-50544316D01*
X77261905Y-57837295D02*
X76995238Y-57456342D01*
X76804762Y-57837295D02*
X76804762Y-57037295D01*
X76804762Y-57037295D02*
X77109524Y-57037295D01*
X77109524Y-57037295D02*
X77185714Y-57075390D01*
X77185714Y-57075390D02*
X77223809Y-57113485D01*
X77223809Y-57113485D02*
X77261905Y-57189676D01*
X77261905Y-57189676D02*
X77261905Y-57303961D01*
X77261905Y-57303961D02*
X77223809Y-57380152D01*
X77223809Y-57380152D02*
X77185714Y-57418247D01*
X77185714Y-57418247D02*
X77109524Y-57456342D01*
X77109524Y-57456342D02*
X76804762Y-57456342D01*
X77414286Y-57913485D02*
X78023809Y-57913485D01*
X78671429Y-57761104D02*
X78633333Y-57799200D01*
X78633333Y-57799200D02*
X78519048Y-57837295D01*
X78519048Y-57837295D02*
X78442857Y-57837295D01*
X78442857Y-57837295D02*
X78328571Y-57799200D01*
X78328571Y-57799200D02*
X78252381Y-57723009D01*
X78252381Y-57723009D02*
X78214286Y-57646819D01*
X78214286Y-57646819D02*
X78176190Y-57494438D01*
X78176190Y-57494438D02*
X78176190Y-57380152D01*
X78176190Y-57380152D02*
X78214286Y-57227771D01*
X78214286Y-57227771D02*
X78252381Y-57151580D01*
X78252381Y-57151580D02*
X78328571Y-57075390D01*
X78328571Y-57075390D02*
X78442857Y-57037295D01*
X78442857Y-57037295D02*
X78519048Y-57037295D01*
X78519048Y-57037295D02*
X78633333Y-57075390D01*
X78633333Y-57075390D02*
X78671429Y-57113485D01*
X79471429Y-57761104D02*
X79433333Y-57799200D01*
X79433333Y-57799200D02*
X79319048Y-57837295D01*
X79319048Y-57837295D02*
X79242857Y-57837295D01*
X79242857Y-57837295D02*
X79128571Y-57799200D01*
X79128571Y-57799200D02*
X79052381Y-57723009D01*
X79052381Y-57723009D02*
X79014286Y-57646819D01*
X79014286Y-57646819D02*
X78976190Y-57494438D01*
X78976190Y-57494438D02*
X78976190Y-57380152D01*
X78976190Y-57380152D02*
X79014286Y-57227771D01*
X79014286Y-57227771D02*
X79052381Y-57151580D01*
X79052381Y-57151580D02*
X79128571Y-57075390D01*
X79128571Y-57075390D02*
X79242857Y-57037295D01*
X79242857Y-57037295D02*
X79319048Y-57037295D01*
X79319048Y-57037295D02*
X79433333Y-57075390D01*
X79433333Y-57075390D02*
X79471429Y-57113485D01*
X79738095Y-57037295D02*
X80233333Y-57037295D01*
X80233333Y-57037295D02*
X79966667Y-57342057D01*
X79966667Y-57342057D02*
X80080952Y-57342057D01*
X80080952Y-57342057D02*
X80157143Y-57380152D01*
X80157143Y-57380152D02*
X80195238Y-57418247D01*
X80195238Y-57418247D02*
X80233333Y-57494438D01*
X80233333Y-57494438D02*
X80233333Y-57684914D01*
X80233333Y-57684914D02*
X80195238Y-57761104D01*
X80195238Y-57761104D02*
X80157143Y-57799200D01*
X80157143Y-57799200D02*
X80080952Y-57837295D01*
X80080952Y-57837295D02*
X79852381Y-57837295D01*
X79852381Y-57837295D02*
X79776190Y-57799200D01*
X79776190Y-57799200D02*
X79738095Y-57761104D01*
X33994399Y-9133361D02*
X33994399Y-9704789D01*
X33994399Y-9704789D02*
X33956304Y-9819075D01*
X33956304Y-9819075D02*
X33880113Y-9895266D01*
X33880113Y-9895266D02*
X33765828Y-9933361D01*
X33765828Y-9933361D02*
X33689637Y-9933361D01*
X34489637Y-9476218D02*
X34413447Y-9438123D01*
X34413447Y-9438123D02*
X34375352Y-9400027D01*
X34375352Y-9400027D02*
X34337256Y-9323837D01*
X34337256Y-9323837D02*
X34337256Y-9285742D01*
X34337256Y-9285742D02*
X34375352Y-9209551D01*
X34375352Y-9209551D02*
X34413447Y-9171456D01*
X34413447Y-9171456D02*
X34489637Y-9133361D01*
X34489637Y-9133361D02*
X34642018Y-9133361D01*
X34642018Y-9133361D02*
X34718209Y-9171456D01*
X34718209Y-9171456D02*
X34756304Y-9209551D01*
X34756304Y-9209551D02*
X34794399Y-9285742D01*
X34794399Y-9285742D02*
X34794399Y-9323837D01*
X34794399Y-9323837D02*
X34756304Y-9400027D01*
X34756304Y-9400027D02*
X34718209Y-9438123D01*
X34718209Y-9438123D02*
X34642018Y-9476218D01*
X34642018Y-9476218D02*
X34489637Y-9476218D01*
X34489637Y-9476218D02*
X34413447Y-9514313D01*
X34413447Y-9514313D02*
X34375352Y-9552408D01*
X34375352Y-9552408D02*
X34337256Y-9628599D01*
X34337256Y-9628599D02*
X34337256Y-9780980D01*
X34337256Y-9780980D02*
X34375352Y-9857170D01*
X34375352Y-9857170D02*
X34413447Y-9895266D01*
X34413447Y-9895266D02*
X34489637Y-9933361D01*
X34489637Y-9933361D02*
X34642018Y-9933361D01*
X34642018Y-9933361D02*
X34718209Y-9895266D01*
X34718209Y-9895266D02*
X34756304Y-9857170D01*
X34756304Y-9857170D02*
X34794399Y-9780980D01*
X34794399Y-9780980D02*
X34794399Y-9628599D01*
X34794399Y-9628599D02*
X34756304Y-9552408D01*
X34756304Y-9552408D02*
X34718209Y-9514313D01*
X34718209Y-9514313D02*
X34642018Y-9476218D01*
X44503878Y-12934606D02*
X44465782Y-12972702D01*
X44465782Y-12972702D02*
X44351497Y-13010797D01*
X44351497Y-13010797D02*
X44275306Y-13010797D01*
X44275306Y-13010797D02*
X44161020Y-12972702D01*
X44161020Y-12972702D02*
X44084830Y-12896511D01*
X44084830Y-12896511D02*
X44046735Y-12820321D01*
X44046735Y-12820321D02*
X44008639Y-12667940D01*
X44008639Y-12667940D02*
X44008639Y-12553654D01*
X44008639Y-12553654D02*
X44046735Y-12401273D01*
X44046735Y-12401273D02*
X44084830Y-12325082D01*
X44084830Y-12325082D02*
X44161020Y-12248892D01*
X44161020Y-12248892D02*
X44275306Y-12210797D01*
X44275306Y-12210797D02*
X44351497Y-12210797D01*
X44351497Y-12210797D02*
X44465782Y-12248892D01*
X44465782Y-12248892D02*
X44503878Y-12286987D01*
X44656259Y-13086987D02*
X45265782Y-13086987D01*
X45456259Y-13010797D02*
X45456259Y-12210797D01*
X45456259Y-12210797D02*
X45761021Y-12210797D01*
X45761021Y-12210797D02*
X45837211Y-12248892D01*
X45837211Y-12248892D02*
X45875306Y-12286987D01*
X45875306Y-12286987D02*
X45913402Y-12363178D01*
X45913402Y-12363178D02*
X45913402Y-12477463D01*
X45913402Y-12477463D02*
X45875306Y-12553654D01*
X45875306Y-12553654D02*
X45837211Y-12591749D01*
X45837211Y-12591749D02*
X45761021Y-12629844D01*
X45761021Y-12629844D02*
X45456259Y-12629844D01*
X46180068Y-12210797D02*
X46675306Y-12210797D01*
X46675306Y-12210797D02*
X46408640Y-12515559D01*
X46408640Y-12515559D02*
X46522925Y-12515559D01*
X46522925Y-12515559D02*
X46599116Y-12553654D01*
X46599116Y-12553654D02*
X46637211Y-12591749D01*
X46637211Y-12591749D02*
X46675306Y-12667940D01*
X46675306Y-12667940D02*
X46675306Y-12858416D01*
X46675306Y-12858416D02*
X46637211Y-12934606D01*
X46637211Y-12934606D02*
X46599116Y-12972702D01*
X46599116Y-12972702D02*
X46522925Y-13010797D01*
X46522925Y-13010797D02*
X46294354Y-13010797D01*
X46294354Y-13010797D02*
X46218163Y-12972702D01*
X46218163Y-12972702D02*
X46180068Y-12934606D01*
X46903878Y-12210797D02*
X47170545Y-13010797D01*
X47170545Y-13010797D02*
X47437211Y-12210797D01*
X47627687Y-12210797D02*
X48122925Y-12210797D01*
X48122925Y-12210797D02*
X47856259Y-12515559D01*
X47856259Y-12515559D02*
X47970544Y-12515559D01*
X47970544Y-12515559D02*
X48046735Y-12553654D01*
X48046735Y-12553654D02*
X48084830Y-12591749D01*
X48084830Y-12591749D02*
X48122925Y-12667940D01*
X48122925Y-12667940D02*
X48122925Y-12858416D01*
X48122925Y-12858416D02*
X48084830Y-12934606D01*
X48084830Y-12934606D02*
X48046735Y-12972702D01*
X48046735Y-12972702D02*
X47970544Y-13010797D01*
X47970544Y-13010797D02*
X47741973Y-13010797D01*
X47741973Y-13010797D02*
X47665782Y-12972702D01*
X47665782Y-12972702D02*
X47627687Y-12934606D01*
X48275307Y-13086987D02*
X48884830Y-13086987D01*
X49037211Y-12286987D02*
X49075307Y-12248892D01*
X49075307Y-12248892D02*
X49151497Y-12210797D01*
X49151497Y-12210797D02*
X49341973Y-12210797D01*
X49341973Y-12210797D02*
X49418164Y-12248892D01*
X49418164Y-12248892D02*
X49456259Y-12286987D01*
X49456259Y-12286987D02*
X49494354Y-12363178D01*
X49494354Y-12363178D02*
X49494354Y-12439368D01*
X49494354Y-12439368D02*
X49456259Y-12553654D01*
X49456259Y-12553654D02*
X48999116Y-13010797D01*
X48999116Y-13010797D02*
X49494354Y-13010797D01*
X56389571Y-17928056D02*
X56122904Y-17547103D01*
X55932428Y-17928056D02*
X55932428Y-17128056D01*
X55932428Y-17128056D02*
X56237190Y-17128056D01*
X56237190Y-17128056D02*
X56313380Y-17166151D01*
X56313380Y-17166151D02*
X56351475Y-17204246D01*
X56351475Y-17204246D02*
X56389571Y-17280437D01*
X56389571Y-17280437D02*
X56389571Y-17394722D01*
X56389571Y-17394722D02*
X56351475Y-17470913D01*
X56351475Y-17470913D02*
X56313380Y-17509008D01*
X56313380Y-17509008D02*
X56237190Y-17547103D01*
X56237190Y-17547103D02*
X55932428Y-17547103D01*
X56541952Y-18004246D02*
X57151475Y-18004246D01*
X57341952Y-17928056D02*
X57341952Y-17128056D01*
X57341952Y-17509008D02*
X57799095Y-17509008D01*
X57799095Y-17928056D02*
X57799095Y-17128056D01*
X58180047Y-17928056D02*
X58180047Y-17128056D01*
X58180047Y-17128056D02*
X58370523Y-17128056D01*
X58370523Y-17128056D02*
X58484809Y-17166151D01*
X58484809Y-17166151D02*
X58560999Y-17242341D01*
X58560999Y-17242341D02*
X58599094Y-17318532D01*
X58599094Y-17318532D02*
X58637190Y-17470913D01*
X58637190Y-17470913D02*
X58637190Y-17585199D01*
X58637190Y-17585199D02*
X58599094Y-17737580D01*
X58599094Y-17737580D02*
X58560999Y-17813770D01*
X58560999Y-17813770D02*
X58484809Y-17889961D01*
X58484809Y-17889961D02*
X58370523Y-17928056D01*
X58370523Y-17928056D02*
X58180047Y-17928056D01*
X58980047Y-17928056D02*
X58980047Y-17128056D01*
X58980047Y-17128056D02*
X59284809Y-17128056D01*
X59284809Y-17128056D02*
X59360999Y-17166151D01*
X59360999Y-17166151D02*
X59399094Y-17204246D01*
X59399094Y-17204246D02*
X59437190Y-17280437D01*
X59437190Y-17280437D02*
X59437190Y-17394722D01*
X59437190Y-17394722D02*
X59399094Y-17470913D01*
X59399094Y-17470913D02*
X59360999Y-17509008D01*
X59360999Y-17509008D02*
X59284809Y-17547103D01*
X59284809Y-17547103D02*
X58980047Y-17547103D01*
X58694966Y-7709474D02*
X58694966Y-8280902D01*
X58694966Y-8280902D02*
X58656871Y-8395188D01*
X58656871Y-8395188D02*
X58580680Y-8471379D01*
X58580680Y-8471379D02*
X58466395Y-8509474D01*
X58466395Y-8509474D02*
X58390204Y-8509474D01*
X58885443Y-8585664D02*
X59494966Y-8585664D01*
X59685443Y-7709474D02*
X59685443Y-8357093D01*
X59685443Y-8357093D02*
X59723538Y-8433283D01*
X59723538Y-8433283D02*
X59761633Y-8471379D01*
X59761633Y-8471379D02*
X59837824Y-8509474D01*
X59837824Y-8509474D02*
X59990205Y-8509474D01*
X59990205Y-8509474D02*
X60066395Y-8471379D01*
X60066395Y-8471379D02*
X60104490Y-8433283D01*
X60104490Y-8433283D02*
X60142586Y-8357093D01*
X60142586Y-8357093D02*
X60142586Y-7709474D01*
X60485442Y-8280902D02*
X60866395Y-8280902D01*
X60409252Y-8509474D02*
X60675919Y-7709474D01*
X60675919Y-7709474D02*
X60942585Y-8509474D01*
X61666395Y-8509474D02*
X61399728Y-8128521D01*
X61209252Y-8509474D02*
X61209252Y-7709474D01*
X61209252Y-7709474D02*
X61514014Y-7709474D01*
X61514014Y-7709474D02*
X61590204Y-7747569D01*
X61590204Y-7747569D02*
X61628299Y-7785664D01*
X61628299Y-7785664D02*
X61666395Y-7861855D01*
X61666395Y-7861855D02*
X61666395Y-7976140D01*
X61666395Y-7976140D02*
X61628299Y-8052331D01*
X61628299Y-8052331D02*
X61590204Y-8090426D01*
X61590204Y-8090426D02*
X61514014Y-8128521D01*
X61514014Y-8128521D02*
X61209252Y-8128521D01*
X61894966Y-7709474D02*
X62352109Y-7709474D01*
X62123537Y-8509474D02*
X62123537Y-7709474D01*
X24197555Y-44874474D02*
X24197555Y-45445902D01*
X24197555Y-45445902D02*
X24159460Y-45560188D01*
X24159460Y-45560188D02*
X24083269Y-45636379D01*
X24083269Y-45636379D02*
X23968984Y-45674474D01*
X23968984Y-45674474D02*
X23892793Y-45674474D01*
X24997555Y-45674474D02*
X24540412Y-45674474D01*
X24768984Y-45674474D02*
X24768984Y-44874474D01*
X24768984Y-44874474D02*
X24692793Y-44988759D01*
X24692793Y-44988759D02*
X24616603Y-45064950D01*
X24616603Y-45064950D02*
X24540412Y-45103045D01*
X25607079Y-45255426D02*
X25721365Y-45293521D01*
X25721365Y-45293521D02*
X25759460Y-45331617D01*
X25759460Y-45331617D02*
X25797556Y-45407807D01*
X25797556Y-45407807D02*
X25797556Y-45522093D01*
X25797556Y-45522093D02*
X25759460Y-45598283D01*
X25759460Y-45598283D02*
X25721365Y-45636379D01*
X25721365Y-45636379D02*
X25645175Y-45674474D01*
X25645175Y-45674474D02*
X25340413Y-45674474D01*
X25340413Y-45674474D02*
X25340413Y-44874474D01*
X25340413Y-44874474D02*
X25607079Y-44874474D01*
X25607079Y-44874474D02*
X25683270Y-44912569D01*
X25683270Y-44912569D02*
X25721365Y-44950664D01*
X25721365Y-44950664D02*
X25759460Y-45026855D01*
X25759460Y-45026855D02*
X25759460Y-45103045D01*
X25759460Y-45103045D02*
X25721365Y-45179236D01*
X25721365Y-45179236D02*
X25683270Y-45217331D01*
X25683270Y-45217331D02*
X25607079Y-45255426D01*
X25607079Y-45255426D02*
X25340413Y-45255426D01*
X62192115Y-47510035D02*
X61925448Y-47129082D01*
X61734972Y-47510035D02*
X61734972Y-46710035D01*
X61734972Y-46710035D02*
X62039734Y-46710035D01*
X62039734Y-46710035D02*
X62115924Y-46748130D01*
X62115924Y-46748130D02*
X62154019Y-46786225D01*
X62154019Y-46786225D02*
X62192115Y-46862416D01*
X62192115Y-46862416D02*
X62192115Y-46976701D01*
X62192115Y-46976701D02*
X62154019Y-47052892D01*
X62154019Y-47052892D02*
X62115924Y-47090987D01*
X62115924Y-47090987D02*
X62039734Y-47129082D01*
X62039734Y-47129082D02*
X61734972Y-47129082D01*
X62344496Y-47586225D02*
X62954019Y-47586225D01*
X63144496Y-47510035D02*
X63144496Y-46710035D01*
X63144496Y-46710035D02*
X63334972Y-46710035D01*
X63334972Y-46710035D02*
X63449258Y-46748130D01*
X63449258Y-46748130D02*
X63525448Y-46824320D01*
X63525448Y-46824320D02*
X63563543Y-46900511D01*
X63563543Y-46900511D02*
X63601639Y-47052892D01*
X63601639Y-47052892D02*
X63601639Y-47167178D01*
X63601639Y-47167178D02*
X63563543Y-47319559D01*
X63563543Y-47319559D02*
X63525448Y-47395749D01*
X63525448Y-47395749D02*
X63449258Y-47471940D01*
X63449258Y-47471940D02*
X63334972Y-47510035D01*
X63334972Y-47510035D02*
X63144496Y-47510035D01*
X63944496Y-47510035D02*
X63944496Y-46710035D01*
X63944496Y-46710035D02*
X64249258Y-46710035D01*
X64249258Y-46710035D02*
X64325448Y-46748130D01*
X64325448Y-46748130D02*
X64363543Y-46786225D01*
X64363543Y-46786225D02*
X64401639Y-46862416D01*
X64401639Y-46862416D02*
X64401639Y-46976701D01*
X64401639Y-46976701D02*
X64363543Y-47052892D01*
X64363543Y-47052892D02*
X64325448Y-47090987D01*
X64325448Y-47090987D02*
X64249258Y-47129082D01*
X64249258Y-47129082D02*
X63944496Y-47129082D01*
X64744496Y-46710035D02*
X64744496Y-47357654D01*
X64744496Y-47357654D02*
X64782591Y-47433844D01*
X64782591Y-47433844D02*
X64820686Y-47471940D01*
X64820686Y-47471940D02*
X64896877Y-47510035D01*
X64896877Y-47510035D02*
X65049258Y-47510035D01*
X65049258Y-47510035D02*
X65125448Y-47471940D01*
X65125448Y-47471940D02*
X65163543Y-47433844D01*
X65163543Y-47433844D02*
X65201639Y-47357654D01*
X65201639Y-47357654D02*
X65201639Y-46710035D01*
X58194554Y-32973169D02*
X58842173Y-32973169D01*
X58842173Y-32973169D02*
X58918363Y-32935074D01*
X58918363Y-32935074D02*
X58956459Y-32896979D01*
X58956459Y-32896979D02*
X58994554Y-32820788D01*
X58994554Y-32820788D02*
X58994554Y-32668407D01*
X58994554Y-32668407D02*
X58956459Y-32592217D01*
X58956459Y-32592217D02*
X58918363Y-32554122D01*
X58918363Y-32554122D02*
X58842173Y-32516026D01*
X58842173Y-32516026D02*
X58194554Y-32516026D01*
X59070744Y-32325551D02*
X59070744Y-31716027D01*
X58994554Y-31525550D02*
X58194554Y-31525550D01*
X58994554Y-31144598D02*
X58194554Y-31144598D01*
X58194554Y-31144598D02*
X58994554Y-30687455D01*
X58994554Y-30687455D02*
X58194554Y-30687455D01*
X58765982Y-30344599D02*
X58765982Y-29963646D01*
X58994554Y-30420789D02*
X58194554Y-30154122D01*
X58194554Y-30154122D02*
X58994554Y-29887456D01*
X58270744Y-29658885D02*
X58232649Y-29620789D01*
X58232649Y-29620789D02*
X58194554Y-29544599D01*
X58194554Y-29544599D02*
X58194554Y-29354123D01*
X58194554Y-29354123D02*
X58232649Y-29277932D01*
X58232649Y-29277932D02*
X58270744Y-29239837D01*
X58270744Y-29239837D02*
X58346935Y-29201742D01*
X58346935Y-29201742D02*
X58423125Y-29201742D01*
X58423125Y-29201742D02*
X58537411Y-29239837D01*
X58537411Y-29239837D02*
X58994554Y-29696980D01*
X58994554Y-29696980D02*
X58994554Y-29201742D01*
X58994554Y-28439837D02*
X58994554Y-28896980D01*
X58994554Y-28668408D02*
X58194554Y-28668408D01*
X58194554Y-28668408D02*
X58308839Y-28744599D01*
X58308839Y-28744599D02*
X58385030Y-28820789D01*
X58385030Y-28820789D02*
X58423125Y-28896980D01*
X58994554Y-28058884D02*
X58994554Y-27906503D01*
X58994554Y-27906503D02*
X58956459Y-27830313D01*
X58956459Y-27830313D02*
X58918363Y-27792217D01*
X58918363Y-27792217D02*
X58804078Y-27716027D01*
X58804078Y-27716027D02*
X58651697Y-27677932D01*
X58651697Y-27677932D02*
X58346935Y-27677932D01*
X58346935Y-27677932D02*
X58270744Y-27716027D01*
X58270744Y-27716027D02*
X58232649Y-27754122D01*
X58232649Y-27754122D02*
X58194554Y-27830313D01*
X58194554Y-27830313D02*
X58194554Y-27982694D01*
X58194554Y-27982694D02*
X58232649Y-28058884D01*
X58232649Y-28058884D02*
X58270744Y-28096979D01*
X58270744Y-28096979D02*
X58346935Y-28135075D01*
X58346935Y-28135075D02*
X58537411Y-28135075D01*
X58537411Y-28135075D02*
X58613601Y-28096979D01*
X58613601Y-28096979D02*
X58651697Y-28058884D01*
X58651697Y-28058884D02*
X58689792Y-27982694D01*
X58689792Y-27982694D02*
X58689792Y-27830313D01*
X58689792Y-27830313D02*
X58651697Y-27754122D01*
X58651697Y-27754122D02*
X58613601Y-27716027D01*
X58613601Y-27716027D02*
X58537411Y-27677932D01*
X59070744Y-27525551D02*
X59070744Y-26916027D01*
X58765982Y-26763646D02*
X58765982Y-26382693D01*
X58994554Y-26839836D02*
X58194554Y-26573169D01*
X58194554Y-26573169D02*
X58994554Y-26306503D01*
X58994554Y-25658884D02*
X58994554Y-26039836D01*
X58994554Y-26039836D02*
X58194554Y-26039836D01*
X58194554Y-25506503D02*
X58194554Y-25049360D01*
X58994554Y-25277932D02*
X58194554Y-25277932D01*
X67041903Y-36671843D02*
X67041903Y-37319462D01*
X67041903Y-37319462D02*
X67079998Y-37395652D01*
X67079998Y-37395652D02*
X67118093Y-37433748D01*
X67118093Y-37433748D02*
X67194284Y-37471843D01*
X67194284Y-37471843D02*
X67346665Y-37471843D01*
X67346665Y-37471843D02*
X67422855Y-37433748D01*
X67422855Y-37433748D02*
X67460950Y-37395652D01*
X67460950Y-37395652D02*
X67499046Y-37319462D01*
X67499046Y-37319462D02*
X67499046Y-36671843D01*
X67689522Y-37548033D02*
X68299045Y-37548033D01*
X68489522Y-37471843D02*
X68489522Y-36671843D01*
X68832378Y-37433748D02*
X68946664Y-37471843D01*
X68946664Y-37471843D02*
X69137140Y-37471843D01*
X69137140Y-37471843D02*
X69213331Y-37433748D01*
X69213331Y-37433748D02*
X69251426Y-37395652D01*
X69251426Y-37395652D02*
X69289521Y-37319462D01*
X69289521Y-37319462D02*
X69289521Y-37243271D01*
X69289521Y-37243271D02*
X69251426Y-37167081D01*
X69251426Y-37167081D02*
X69213331Y-37128986D01*
X69213331Y-37128986D02*
X69137140Y-37090890D01*
X69137140Y-37090890D02*
X68984759Y-37052795D01*
X68984759Y-37052795D02*
X68908569Y-37014700D01*
X68908569Y-37014700D02*
X68870474Y-36976605D01*
X68870474Y-36976605D02*
X68832378Y-36900414D01*
X68832378Y-36900414D02*
X68832378Y-36824224D01*
X68832378Y-36824224D02*
X68870474Y-36748033D01*
X68870474Y-36748033D02*
X68908569Y-36709938D01*
X68908569Y-36709938D02*
X68984759Y-36671843D01*
X68984759Y-36671843D02*
X69175236Y-36671843D01*
X69175236Y-36671843D02*
X69289521Y-36709938D01*
X69632379Y-37471843D02*
X69632379Y-36671843D01*
X69632379Y-36671843D02*
X70089522Y-37471843D01*
X70089522Y-37471843D02*
X70089522Y-36671843D01*
X70432378Y-37433748D02*
X70546664Y-37471843D01*
X70546664Y-37471843D02*
X70737140Y-37471843D01*
X70737140Y-37471843D02*
X70813331Y-37433748D01*
X70813331Y-37433748D02*
X70851426Y-37395652D01*
X70851426Y-37395652D02*
X70889521Y-37319462D01*
X70889521Y-37319462D02*
X70889521Y-37243271D01*
X70889521Y-37243271D02*
X70851426Y-37167081D01*
X70851426Y-37167081D02*
X70813331Y-37128986D01*
X70813331Y-37128986D02*
X70737140Y-37090890D01*
X70737140Y-37090890D02*
X70584759Y-37052795D01*
X70584759Y-37052795D02*
X70508569Y-37014700D01*
X70508569Y-37014700D02*
X70470474Y-36976605D01*
X70470474Y-36976605D02*
X70432378Y-36900414D01*
X70432378Y-36900414D02*
X70432378Y-36824224D01*
X70432378Y-36824224D02*
X70470474Y-36748033D01*
X70470474Y-36748033D02*
X70508569Y-36709938D01*
X70508569Y-36709938D02*
X70584759Y-36671843D01*
X70584759Y-36671843D02*
X70775236Y-36671843D01*
X70775236Y-36671843D02*
X70889521Y-36709938D01*
X11833333Y-12832295D02*
X11833333Y-13403723D01*
X11833333Y-13403723D02*
X11795238Y-13518009D01*
X11795238Y-13518009D02*
X11719047Y-13594200D01*
X11719047Y-13594200D02*
X11604762Y-13632295D01*
X11604762Y-13632295D02*
X11528571Y-13632295D01*
X12214286Y-13632295D02*
X12214286Y-12832295D01*
X12214286Y-12832295D02*
X12519048Y-12832295D01*
X12519048Y-12832295D02*
X12595238Y-12870390D01*
X12595238Y-12870390D02*
X12633333Y-12908485D01*
X12633333Y-12908485D02*
X12671429Y-12984676D01*
X12671429Y-12984676D02*
X12671429Y-13098961D01*
X12671429Y-13098961D02*
X12633333Y-13175152D01*
X12633333Y-13175152D02*
X12595238Y-13213247D01*
X12595238Y-13213247D02*
X12519048Y-13251342D01*
X12519048Y-13251342D02*
X12214286Y-13251342D01*
X13433333Y-13632295D02*
X12976190Y-13632295D01*
X13204762Y-13632295D02*
X13204762Y-12832295D01*
X13204762Y-12832295D02*
X13128571Y-12946580D01*
X13128571Y-12946580D02*
X13052381Y-13022771D01*
X13052381Y-13022771D02*
X12976190Y-13060866D01*
X71840810Y-34975590D02*
X71802714Y-35013686D01*
X71802714Y-35013686D02*
X71688429Y-35051781D01*
X71688429Y-35051781D02*
X71612238Y-35051781D01*
X71612238Y-35051781D02*
X71497952Y-35013686D01*
X71497952Y-35013686D02*
X71421762Y-34937495D01*
X71421762Y-34937495D02*
X71383667Y-34861305D01*
X71383667Y-34861305D02*
X71345571Y-34708924D01*
X71345571Y-34708924D02*
X71345571Y-34594638D01*
X71345571Y-34594638D02*
X71383667Y-34442257D01*
X71383667Y-34442257D02*
X71421762Y-34366066D01*
X71421762Y-34366066D02*
X71497952Y-34289876D01*
X71497952Y-34289876D02*
X71612238Y-34251781D01*
X71612238Y-34251781D02*
X71688429Y-34251781D01*
X71688429Y-34251781D02*
X71802714Y-34289876D01*
X71802714Y-34289876D02*
X71840810Y-34327971D01*
X71993191Y-35127971D02*
X72602714Y-35127971D01*
X72793191Y-35051781D02*
X72793191Y-34251781D01*
X72793191Y-34632733D02*
X73250334Y-34632733D01*
X73250334Y-35051781D02*
X73250334Y-34251781D01*
X73517000Y-34251781D02*
X73783667Y-35051781D01*
X73783667Y-35051781D02*
X74050333Y-34251781D01*
X74583666Y-34632733D02*
X74697952Y-34670828D01*
X74697952Y-34670828D02*
X74736047Y-34708924D01*
X74736047Y-34708924D02*
X74774143Y-34785114D01*
X74774143Y-34785114D02*
X74774143Y-34899400D01*
X74774143Y-34899400D02*
X74736047Y-34975590D01*
X74736047Y-34975590D02*
X74697952Y-35013686D01*
X74697952Y-35013686D02*
X74621762Y-35051781D01*
X74621762Y-35051781D02*
X74317000Y-35051781D01*
X74317000Y-35051781D02*
X74317000Y-34251781D01*
X74317000Y-34251781D02*
X74583666Y-34251781D01*
X74583666Y-34251781D02*
X74659857Y-34289876D01*
X74659857Y-34289876D02*
X74697952Y-34327971D01*
X74697952Y-34327971D02*
X74736047Y-34404162D01*
X74736047Y-34404162D02*
X74736047Y-34480352D01*
X74736047Y-34480352D02*
X74697952Y-34556543D01*
X74697952Y-34556543D02*
X74659857Y-34594638D01*
X74659857Y-34594638D02*
X74583666Y-34632733D01*
X74583666Y-34632733D02*
X74317000Y-34632733D01*
X75117000Y-34251781D02*
X75117000Y-34899400D01*
X75117000Y-34899400D02*
X75155095Y-34975590D01*
X75155095Y-34975590D02*
X75193190Y-35013686D01*
X75193190Y-35013686D02*
X75269381Y-35051781D01*
X75269381Y-35051781D02*
X75421762Y-35051781D01*
X75421762Y-35051781D02*
X75497952Y-35013686D01*
X75497952Y-35013686D02*
X75536047Y-34975590D01*
X75536047Y-34975590D02*
X75574143Y-34899400D01*
X75574143Y-34899400D02*
X75574143Y-34251781D01*
X75916999Y-35013686D02*
X76031285Y-35051781D01*
X76031285Y-35051781D02*
X76221761Y-35051781D01*
X76221761Y-35051781D02*
X76297952Y-35013686D01*
X76297952Y-35013686D02*
X76336047Y-34975590D01*
X76336047Y-34975590D02*
X76374142Y-34899400D01*
X76374142Y-34899400D02*
X76374142Y-34823209D01*
X76374142Y-34823209D02*
X76336047Y-34747019D01*
X76336047Y-34747019D02*
X76297952Y-34708924D01*
X76297952Y-34708924D02*
X76221761Y-34670828D01*
X76221761Y-34670828D02*
X76069380Y-34632733D01*
X76069380Y-34632733D02*
X75993190Y-34594638D01*
X75993190Y-34594638D02*
X75955095Y-34556543D01*
X75955095Y-34556543D02*
X75916999Y-34480352D01*
X75916999Y-34480352D02*
X75916999Y-34404162D01*
X75916999Y-34404162D02*
X75955095Y-34327971D01*
X75955095Y-34327971D02*
X75993190Y-34289876D01*
X75993190Y-34289876D02*
X76069380Y-34251781D01*
X76069380Y-34251781D02*
X76259857Y-34251781D01*
X76259857Y-34251781D02*
X76374142Y-34289876D01*
X76526524Y-35127971D02*
X77136047Y-35127971D01*
X77593190Y-34632733D02*
X77707476Y-34670828D01*
X77707476Y-34670828D02*
X77745571Y-34708924D01*
X77745571Y-34708924D02*
X77783667Y-34785114D01*
X77783667Y-34785114D02*
X77783667Y-34899400D01*
X77783667Y-34899400D02*
X77745571Y-34975590D01*
X77745571Y-34975590D02*
X77707476Y-35013686D01*
X77707476Y-35013686D02*
X77631286Y-35051781D01*
X77631286Y-35051781D02*
X77326524Y-35051781D01*
X77326524Y-35051781D02*
X77326524Y-34251781D01*
X77326524Y-34251781D02*
X77593190Y-34251781D01*
X77593190Y-34251781D02*
X77669381Y-34289876D01*
X77669381Y-34289876D02*
X77707476Y-34327971D01*
X77707476Y-34327971D02*
X77745571Y-34404162D01*
X77745571Y-34404162D02*
X77745571Y-34480352D01*
X77745571Y-34480352D02*
X77707476Y-34556543D01*
X77707476Y-34556543D02*
X77669381Y-34594638D01*
X77669381Y-34594638D02*
X77593190Y-34632733D01*
X77593190Y-34632733D02*
X77326524Y-34632733D01*
X78126524Y-34251781D02*
X78126524Y-34899400D01*
X78126524Y-34899400D02*
X78164619Y-34975590D01*
X78164619Y-34975590D02*
X78202714Y-35013686D01*
X78202714Y-35013686D02*
X78278905Y-35051781D01*
X78278905Y-35051781D02*
X78431286Y-35051781D01*
X78431286Y-35051781D02*
X78507476Y-35013686D01*
X78507476Y-35013686D02*
X78545571Y-34975590D01*
X78545571Y-34975590D02*
X78583667Y-34899400D01*
X78583667Y-34899400D02*
X78583667Y-34251781D01*
X79345571Y-35051781D02*
X78964619Y-35051781D01*
X78964619Y-35051781D02*
X78964619Y-34251781D01*
X79612238Y-35051781D02*
X79612238Y-34251781D01*
X80069381Y-35051781D02*
X79726523Y-34594638D01*
X80069381Y-34251781D02*
X79612238Y-34708924D01*
X25524018Y-54197980D02*
X25524018Y-54769408D01*
X25524018Y-54769408D02*
X25485923Y-54883694D01*
X25485923Y-54883694D02*
X25409732Y-54959885D01*
X25409732Y-54959885D02*
X25295447Y-54997980D01*
X25295447Y-54997980D02*
X25219256Y-54997980D01*
X25904971Y-54997980D02*
X25904971Y-54197980D01*
X25904971Y-54197980D02*
X26209733Y-54197980D01*
X26209733Y-54197980D02*
X26285923Y-54236075D01*
X26285923Y-54236075D02*
X26324018Y-54274170D01*
X26324018Y-54274170D02*
X26362114Y-54350361D01*
X26362114Y-54350361D02*
X26362114Y-54464646D01*
X26362114Y-54464646D02*
X26324018Y-54540837D01*
X26324018Y-54540837D02*
X26285923Y-54578932D01*
X26285923Y-54578932D02*
X26209733Y-54617027D01*
X26209733Y-54617027D02*
X25904971Y-54617027D01*
X26628780Y-54197980D02*
X27124018Y-54197980D01*
X27124018Y-54197980D02*
X26857352Y-54502742D01*
X26857352Y-54502742D02*
X26971637Y-54502742D01*
X26971637Y-54502742D02*
X27047828Y-54540837D01*
X27047828Y-54540837D02*
X27085923Y-54578932D01*
X27085923Y-54578932D02*
X27124018Y-54655123D01*
X27124018Y-54655123D02*
X27124018Y-54845599D01*
X27124018Y-54845599D02*
X27085923Y-54921789D01*
X27085923Y-54921789D02*
X27047828Y-54959885D01*
X27047828Y-54959885D02*
X26971637Y-54997980D01*
X26971637Y-54997980D02*
X26743066Y-54997980D01*
X26743066Y-54997980D02*
X26666875Y-54959885D01*
X26666875Y-54959885D02*
X26628780Y-54921789D01*
X73210840Y-48894554D02*
X73210840Y-48094554D01*
X73210840Y-48094554D02*
X73401316Y-48094554D01*
X73401316Y-48094554D02*
X73515602Y-48132649D01*
X73515602Y-48132649D02*
X73591792Y-48208839D01*
X73591792Y-48208839D02*
X73629887Y-48285030D01*
X73629887Y-48285030D02*
X73667983Y-48437411D01*
X73667983Y-48437411D02*
X73667983Y-48551697D01*
X73667983Y-48551697D02*
X73629887Y-48704078D01*
X73629887Y-48704078D02*
X73591792Y-48780268D01*
X73591792Y-48780268D02*
X73515602Y-48856459D01*
X73515602Y-48856459D02*
X73401316Y-48894554D01*
X73401316Y-48894554D02*
X73210840Y-48894554D01*
X73820364Y-48970744D02*
X74429887Y-48970744D01*
X74848935Y-48094554D02*
X74848935Y-48665982D01*
X74848935Y-48665982D02*
X74810840Y-48780268D01*
X74810840Y-48780268D02*
X74734649Y-48856459D01*
X74734649Y-48856459D02*
X74620364Y-48894554D01*
X74620364Y-48894554D02*
X74544173Y-48894554D01*
X75267983Y-48894554D02*
X75420364Y-48894554D01*
X75420364Y-48894554D02*
X75496554Y-48856459D01*
X75496554Y-48856459D02*
X75534650Y-48818363D01*
X75534650Y-48818363D02*
X75610840Y-48704078D01*
X75610840Y-48704078D02*
X75648935Y-48551697D01*
X75648935Y-48551697D02*
X75648935Y-48246935D01*
X75648935Y-48246935D02*
X75610840Y-48170744D01*
X75610840Y-48170744D02*
X75572745Y-48132649D01*
X75572745Y-48132649D02*
X75496554Y-48094554D01*
X75496554Y-48094554D02*
X75344173Y-48094554D01*
X75344173Y-48094554D02*
X75267983Y-48132649D01*
X75267983Y-48132649D02*
X75229888Y-48170744D01*
X75229888Y-48170744D02*
X75191792Y-48246935D01*
X75191792Y-48246935D02*
X75191792Y-48437411D01*
X75191792Y-48437411D02*
X75229888Y-48513601D01*
X75229888Y-48513601D02*
X75267983Y-48551697D01*
X75267983Y-48551697D02*
X75344173Y-48589792D01*
X75344173Y-48589792D02*
X75496554Y-48589792D01*
X75496554Y-48589792D02*
X75572745Y-48551697D01*
X75572745Y-48551697D02*
X75610840Y-48513601D01*
X75610840Y-48513601D02*
X75648935Y-48437411D01*
X75801317Y-48970744D02*
X76410840Y-48970744D01*
X76867983Y-48475506D02*
X76982269Y-48513601D01*
X76982269Y-48513601D02*
X77020364Y-48551697D01*
X77020364Y-48551697D02*
X77058460Y-48627887D01*
X77058460Y-48627887D02*
X77058460Y-48742173D01*
X77058460Y-48742173D02*
X77020364Y-48818363D01*
X77020364Y-48818363D02*
X76982269Y-48856459D01*
X76982269Y-48856459D02*
X76906079Y-48894554D01*
X76906079Y-48894554D02*
X76601317Y-48894554D01*
X76601317Y-48894554D02*
X76601317Y-48094554D01*
X76601317Y-48094554D02*
X76867983Y-48094554D01*
X76867983Y-48094554D02*
X76944174Y-48132649D01*
X76944174Y-48132649D02*
X76982269Y-48170744D01*
X76982269Y-48170744D02*
X77020364Y-48246935D01*
X77020364Y-48246935D02*
X77020364Y-48323125D01*
X77020364Y-48323125D02*
X76982269Y-48399316D01*
X76982269Y-48399316D02*
X76944174Y-48437411D01*
X76944174Y-48437411D02*
X76867983Y-48475506D01*
X76867983Y-48475506D02*
X76601317Y-48475506D01*
X77401317Y-48094554D02*
X77401317Y-48742173D01*
X77401317Y-48742173D02*
X77439412Y-48818363D01*
X77439412Y-48818363D02*
X77477507Y-48856459D01*
X77477507Y-48856459D02*
X77553698Y-48894554D01*
X77553698Y-48894554D02*
X77706079Y-48894554D01*
X77706079Y-48894554D02*
X77782269Y-48856459D01*
X77782269Y-48856459D02*
X77820364Y-48818363D01*
X77820364Y-48818363D02*
X77858460Y-48742173D01*
X77858460Y-48742173D02*
X77858460Y-48094554D01*
X78201316Y-48856459D02*
X78315602Y-48894554D01*
X78315602Y-48894554D02*
X78506078Y-48894554D01*
X78506078Y-48894554D02*
X78582269Y-48856459D01*
X78582269Y-48856459D02*
X78620364Y-48818363D01*
X78620364Y-48818363D02*
X78658459Y-48742173D01*
X78658459Y-48742173D02*
X78658459Y-48665982D01*
X78658459Y-48665982D02*
X78620364Y-48589792D01*
X78620364Y-48589792D02*
X78582269Y-48551697D01*
X78582269Y-48551697D02*
X78506078Y-48513601D01*
X78506078Y-48513601D02*
X78353697Y-48475506D01*
X78353697Y-48475506D02*
X78277507Y-48437411D01*
X78277507Y-48437411D02*
X78239412Y-48399316D01*
X78239412Y-48399316D02*
X78201316Y-48323125D01*
X78201316Y-48323125D02*
X78201316Y-48246935D01*
X78201316Y-48246935D02*
X78239412Y-48170744D01*
X78239412Y-48170744D02*
X78277507Y-48132649D01*
X78277507Y-48132649D02*
X78353697Y-48094554D01*
X78353697Y-48094554D02*
X78544174Y-48094554D01*
X78544174Y-48094554D02*
X78658459Y-48132649D01*
X79001317Y-48894554D02*
X79001317Y-48094554D01*
X79001317Y-48094554D02*
X79306079Y-48094554D01*
X79306079Y-48094554D02*
X79382269Y-48132649D01*
X79382269Y-48132649D02*
X79420364Y-48170744D01*
X79420364Y-48170744D02*
X79458460Y-48246935D01*
X79458460Y-48246935D02*
X79458460Y-48361220D01*
X79458460Y-48361220D02*
X79420364Y-48437411D01*
X79420364Y-48437411D02*
X79382269Y-48475506D01*
X79382269Y-48475506D02*
X79306079Y-48513601D01*
X79306079Y-48513601D02*
X79001317Y-48513601D01*
X79725126Y-48094554D02*
X79915602Y-48894554D01*
X79915602Y-48894554D02*
X80067983Y-48323125D01*
X80067983Y-48323125D02*
X80220364Y-48894554D01*
X80220364Y-48894554D02*
X80410841Y-48094554D01*
X81172746Y-48894554D02*
X80906079Y-48513601D01*
X80715603Y-48894554D02*
X80715603Y-48094554D01*
X80715603Y-48094554D02*
X81020365Y-48094554D01*
X81020365Y-48094554D02*
X81096555Y-48132649D01*
X81096555Y-48132649D02*
X81134650Y-48170744D01*
X81134650Y-48170744D02*
X81172746Y-48246935D01*
X81172746Y-48246935D02*
X81172746Y-48361220D01*
X81172746Y-48361220D02*
X81134650Y-48437411D01*
X81134650Y-48437411D02*
X81096555Y-48475506D01*
X81096555Y-48475506D02*
X81020365Y-48513601D01*
X81020365Y-48513601D02*
X80715603Y-48513601D01*
X9473095Y-50437294D02*
X9206428Y-50056341D01*
X9015952Y-50437294D02*
X9015952Y-49637294D01*
X9015952Y-49637294D02*
X9320714Y-49637294D01*
X9320714Y-49637294D02*
X9396904Y-49675389D01*
X9396904Y-49675389D02*
X9434999Y-49713484D01*
X9434999Y-49713484D02*
X9473095Y-49789675D01*
X9473095Y-49789675D02*
X9473095Y-49903960D01*
X9473095Y-49903960D02*
X9434999Y-49980151D01*
X9434999Y-49980151D02*
X9396904Y-50018246D01*
X9396904Y-50018246D02*
X9320714Y-50056341D01*
X9320714Y-50056341D02*
X9015952Y-50056341D01*
X9701666Y-49903960D02*
X10006428Y-49903960D01*
X9815952Y-49637294D02*
X9815952Y-50323008D01*
X9815952Y-50323008D02*
X9854047Y-50399199D01*
X9854047Y-50399199D02*
X9930237Y-50437294D01*
X9930237Y-50437294D02*
X10006428Y-50437294D01*
X10234999Y-49713484D02*
X10273095Y-49675389D01*
X10273095Y-49675389D02*
X10349285Y-49637294D01*
X10349285Y-49637294D02*
X10539761Y-49637294D01*
X10539761Y-49637294D02*
X10615952Y-49675389D01*
X10615952Y-49675389D02*
X10654047Y-49713484D01*
X10654047Y-49713484D02*
X10692142Y-49789675D01*
X10692142Y-49789675D02*
X10692142Y-49865865D01*
X10692142Y-49865865D02*
X10654047Y-49980151D01*
X10654047Y-49980151D02*
X10196904Y-50437294D01*
X10196904Y-50437294D02*
X10692142Y-50437294D01*
X22719018Y-12597980D02*
X22719018Y-13169408D01*
X22719018Y-13169408D02*
X22680923Y-13283694D01*
X22680923Y-13283694D02*
X22604732Y-13359885D01*
X22604732Y-13359885D02*
X22490447Y-13397980D01*
X22490447Y-13397980D02*
X22414256Y-13397980D01*
X23099971Y-13397980D02*
X23099971Y-12597980D01*
X23099971Y-12597980D02*
X23404733Y-12597980D01*
X23404733Y-12597980D02*
X23480923Y-12636075D01*
X23480923Y-12636075D02*
X23519018Y-12674170D01*
X23519018Y-12674170D02*
X23557114Y-12750361D01*
X23557114Y-12750361D02*
X23557114Y-12864646D01*
X23557114Y-12864646D02*
X23519018Y-12940837D01*
X23519018Y-12940837D02*
X23480923Y-12978932D01*
X23480923Y-12978932D02*
X23404733Y-13017027D01*
X23404733Y-13017027D02*
X23099971Y-13017027D01*
X24242828Y-12864646D02*
X24242828Y-13397980D01*
X24052352Y-12559885D02*
X23861875Y-13131313D01*
X23861875Y-13131313D02*
X24357114Y-13131313D01*
X19368094Y-45162295D02*
X19101427Y-44781342D01*
X18910951Y-45162295D02*
X18910951Y-44362295D01*
X18910951Y-44362295D02*
X19215713Y-44362295D01*
X19215713Y-44362295D02*
X19291903Y-44400390D01*
X19291903Y-44400390D02*
X19329998Y-44438485D01*
X19329998Y-44438485D02*
X19368094Y-44514676D01*
X19368094Y-44514676D02*
X19368094Y-44628961D01*
X19368094Y-44628961D02*
X19329998Y-44705152D01*
X19329998Y-44705152D02*
X19291903Y-44743247D01*
X19291903Y-44743247D02*
X19215713Y-44781342D01*
X19215713Y-44781342D02*
X18910951Y-44781342D01*
X19596665Y-44628961D02*
X19901427Y-44628961D01*
X19710951Y-44362295D02*
X19710951Y-45048009D01*
X19710951Y-45048009D02*
X19749046Y-45124200D01*
X19749046Y-45124200D02*
X19825236Y-45162295D01*
X19825236Y-45162295D02*
X19901427Y-45162295D01*
X20510951Y-44628961D02*
X20510951Y-45162295D01*
X20320475Y-44324200D02*
X20129998Y-44895628D01*
X20129998Y-44895628D02*
X20625237Y-44895628D01*
X67587611Y-26951363D02*
X68044754Y-26951363D01*
X67816182Y-27751363D02*
X67816182Y-26951363D01*
X68311421Y-27751363D02*
X68311421Y-26951363D01*
X68311421Y-26951363D02*
X68616183Y-26951363D01*
X68616183Y-26951363D02*
X68692373Y-26989458D01*
X68692373Y-26989458D02*
X68730468Y-27027553D01*
X68730468Y-27027553D02*
X68768564Y-27103744D01*
X68768564Y-27103744D02*
X68768564Y-27218029D01*
X68768564Y-27218029D02*
X68730468Y-27294220D01*
X68730468Y-27294220D02*
X68692373Y-27332315D01*
X68692373Y-27332315D02*
X68616183Y-27370410D01*
X68616183Y-27370410D02*
X68311421Y-27370410D01*
X69035230Y-26951363D02*
X69530468Y-26951363D01*
X69530468Y-26951363D02*
X69263802Y-27256125D01*
X69263802Y-27256125D02*
X69378087Y-27256125D01*
X69378087Y-27256125D02*
X69454278Y-27294220D01*
X69454278Y-27294220D02*
X69492373Y-27332315D01*
X69492373Y-27332315D02*
X69530468Y-27408506D01*
X69530468Y-27408506D02*
X69530468Y-27598982D01*
X69530468Y-27598982D02*
X69492373Y-27675172D01*
X69492373Y-27675172D02*
X69454278Y-27713268D01*
X69454278Y-27713268D02*
X69378087Y-27751363D01*
X69378087Y-27751363D02*
X69149516Y-27751363D01*
X69149516Y-27751363D02*
X69073325Y-27713268D01*
X69073325Y-27713268D02*
X69035230Y-27675172D01*
X49430519Y-54080884D02*
X49430519Y-54652312D01*
X49430519Y-54652312D02*
X49392424Y-54766598D01*
X49392424Y-54766598D02*
X49316233Y-54842789D01*
X49316233Y-54842789D02*
X49201948Y-54880884D01*
X49201948Y-54880884D02*
X49125757Y-54880884D01*
X50154329Y-54080884D02*
X50001948Y-54080884D01*
X50001948Y-54080884D02*
X49925757Y-54118979D01*
X49925757Y-54118979D02*
X49887662Y-54157074D01*
X49887662Y-54157074D02*
X49811472Y-54271360D01*
X49811472Y-54271360D02*
X49773376Y-54423741D01*
X49773376Y-54423741D02*
X49773376Y-54728503D01*
X49773376Y-54728503D02*
X49811472Y-54804693D01*
X49811472Y-54804693D02*
X49849567Y-54842789D01*
X49849567Y-54842789D02*
X49925757Y-54880884D01*
X49925757Y-54880884D02*
X50078138Y-54880884D01*
X50078138Y-54880884D02*
X50154329Y-54842789D01*
X50154329Y-54842789D02*
X50192424Y-54804693D01*
X50192424Y-54804693D02*
X50230519Y-54728503D01*
X50230519Y-54728503D02*
X50230519Y-54538027D01*
X50230519Y-54538027D02*
X50192424Y-54461836D01*
X50192424Y-54461836D02*
X50154329Y-54423741D01*
X50154329Y-54423741D02*
X50078138Y-54385646D01*
X50078138Y-54385646D02*
X49925757Y-54385646D01*
X49925757Y-54385646D02*
X49849567Y-54423741D01*
X49849567Y-54423741D02*
X49811472Y-54461836D01*
X49811472Y-54461836D02*
X49773376Y-54538027D01*
X12013095Y-50437294D02*
X11746428Y-50056341D01*
X11555952Y-50437294D02*
X11555952Y-49637294D01*
X11555952Y-49637294D02*
X11860714Y-49637294D01*
X11860714Y-49637294D02*
X11936904Y-49675389D01*
X11936904Y-49675389D02*
X11974999Y-49713484D01*
X11974999Y-49713484D02*
X12013095Y-49789675D01*
X12013095Y-49789675D02*
X12013095Y-49903960D01*
X12013095Y-49903960D02*
X11974999Y-49980151D01*
X11974999Y-49980151D02*
X11936904Y-50018246D01*
X11936904Y-50018246D02*
X11860714Y-50056341D01*
X11860714Y-50056341D02*
X11555952Y-50056341D01*
X12241666Y-49903960D02*
X12546428Y-49903960D01*
X12355952Y-49637294D02*
X12355952Y-50323008D01*
X12355952Y-50323008D02*
X12394047Y-50399199D01*
X12394047Y-50399199D02*
X12470237Y-50437294D01*
X12470237Y-50437294D02*
X12546428Y-50437294D01*
X12736904Y-49637294D02*
X13232142Y-49637294D01*
X13232142Y-49637294D02*
X12965476Y-49942056D01*
X12965476Y-49942056D02*
X13079761Y-49942056D01*
X13079761Y-49942056D02*
X13155952Y-49980151D01*
X13155952Y-49980151D02*
X13194047Y-50018246D01*
X13194047Y-50018246D02*
X13232142Y-50094437D01*
X13232142Y-50094437D02*
X13232142Y-50284913D01*
X13232142Y-50284913D02*
X13194047Y-50361103D01*
X13194047Y-50361103D02*
X13155952Y-50399199D01*
X13155952Y-50399199D02*
X13079761Y-50437294D01*
X13079761Y-50437294D02*
X12851190Y-50437294D01*
X12851190Y-50437294D02*
X12774999Y-50399199D01*
X12774999Y-50399199D02*
X12736904Y-50361103D01*
X57218803Y-55172295D02*
X57218803Y-55743723D01*
X57218803Y-55743723D02*
X57180708Y-55858009D01*
X57180708Y-55858009D02*
X57104517Y-55934200D01*
X57104517Y-55934200D02*
X56990232Y-55972295D01*
X56990232Y-55972295D02*
X56914041Y-55972295D01*
X58018803Y-55972295D02*
X57561660Y-55972295D01*
X57790232Y-55972295D02*
X57790232Y-55172295D01*
X57790232Y-55172295D02*
X57714041Y-55286580D01*
X57714041Y-55286580D02*
X57637851Y-55362771D01*
X57637851Y-55362771D02*
X57561660Y-55400866D01*
X58514042Y-55172295D02*
X58590232Y-55172295D01*
X58590232Y-55172295D02*
X58666423Y-55210390D01*
X58666423Y-55210390D02*
X58704518Y-55248485D01*
X58704518Y-55248485D02*
X58742613Y-55324676D01*
X58742613Y-55324676D02*
X58780708Y-55477057D01*
X58780708Y-55477057D02*
X58780708Y-55667533D01*
X58780708Y-55667533D02*
X58742613Y-55819914D01*
X58742613Y-55819914D02*
X58704518Y-55896104D01*
X58704518Y-55896104D02*
X58666423Y-55934200D01*
X58666423Y-55934200D02*
X58590232Y-55972295D01*
X58590232Y-55972295D02*
X58514042Y-55972295D01*
X58514042Y-55972295D02*
X58437851Y-55934200D01*
X58437851Y-55934200D02*
X58399756Y-55896104D01*
X58399756Y-55896104D02*
X58361661Y-55819914D01*
X58361661Y-55819914D02*
X58323565Y-55667533D01*
X58323565Y-55667533D02*
X58323565Y-55477057D01*
X58323565Y-55477057D02*
X58361661Y-55324676D01*
X58361661Y-55324676D02*
X58399756Y-55248485D01*
X58399756Y-55248485D02*
X58437851Y-55210390D01*
X58437851Y-55210390D02*
X58514042Y-55172295D01*
X1295237Y-7187295D02*
X1028570Y-6806342D01*
X838094Y-7187295D02*
X838094Y-6387295D01*
X838094Y-6387295D02*
X1142856Y-6387295D01*
X1142856Y-6387295D02*
X1219046Y-6425390D01*
X1219046Y-6425390D02*
X1257141Y-6463485D01*
X1257141Y-6463485D02*
X1295237Y-6539676D01*
X1295237Y-6539676D02*
X1295237Y-6653961D01*
X1295237Y-6653961D02*
X1257141Y-6730152D01*
X1257141Y-6730152D02*
X1219046Y-6768247D01*
X1219046Y-6768247D02*
X1142856Y-6806342D01*
X1142856Y-6806342D02*
X838094Y-6806342D01*
X1447618Y-7263485D02*
X2057141Y-7263485D01*
X2628570Y-7187295D02*
X2247618Y-7187295D01*
X2247618Y-7187295D02*
X2247618Y-6387295D01*
X2895237Y-6768247D02*
X3161903Y-6768247D01*
X3276189Y-7187295D02*
X2895237Y-7187295D01*
X2895237Y-7187295D02*
X2895237Y-6387295D01*
X2895237Y-6387295D02*
X3276189Y-6387295D01*
X3619047Y-7187295D02*
X3619047Y-6387295D01*
X3619047Y-6387295D02*
X3809523Y-6387295D01*
X3809523Y-6387295D02*
X3923809Y-6425390D01*
X3923809Y-6425390D02*
X3999999Y-6501580D01*
X3999999Y-6501580D02*
X4038094Y-6577771D01*
X4038094Y-6577771D02*
X4076190Y-6730152D01*
X4076190Y-6730152D02*
X4076190Y-6844438D01*
X4076190Y-6844438D02*
X4038094Y-6996819D01*
X4038094Y-6996819D02*
X3999999Y-7073009D01*
X3999999Y-7073009D02*
X3923809Y-7149200D01*
X3923809Y-7149200D02*
X3809523Y-7187295D01*
X3809523Y-7187295D02*
X3619047Y-7187295D01*
X4228571Y-7263485D02*
X4838094Y-7263485D01*
X5028571Y-7187295D02*
X5028571Y-6387295D01*
X5028571Y-6387295D02*
X5333333Y-6387295D01*
X5333333Y-6387295D02*
X5409523Y-6425390D01*
X5409523Y-6425390D02*
X5447618Y-6463485D01*
X5447618Y-6463485D02*
X5485714Y-6539676D01*
X5485714Y-6539676D02*
X5485714Y-6653961D01*
X5485714Y-6653961D02*
X5447618Y-6730152D01*
X5447618Y-6730152D02*
X5409523Y-6768247D01*
X5409523Y-6768247D02*
X5333333Y-6806342D01*
X5333333Y-6806342D02*
X5028571Y-6806342D01*
X5752380Y-6387295D02*
X5942856Y-7187295D01*
X5942856Y-7187295D02*
X6095237Y-6615866D01*
X6095237Y-6615866D02*
X6247618Y-7187295D01*
X6247618Y-7187295D02*
X6438095Y-6387295D01*
X7200000Y-7187295D02*
X6933333Y-6806342D01*
X6742857Y-7187295D02*
X6742857Y-6387295D01*
X6742857Y-6387295D02*
X7047619Y-6387295D01*
X7047619Y-6387295D02*
X7123809Y-6425390D01*
X7123809Y-6425390D02*
X7161904Y-6463485D01*
X7161904Y-6463485D02*
X7200000Y-6539676D01*
X7200000Y-6539676D02*
X7200000Y-6653961D01*
X7200000Y-6653961D02*
X7161904Y-6730152D01*
X7161904Y-6730152D02*
X7123809Y-6768247D01*
X7123809Y-6768247D02*
X7047619Y-6806342D01*
X7047619Y-6806342D02*
X6742857Y-6806342D01*
X57620352Y-34737295D02*
X57353685Y-34356342D01*
X57163209Y-34737295D02*
X57163209Y-33937295D01*
X57163209Y-33937295D02*
X57467971Y-33937295D01*
X57467971Y-33937295D02*
X57544161Y-33975390D01*
X57544161Y-33975390D02*
X57582256Y-34013485D01*
X57582256Y-34013485D02*
X57620352Y-34089676D01*
X57620352Y-34089676D02*
X57620352Y-34203961D01*
X57620352Y-34203961D02*
X57582256Y-34280152D01*
X57582256Y-34280152D02*
X57544161Y-34318247D01*
X57544161Y-34318247D02*
X57467971Y-34356342D01*
X57467971Y-34356342D02*
X57163209Y-34356342D01*
X57772733Y-34813485D02*
X58382256Y-34813485D01*
X58534637Y-34699200D02*
X58648923Y-34737295D01*
X58648923Y-34737295D02*
X58839399Y-34737295D01*
X58839399Y-34737295D02*
X58915590Y-34699200D01*
X58915590Y-34699200D02*
X58953685Y-34661104D01*
X58953685Y-34661104D02*
X58991780Y-34584914D01*
X58991780Y-34584914D02*
X58991780Y-34508723D01*
X58991780Y-34508723D02*
X58953685Y-34432533D01*
X58953685Y-34432533D02*
X58915590Y-34394438D01*
X58915590Y-34394438D02*
X58839399Y-34356342D01*
X58839399Y-34356342D02*
X58687018Y-34318247D01*
X58687018Y-34318247D02*
X58610828Y-34280152D01*
X58610828Y-34280152D02*
X58572733Y-34242057D01*
X58572733Y-34242057D02*
X58534637Y-34165866D01*
X58534637Y-34165866D02*
X58534637Y-34089676D01*
X58534637Y-34089676D02*
X58572733Y-34013485D01*
X58572733Y-34013485D02*
X58610828Y-33975390D01*
X58610828Y-33975390D02*
X58687018Y-33937295D01*
X58687018Y-33937295D02*
X58877495Y-33937295D01*
X58877495Y-33937295D02*
X58991780Y-33975390D01*
X59334638Y-34737295D02*
X59334638Y-33937295D01*
X59334638Y-34318247D02*
X59791781Y-34318247D01*
X59791781Y-34737295D02*
X59791781Y-33937295D01*
X60172733Y-33937295D02*
X60172733Y-34584914D01*
X60172733Y-34584914D02*
X60210828Y-34661104D01*
X60210828Y-34661104D02*
X60248923Y-34699200D01*
X60248923Y-34699200D02*
X60325114Y-34737295D01*
X60325114Y-34737295D02*
X60477495Y-34737295D01*
X60477495Y-34737295D02*
X60553685Y-34699200D01*
X60553685Y-34699200D02*
X60591780Y-34661104D01*
X60591780Y-34661104D02*
X60629876Y-34584914D01*
X60629876Y-34584914D02*
X60629876Y-33937295D01*
X61010828Y-34737295D02*
X61010828Y-33937295D01*
X61010828Y-33937295D02*
X61467971Y-34737295D01*
X61467971Y-34737295D02*
X61467971Y-33937295D01*
X61734637Y-33937295D02*
X62191780Y-33937295D01*
X61963208Y-34737295D02*
X61963208Y-33937295D01*
X21908094Y-45162295D02*
X21641427Y-44781342D01*
X21450951Y-45162295D02*
X21450951Y-44362295D01*
X21450951Y-44362295D02*
X21755713Y-44362295D01*
X21755713Y-44362295D02*
X21831903Y-44400390D01*
X21831903Y-44400390D02*
X21869998Y-44438485D01*
X21869998Y-44438485D02*
X21908094Y-44514676D01*
X21908094Y-44514676D02*
X21908094Y-44628961D01*
X21908094Y-44628961D02*
X21869998Y-44705152D01*
X21869998Y-44705152D02*
X21831903Y-44743247D01*
X21831903Y-44743247D02*
X21755713Y-44781342D01*
X21755713Y-44781342D02*
X21450951Y-44781342D01*
X22136665Y-44628961D02*
X22441427Y-44628961D01*
X22250951Y-44362295D02*
X22250951Y-45048009D01*
X22250951Y-45048009D02*
X22289046Y-45124200D01*
X22289046Y-45124200D02*
X22365236Y-45162295D01*
X22365236Y-45162295D02*
X22441427Y-45162295D01*
X23089046Y-44362295D02*
X22708094Y-44362295D01*
X22708094Y-44362295D02*
X22669998Y-44743247D01*
X22669998Y-44743247D02*
X22708094Y-44705152D01*
X22708094Y-44705152D02*
X22784284Y-44667057D01*
X22784284Y-44667057D02*
X22974760Y-44667057D01*
X22974760Y-44667057D02*
X23050951Y-44705152D01*
X23050951Y-44705152D02*
X23089046Y-44743247D01*
X23089046Y-44743247D02*
X23127141Y-44819438D01*
X23127141Y-44819438D02*
X23127141Y-45009914D01*
X23127141Y-45009914D02*
X23089046Y-45086104D01*
X23089046Y-45086104D02*
X23050951Y-45124200D01*
X23050951Y-45124200D02*
X22974760Y-45162295D01*
X22974760Y-45162295D02*
X22784284Y-45162295D01*
X22784284Y-45162295D02*
X22708094Y-45124200D01*
X22708094Y-45124200D02*
X22669998Y-45086104D01*
X82162266Y-39701228D02*
X82162266Y-40272656D01*
X82162266Y-40272656D02*
X82124171Y-40386942D01*
X82124171Y-40386942D02*
X82047980Y-40463133D01*
X82047980Y-40463133D02*
X81933695Y-40501228D01*
X81933695Y-40501228D02*
X81857504Y-40501228D01*
X82581314Y-40501228D02*
X82733695Y-40501228D01*
X82733695Y-40501228D02*
X82809885Y-40463133D01*
X82809885Y-40463133D02*
X82847981Y-40425037D01*
X82847981Y-40425037D02*
X82924171Y-40310752D01*
X82924171Y-40310752D02*
X82962266Y-40158371D01*
X82962266Y-40158371D02*
X82962266Y-39853609D01*
X82962266Y-39853609D02*
X82924171Y-39777418D01*
X82924171Y-39777418D02*
X82886076Y-39739323D01*
X82886076Y-39739323D02*
X82809885Y-39701228D01*
X82809885Y-39701228D02*
X82657504Y-39701228D01*
X82657504Y-39701228D02*
X82581314Y-39739323D01*
X82581314Y-39739323D02*
X82543219Y-39777418D01*
X82543219Y-39777418D02*
X82505123Y-39853609D01*
X82505123Y-39853609D02*
X82505123Y-40044085D01*
X82505123Y-40044085D02*
X82543219Y-40120275D01*
X82543219Y-40120275D02*
X82581314Y-40158371D01*
X82581314Y-40158371D02*
X82657504Y-40196466D01*
X82657504Y-40196466D02*
X82809885Y-40196466D01*
X82809885Y-40196466D02*
X82886076Y-40158371D01*
X82886076Y-40158371D02*
X82924171Y-40120275D01*
X82924171Y-40120275D02*
X82962266Y-40044085D01*
X2461461Y-12773636D02*
X2461461Y-13154588D01*
X2461461Y-13154588D02*
X1661461Y-13154588D01*
X2042413Y-12506969D02*
X2042413Y-12240303D01*
X2461461Y-12126017D02*
X2461461Y-12506969D01*
X2461461Y-12506969D02*
X1661461Y-12506969D01*
X1661461Y-12506969D02*
X1661461Y-12126017D01*
X2461461Y-11783159D02*
X1661461Y-11783159D01*
X1661461Y-11783159D02*
X1661461Y-11592683D01*
X1661461Y-11592683D02*
X1699556Y-11478397D01*
X1699556Y-11478397D02*
X1775746Y-11402207D01*
X1775746Y-11402207D02*
X1851937Y-11364112D01*
X1851937Y-11364112D02*
X2004318Y-11326016D01*
X2004318Y-11326016D02*
X2118604Y-11326016D01*
X2118604Y-11326016D02*
X2270985Y-11364112D01*
X2270985Y-11364112D02*
X2347175Y-11402207D01*
X2347175Y-11402207D02*
X2423366Y-11478397D01*
X2423366Y-11478397D02*
X2461461Y-11592683D01*
X2461461Y-11592683D02*
X2461461Y-11783159D01*
X2537651Y-11173636D02*
X2537651Y-10564112D01*
X2461461Y-10373635D02*
X1661461Y-10373635D01*
X1661461Y-10373635D02*
X1661461Y-10068873D01*
X1661461Y-10068873D02*
X1699556Y-9992683D01*
X1699556Y-9992683D02*
X1737651Y-9954588D01*
X1737651Y-9954588D02*
X1813842Y-9916492D01*
X1813842Y-9916492D02*
X1928127Y-9916492D01*
X1928127Y-9916492D02*
X2004318Y-9954588D01*
X2004318Y-9954588D02*
X2042413Y-9992683D01*
X2042413Y-9992683D02*
X2080508Y-10068873D01*
X2080508Y-10068873D02*
X2080508Y-10373635D01*
X1661461Y-9649826D02*
X2461461Y-9459350D01*
X2461461Y-9459350D02*
X1890032Y-9306969D01*
X1890032Y-9306969D02*
X2461461Y-9154588D01*
X2461461Y-9154588D02*
X1661461Y-8964112D01*
X2461461Y-8202206D02*
X2080508Y-8468873D01*
X2461461Y-8659349D02*
X1661461Y-8659349D01*
X1661461Y-8659349D02*
X1661461Y-8354587D01*
X1661461Y-8354587D02*
X1699556Y-8278397D01*
X1699556Y-8278397D02*
X1737651Y-8240302D01*
X1737651Y-8240302D02*
X1813842Y-8202206D01*
X1813842Y-8202206D02*
X1928127Y-8202206D01*
X1928127Y-8202206D02*
X2004318Y-8240302D01*
X2004318Y-8240302D02*
X2042413Y-8278397D01*
X2042413Y-8278397D02*
X2080508Y-8354587D01*
X2080508Y-8354587D02*
X2080508Y-8659349D01*
X85773333Y-19562295D02*
X85773333Y-20133723D01*
X85773333Y-20133723D02*
X85735238Y-20248009D01*
X85735238Y-20248009D02*
X85659047Y-20324200D01*
X85659047Y-20324200D02*
X85544762Y-20362295D01*
X85544762Y-20362295D02*
X85468571Y-20362295D01*
X86535238Y-19562295D02*
X86154286Y-19562295D01*
X86154286Y-19562295D02*
X86116190Y-19943247D01*
X86116190Y-19943247D02*
X86154286Y-19905152D01*
X86154286Y-19905152D02*
X86230476Y-19867057D01*
X86230476Y-19867057D02*
X86420952Y-19867057D01*
X86420952Y-19867057D02*
X86497143Y-19905152D01*
X86497143Y-19905152D02*
X86535238Y-19943247D01*
X86535238Y-19943247D02*
X86573333Y-20019438D01*
X86573333Y-20019438D02*
X86573333Y-20209914D01*
X86573333Y-20209914D02*
X86535238Y-20286104D01*
X86535238Y-20286104D02*
X86497143Y-20324200D01*
X86497143Y-20324200D02*
X86420952Y-20362295D01*
X86420952Y-20362295D02*
X86230476Y-20362295D01*
X86230476Y-20362295D02*
X86154286Y-20324200D01*
X86154286Y-20324200D02*
X86116190Y-20286104D01*
D12*
%TO.C,J2B*%
X885000Y-14270000D02*
X885000Y-16930000D01*
X49205000Y-14270000D02*
X885000Y-14270000D01*
X49205000Y-14270000D02*
X49205000Y-16930000D01*
X49205000Y-16930000D02*
X885000Y-16930000D01*
X51805000Y-15600000D02*
X51805000Y-16930000D01*
X51805000Y-16930000D02*
X50475000Y-16930000D01*
%TO.C,D_VSYS*%
X2540000Y-17905000D02*
X2540000Y-19905000D01*
X2540000Y-17905000D02*
X6550000Y-17905000D01*
X2540000Y-19905000D02*
X6550000Y-19905000D01*
%TO.C,R_HVEN_PD*%
X65260000Y-41446359D02*
X65260000Y-41753641D01*
X66020000Y-41446359D02*
X66020000Y-41753641D01*
%TO.C,J7*%
X66960000Y-57415000D02*
X68010000Y-57415000D01*
X66960000Y-59915000D02*
X66960000Y-57415000D01*
X68010000Y-57415000D02*
X68010000Y-56425000D01*
X68130000Y-61885000D02*
X71010000Y-61885000D01*
X72180000Y-57415000D02*
X71130000Y-57415000D01*
X72180000Y-59915000D02*
X72180000Y-57415000D01*
%TO.C,R_DDP*%
X68846359Y-43370000D02*
X69153641Y-43370000D01*
X68846359Y-44130000D02*
X69153641Y-44130000D01*
%TO.C,R_CC4*%
X79970000Y-52846359D02*
X79970000Y-53153641D01*
X80730000Y-52846359D02*
X80730000Y-53153641D01*
%TO.C,SW1*%
X75910000Y-56505000D02*
X82210000Y-56505000D01*
X75910000Y-56755000D02*
X75910000Y-56505000D01*
X75910000Y-61255000D02*
X75910000Y-58655000D01*
X75910000Y-63405000D02*
X75910000Y-63155000D01*
X82210000Y-56505000D02*
X82210000Y-56755000D01*
X82210000Y-58655000D02*
X82210000Y-61255000D01*
X82210000Y-63155000D02*
X82210000Y-63405000D01*
X82210000Y-63405000D02*
X75910000Y-63405000D01*
%TO.C,J_STEMMA*%
X44990000Y-3185000D02*
X44990000Y-5685000D01*
X44990000Y-5685000D02*
X46040000Y-5685000D01*
X50040000Y-1215000D02*
X46160000Y-1215000D01*
X50160000Y-5685000D02*
X50160000Y-6675000D01*
X51210000Y-3185000D02*
X51210000Y-5685000D01*
X51210000Y-5685000D02*
X50160000Y-5685000D01*
%TO.C,R_CC1*%
X20920000Y-6746359D02*
X20920000Y-7053641D01*
X21680000Y-6746359D02*
X21680000Y-7053641D01*
%TO.C,LED_USER*%
X55565000Y-7115000D02*
X55565000Y-9400000D01*
X57035000Y-7115000D02*
X55565000Y-7115000D01*
X57035000Y-9400000D02*
X57035000Y-7115000D01*
%TO.C,PICO*%
X-565000Y-27890000D02*
X255000Y-27890000D01*
X-565000Y-36110000D02*
X-565000Y-27890000D01*
X-565000Y-36110000D02*
X255000Y-36110000D01*
X255000Y-27890000D02*
X255000Y-28100000D01*
X255000Y-28100000D02*
X1651000Y-28100000D01*
X255000Y-35900000D02*
X1651000Y-35900000D01*
X255000Y-36110000D02*
X255000Y-35900000D01*
X735000Y-22000000D02*
X735000Y-24490000D01*
X735000Y-24490000D02*
X1648520Y-24490000D01*
X735000Y-25837939D02*
X735000Y-24490000D01*
X735000Y-27765000D02*
X735000Y-26762061D01*
X735000Y-36235000D02*
X735000Y-27765000D01*
X735000Y-37237939D02*
X735000Y-36235000D01*
X735000Y-39510000D02*
X735000Y-38162060D01*
X735000Y-39510000D02*
X1648520Y-39510000D01*
X735000Y-42000000D02*
X735000Y-39510000D01*
X798000Y-42270000D02*
X51892000Y-42270000D01*
X1345000Y-21390000D02*
X51345000Y-21390000D01*
X1345000Y-42610000D02*
X51345000Y-42610000D01*
X3015000Y-42930000D02*
X1415000Y-42930000D01*
X4039000Y-28100000D02*
X5255000Y-28100000D01*
X4039000Y-35900000D02*
X5255000Y-35900000D01*
X4041480Y-24490000D02*
X48648520Y-24490000D01*
X4041480Y-39510000D02*
X48648520Y-39510000D01*
X5255000Y-28100000D02*
X5255000Y-35900000D01*
X51041480Y-24490000D02*
X51955000Y-24490000D01*
X51041480Y-39510000D02*
X51955000Y-39510000D01*
X51892000Y-21730000D02*
X798000Y-21730000D01*
X51955000Y-25837939D02*
X51955000Y-22000000D01*
X51955000Y-26762061D02*
X51955000Y-28400000D01*
X51955000Y-28400000D02*
X51955000Y-35600000D01*
X51955000Y-35600000D02*
X51955000Y-37237939D01*
X51955000Y-42000000D02*
X51955000Y-38162061D01*
X735000Y-22000000D02*
G75*
G02*
X1345000Y-21390000I610000J0D01*
G01*
X1345000Y-42610000D02*
G75*
G02*
X735000Y-42000000I0J610000D01*
G01*
X51345000Y-21390000D02*
G75*
G02*
X51955000Y-22000000I0J-610000D01*
G01*
X51955000Y-42000000D02*
G75*
G02*
X51345000Y-42610000I-609901J-99D01*
G01*
%TO.C,R_HDP_PD*%
X63410000Y-17303641D02*
X63410000Y-16996359D01*
X64170000Y-17303641D02*
X64170000Y-16996359D01*
%TO.C,R_NVD_T*%
X52520000Y-9153641D02*
X52520000Y-8846359D01*
X53280000Y-9153641D02*
X53280000Y-8846359D01*
%TO.C,C_HSW_IN*%
X68392164Y-40640000D02*
X68607836Y-40640000D01*
X68392164Y-41360000D02*
X68607836Y-41360000D01*
%TO.C,U_HSW*%
X64500000Y-36640000D02*
X63700000Y-36640000D01*
X64500000Y-36640000D02*
X65300000Y-36640000D01*
X64500000Y-39760000D02*
X63700000Y-39760000D01*
X64500000Y-39760000D02*
X65300000Y-39760000D01*
X63200000Y-36690000D02*
X62960000Y-36360000D01*
X63440000Y-36360000D01*
X63200000Y-36690000D01*
G36*
X63200000Y-36690000D02*
G01*
X62960000Y-36360000D01*
X63440000Y-36360000D01*
X63200000Y-36690000D01*
G37*
%TO.C,ESD_D*%
X77500000Y-43140000D02*
X76700000Y-43140000D01*
X77500000Y-43140000D02*
X78300000Y-43140000D01*
X77500000Y-46260000D02*
X76700000Y-46260000D01*
X77500000Y-46260000D02*
X78300000Y-46260000D01*
X76200000Y-43190000D02*
X75960000Y-42860000D01*
X76440000Y-42860000D01*
X76200000Y-43190000D01*
G36*
X76200000Y-43190000D02*
G01*
X75960000Y-42860000D01*
X76440000Y-42860000D01*
X76200000Y-43190000D01*
G37*
%TO.C,TP2*%
X62625000Y-23500000D02*
G75*
G02*
X60725000Y-23500000I-950000J0D01*
G01*
X60725000Y-23500000D02*
G75*
G02*
X62625000Y-23500000I950000J0D01*
G01*
%TO.C,C_HVBUS_100n*%
X69640000Y-29092164D02*
X69640000Y-29307836D01*
X70360000Y-29092164D02*
X70360000Y-29307836D01*
%TO.C,R_LED_USER*%
X55920000Y-11753641D02*
X55920000Y-11446359D01*
X56680000Y-11753641D02*
X56680000Y-11446359D01*
%TO.C,Rt1*%
X4375000Y-44953641D02*
X4375000Y-44646359D01*
X5135000Y-44953641D02*
X5135000Y-44646359D01*
%TO.C,JP2*%
X835000Y-53635000D02*
X835000Y-52255000D01*
X2215000Y-53635000D02*
X835000Y-53635000D01*
X3485000Y-50875000D02*
X6135000Y-50875000D01*
X3485000Y-53635000D02*
X3485000Y-50875000D01*
X3485000Y-53635000D02*
X6135000Y-53635000D01*
X6135000Y-53635000D02*
X6135000Y-50875000D01*
%TO.C,R_CC2*%
X22220000Y-6746359D02*
X22220000Y-7053641D01*
X22980000Y-6746359D02*
X22980000Y-7053641D01*
%TO.C,SW_USER*%
X68350000Y-4050000D02*
X74650000Y-4050000D01*
X68350000Y-4300000D02*
X68350000Y-4050000D01*
X68350000Y-8800000D02*
X68350000Y-6200000D01*
X68350000Y-10950000D02*
X68350000Y-10700000D01*
X74650000Y-4050000D02*
X74650000Y-4300000D01*
X74650000Y-6200000D02*
X74650000Y-8800000D01*
X74650000Y-10700000D02*
X74650000Y-10950000D01*
X74650000Y-10950000D02*
X68350000Y-10950000D01*
%TO.C,ESD_H*%
X66700000Y-18440000D02*
X65900000Y-18440000D01*
X66700000Y-18440000D02*
X67500000Y-18440000D01*
X66700000Y-21560000D02*
X65900000Y-21560000D01*
X66700000Y-21560000D02*
X67500000Y-21560000D01*
X65400000Y-18490000D02*
X65160000Y-18160000D01*
X65640000Y-18160000D01*
X65400000Y-18490000D01*
G36*
X65400000Y-18490000D02*
G01*
X65160000Y-18160000D01*
X65640000Y-18160000D01*
X65400000Y-18490000D01*
G37*
%TO.C,R_HDM*%
X58946359Y-20620000D02*
X59253641Y-20620000D01*
X58946359Y-21380000D02*
X59253641Y-21380000D01*
%TO.C,R_NVD_B*%
X54120000Y-8846359D02*
X54120000Y-9153641D01*
X54880000Y-8846359D02*
X54880000Y-9153641D01*
%TO.C,C_NRESET*%
X78952164Y-55035000D02*
X79167836Y-55035000D01*
X78952164Y-55755000D02*
X79167836Y-55755000D01*
%TO.C,R_HDM_PD*%
X63410000Y-22696359D02*
X63410000Y-23003641D01*
X64170000Y-22696359D02*
X64170000Y-23003641D01*
%TO.C,R_DDM*%
X68846359Y-45270000D02*
X69153641Y-45270000D01*
X68846359Y-46030000D02*
X69153641Y-46030000D01*
%TO.C,C_P3V3_1*%
X28107836Y-10640000D02*
X27892164Y-10640000D01*
X28107836Y-11360000D02*
X27892164Y-11360000D01*
%TO.C,J3*%
X8430000Y-57385000D02*
X8495000Y-57385000D01*
X8430000Y-61015000D02*
X8430000Y-57385000D01*
X8430000Y-61015000D02*
X8495000Y-61015000D01*
X8495000Y-62290000D02*
X8495000Y-61015000D01*
X21285000Y-57385000D02*
X21350000Y-57385000D01*
X21285000Y-61015000D02*
X21350000Y-61015000D01*
X21350000Y-61015000D02*
X21350000Y-57385000D01*
X8290000Y-62850000D02*
X21490000Y-62850000D01*
X21490000Y-55550000D01*
X8290000Y-55550000D01*
X8290000Y-62850000D01*
D13*
X8545000Y-63150000D02*
G75*
G02*
X8235000Y-63150000I-155000J0D01*
G01*
X8235000Y-63150000D02*
G75*
G02*
X8545000Y-63150000I155000J0D01*
G01*
D12*
%TO.C,TP1*%
X62625000Y-16500000D02*
G75*
G02*
X60725000Y-16500000I-950000J0D01*
G01*
X60725000Y-16500000D02*
G75*
G02*
X62625000Y-16500000I950000J0D01*
G01*
%TO.C,R_J9VD_B*%
X81620000Y-51846359D02*
X81620000Y-52153641D01*
X82380000Y-51846359D02*
X82380000Y-52153641D01*
%TO.C,R_J9VD_T*%
X83120000Y-52153641D02*
X83120000Y-51846359D01*
X83880000Y-52153641D02*
X83880000Y-51846359D01*
%TO.C,R_CC3*%
X78120000Y-52946359D02*
X78120000Y-53253641D01*
X78880000Y-52946359D02*
X78880000Y-53253641D01*
%TO.C,J8*%
X24700000Y-2150000D02*
X24700000Y-250000D01*
X24700000Y-6050000D02*
X24700000Y-4050000D01*
X34100000Y-250000D02*
X24700000Y-250000D01*
X34100000Y-2150000D02*
X34100000Y-250000D01*
X34100000Y-6050000D02*
X34100000Y-4050000D01*
%TO.C,C_P3V3_2*%
X48492164Y-10440000D02*
X48707836Y-10440000D01*
X48492164Y-11160000D02*
X48707836Y-11160000D01*
%TO.C,R_HDP*%
X58946359Y-18620000D02*
X59253641Y-18620000D01*
X58946359Y-19380000D02*
X59253641Y-19380000D01*
%TO.C,J_UART*%
X57880000Y-12035000D02*
X57880000Y-10655000D01*
X59260000Y-12035000D02*
X57880000Y-12035000D01*
X60530000Y-9275000D02*
X65720000Y-9275000D01*
X60530000Y-12035000D02*
X60530000Y-9275000D01*
X60530000Y-12035000D02*
X65720000Y-12035000D01*
X65720000Y-12035000D02*
X65720000Y-9275000D01*
%TO.C,J1B*%
X885000Y-46470000D02*
X2215000Y-46470000D01*
X885000Y-47800000D02*
X885000Y-46470000D01*
X3485000Y-46470000D02*
X51805000Y-46470000D01*
X3485000Y-49130000D02*
X3485000Y-46470000D01*
X3485000Y-49130000D02*
X51805000Y-49130000D01*
X51805000Y-49130000D02*
X51805000Y-46470000D01*
%TO.C,R_DPU*%
X62620000Y-45246359D02*
X62620000Y-45553641D01*
X63380000Y-45246359D02*
X63380000Y-45553641D01*
%TO.C,U_INA219_ALT*%
X61500000Y-26740000D02*
X60700000Y-26740000D01*
X61500000Y-26740000D02*
X62300000Y-26740000D01*
X61500000Y-29860000D02*
X60700000Y-29860000D01*
X61500000Y-29860000D02*
X62300000Y-29860000D01*
X63040000Y-30115000D02*
X62560000Y-30115000D01*
X62800000Y-29785000D01*
X63040000Y-30115000D01*
G36*
X63040000Y-30115000D02*
G01*
X62560000Y-30115000D01*
X62800000Y-29785000D01*
X63040000Y-30115000D01*
G37*
%TO.C,U_ISNS*%
X64599999Y-33040000D02*
X63799999Y-33040000D01*
X64599999Y-33040000D02*
X65399999Y-33040000D01*
X64599999Y-36160000D02*
X63799999Y-36160000D01*
X64599999Y-36160000D02*
X65399999Y-36160000D01*
X63299999Y-33090000D02*
X63059999Y-32760000D01*
X63539999Y-32760000D01*
X63299999Y-33090000D01*
G36*
X63299999Y-33090000D02*
G01*
X63059999Y-32760000D01*
X63539999Y-32760000D01*
X63299999Y-33090000D01*
G37*
%TO.C,JP1*%
X8580000Y-12035000D02*
X8580000Y-10655000D01*
X9960000Y-12035000D02*
X8580000Y-12035000D01*
X11230000Y-9275000D02*
X16420000Y-9275000D01*
X11230000Y-12035000D02*
X11230000Y-9275000D01*
X11230000Y-12035000D02*
X16420000Y-12035000D01*
X16420000Y-12035000D02*
X16420000Y-9275000D01*
%TO.C,C_HVBUS_BULK*%
X72265000Y-29738748D02*
X72265000Y-30261252D01*
X73735000Y-29738748D02*
X73735000Y-30261252D01*
%TO.C,JP3*%
X21155000Y-53635000D02*
X21155000Y-52255000D01*
X22535000Y-53635000D02*
X21155000Y-53635000D01*
X23805000Y-50875000D02*
X26455000Y-50875000D01*
X23805000Y-53635000D02*
X23805000Y-50875000D01*
X23805000Y-53635000D02*
X26455000Y-53635000D01*
X26455000Y-53635000D02*
X26455000Y-50875000D01*
%TO.C,D_J9_BUSPWR*%
X75340000Y-49500000D02*
X75340000Y-51500000D01*
X75340000Y-49500000D02*
X79350000Y-49500000D01*
X75340000Y-51500000D02*
X79350000Y-51500000D01*
%TO.C,Rt2*%
X9455000Y-44953641D02*
X9455000Y-44646359D01*
X10215000Y-44953641D02*
X10215000Y-44646359D01*
%TO.C,JP4*%
X18350000Y-12035000D02*
X18350000Y-10655000D01*
X19730000Y-12035000D02*
X18350000Y-12035000D01*
X21000000Y-9275000D02*
X23650000Y-9275000D01*
X21000000Y-12035000D02*
X21000000Y-9275000D01*
X21000000Y-12035000D02*
X23650000Y-12035000D01*
X23650000Y-12035000D02*
X23650000Y-9275000D01*
%TO.C,Rt4*%
X14535000Y-44953641D02*
X14535000Y-44646359D01*
X15295000Y-44953641D02*
X15295000Y-44646359D01*
%TO.C,TP3*%
X68400000Y-25400000D02*
G75*
G02*
X66500000Y-25400000I-950000J0D01*
G01*
X66500000Y-25400000D02*
G75*
G02*
X68400000Y-25400000I950000J0D01*
G01*
%TO.C,J6*%
X49115000Y-57385000D02*
X49180000Y-57385000D01*
X49115000Y-61015000D02*
X49115000Y-57385000D01*
X49115000Y-61015000D02*
X49180000Y-61015000D01*
X49180000Y-62290000D02*
X49180000Y-61015000D01*
X55620000Y-57385000D02*
X55685000Y-57385000D01*
X55620000Y-61015000D02*
X55685000Y-61015000D01*
X55685000Y-61015000D02*
X55685000Y-57385000D01*
X49000000Y-62850000D02*
X55800000Y-62850000D01*
X55800000Y-55550000D01*
X49000000Y-55550000D01*
X49000000Y-62850000D01*
D13*
X49305000Y-63150000D02*
G75*
G02*
X48995000Y-63150000I-155000J0D01*
G01*
X48995000Y-63150000D02*
G75*
G02*
X49305000Y-63150000I155000J0D01*
G01*
D12*
%TO.C,Rt3*%
X11995000Y-44953641D02*
X11995000Y-44646359D01*
X12755000Y-44953641D02*
X12755000Y-44646359D01*
%TO.C,J10*%
X57220000Y-58880000D02*
X57220000Y-57500000D01*
X58600000Y-58880000D02*
X57220000Y-58880000D01*
X59870000Y-56120000D02*
X65060000Y-56120000D01*
X59870000Y-58880000D02*
X59870000Y-56120000D01*
X59870000Y-58880000D02*
X65060000Y-58880000D01*
X65060000Y-58880000D02*
X65060000Y-56120000D01*
%TO.C,R_LED_PWR*%
X3620000Y-12253641D02*
X3620000Y-11946359D01*
X4380000Y-12253641D02*
X4380000Y-11946359D01*
%TO.C,R_SHUNT*%
X63872935Y-30590000D02*
X65327063Y-30590000D01*
X63872935Y-32410000D02*
X65327063Y-32410000D01*
%TO.C,Rt5*%
X17075000Y-44953641D02*
X17075000Y-44646359D01*
X17835000Y-44953641D02*
X17835000Y-44646359D01*
%TO.C,J9*%
X85950000Y-40300000D02*
X87950000Y-40300000D01*
X85950000Y-49700000D02*
X87950000Y-49700000D01*
X89850000Y-40300000D02*
X91750000Y-40300000D01*
X89850000Y-49700000D02*
X91750000Y-49700000D01*
X91750000Y-49700000D02*
X91750000Y-40300000D01*
%TO.C,LED_PWR*%
X3265000Y-8115000D02*
X3265000Y-10400000D01*
X4735000Y-8115000D02*
X3265000Y-8115000D01*
X4735000Y-10400000D02*
X4735000Y-8115000D01*
%TO.C,J5*%
X71705000Y-13420000D02*
X73355000Y-13420000D01*
X71705000Y-15590000D02*
X71705000Y-13420000D01*
X71705000Y-24410000D02*
X69865000Y-24410000D01*
X71705000Y-24410000D02*
X71705000Y-26580000D01*
X71705000Y-26580000D02*
X73355000Y-26580000D01*
X76775000Y-13420000D02*
X83865000Y-13420000D01*
X76775000Y-26580000D02*
X83865000Y-26580000D01*
%TD*%
M02*
